<svg xmlns="http://www.w3.org/2000/svg" viewBox="0 0 500 500"><defs><style>.cls-1{fill:#fff;}.cls-2{fill:#a8b2f4;}.cls-3{fill:#7c84d5;}.cls-4,.cls-6{fill:none;stroke-miterlimit:10;}.cls-4{stroke:#7c84d5;}.cls-5{fill:#5661af;}.cls-6{stroke:#fff;}.cls-7{fill:#3d2624;}.cls-8{fill:#c56e5d;}.cls-9{fill:#f7dbc6;}.cls-10{fill:#af5448;}.cls-11{fill:#913d37;}.cls-12{fill:#743f3d;}.cls-13{fill:#5e3030;}.cls-14{fill:#efc9b6;}</style></defs><g id="BACKGROUND"><rect class="cls-1" width="500" height="500"/></g><g id="OBJECT"><path class="cls-2" d="M424,334.14c-10.56-4.77-12.17-16.24-16.53-22.21s-14.92-9.65-14.92-9.65,10.1-7.8,26.17-6c7.56.86,13.23,4.26,17.87,7.95-2.39-6.91,0-10.9-4.09-17.47-4.83-7.69-14.24-11.83-19.52-24.59a32.56,32.56,0,0,1,0-24.21s1.61,4.6,8,9.19c5.74,4.1,21.94,4.73,31.54,17.11-5-69.87-53.54-108.06-87.15-128-28.87-17.11-47.52-52.81-125.52-47.65s-95.37,55.22-114.7,93.1c-10.7,21-34.89,25.61-55.29,40,15.1-3.95,24.68,3.34,36.06,5.63,13.63,2.76,15.77-6.85,28-6.79S150.76,225,150.76,225s-12.24-1.84-16.22,8.57-8.88,14.31-21.12,12.66-15.79-.75-22.28,5.08S69.65,252.85,61.07,255c-5.07,1.27-12,10.28-16.76,17.41a72.78,72.78,0,0,1,16.29-9.77c19.89-8.88,45.31,7.36,45.31,7.36s-20,4.59-31.67,12.55-19.9.31-27.86,3.06A95,95,0,0,0,37,289.43s0,.06,0,.09c-1.6,24.75,7.76,46.73,23.65,65.56,38.9,46.11,117,73.43,169.53,76.7,55,3.4,151.45-17,197.26-77.87a129.53,129.53,0,0,0,10.9-17.11C433.71,336.77,428.44,336.17,424,334.14Z"/><circle class="cls-3" cx="196.51" cy="190.48" r="28.86" transform="translate(-58.64 91.49) rotate(-22.9)"/><circle class="cls-3" cx="395.38" cy="161.62" r="10.48"/><path class="cls-3" d="M427.39,353.91c-45.81,60.85-142.29,81.27-197.26,77.87-52.56-3.27-130.63-30.59-169.53-76.7,14.81-16.42,52.69-49.69,122.6-59,94-12.58,159.48,62,230.5,58.1C418.48,353.87,423,353.81,427.39,353.91Z"/><path class="cls-4" d="M122.75,160c8.73-26.17-11.93-14.08-19.74,2.6s-22.5,18.52-22.5,27.93S114,186.12,122.75,160Z"/><path class="cls-4" d="M362,127.11s-24.34-20.65-34.21-27.31-5.51-15.61,17.1-5.28S377.12,124.8,374.13,129,362,127.11,362,127.11Z"/><path class="cls-5" d="M136.14,188.91a1.57,1.57,0,1,1-1.56-1.56A1.56,1.56,0,0,1,136.14,188.91Z"/><path class="cls-5" d="M149.31,191.88a1.57,1.57,0,1,1-1.57-1.57A1.58,1.58,0,0,1,149.31,191.88Z"/><path class="cls-5" d="M193.29,145a1.57,1.57,0,1,1-1.56-1.57A1.56,1.56,0,0,1,193.29,145Z"/><path class="cls-5" d="M398.52,284.07A1.57,1.57,0,1,1,397,282.5,1.57,1.57,0,0,1,398.52,284.07Z"/><path class="cls-5" d="M403.85,279.82a1.57,1.57,0,1,1-1.56-1.57A1.57,1.57,0,0,1,403.85,279.82Z"/><circle class="cls-5" cx="143.64" cy="183.83" r="2.53"/><circle class="cls-5" cx="410.02" cy="200.94" r="2.53"/><path class="cls-6" d="M141.12,276.87a3.27,3.27,0,1,1-3.27-3.27A3.27,3.27,0,0,1,141.12,276.87Z"/><path class="cls-6" d="M326.05,137.34a3.27,3.27,0,1,1-3.27-3.27A3.26,3.26,0,0,1,326.05,137.34Z"/><circle class="cls-6" cx="162.25" cy="126.87" r="10.43" transform="translate(-35.22 68.33) rotate(-21.51)"/><circle class="cls-6" cx="444.91" cy="216.79" r="21.38" transform="translate(-48.93 184.12) rotate(-22.19)"/><circle class="cls-6" cx="44.09" cy="320.8" r="21.38"/><path class="cls-7" d="M206.15,103.27s-4.51,2.34-4.72,12.2,9.24,14.43,15.19,14.33l-.52-1.54s-10.15-1.12-12.78-9.73a15.08,15.08,0,0,1,3.11-14.45Z"/><path class="cls-7" d="M370.18,275.35s-2.06,15.59-29.4,21.54-55.54-9.64-55.54-9.64l4.6-.45s16,9.24,35.08,8.1,30-12.75,30-12.75Z"/><path class="cls-7" d="M376.92,200c1.7-19.27-24.94-39.11-56.68-44.22s-29.45-38.95-29.45-38.95l-63.41,36.48s-2.92,30.25-24.06,47.26-24.77,57.24-14.85,73.11,27.48,17,54.83,15.3,40-.28,70.42,2.27,52.08,9.46,70.54-24.23S376.92,200,376.92,200Zm-2.55-1.56s-3.26-9.49-15.73-19.27A178.15,178.15,0,0,0,336.25,164c38.83,12.19,39.25,34.43,39.25,34.43Z"/><path class="cls-8" d="M205.53,182.8s-9,8.1-15.36,25.1-19.84,69.72-19.84,69.72l21.76,13.57,21-57.5Z"/><path class="cls-9" d="M292.23,264.54a37.92,37.92,0,0,0,2.28,29.68l1.17,5h0l3.2,13.79c-21.92,19-52.36,25.45-71.09,21.31s-23.51-19.46-23.51-19.46l2.9-20.26-5-45.08s-3.88-5.92-5.53-19.56,8.84-47.21,8.84-47.21l34.11-13.64L264.51,167,306,182.8l5.36,13.44c-.19,7.44-5.66,26.56-11.38,44.64C297.28,249.46,294.51,257.8,292.23,264.54Z"/><path class="cls-8" d="M264.75,169.26c-3.9,7.1-17.81,16-23.43,14.06s-1.07-12-1.07-12c.05-1.43.11-2.74.15-3.95.25-8,.2-11.4.2-11.4l24.15-16a59.73,59.73,0,0,0-.94,9.6A147.24,147.24,0,0,0,264.75,169.26Z"/><path class="cls-10" d="M264.75,140a59.73,59.73,0,0,0-.94,9.6c-2.77,4.16-7.38,10.38-12.18,13.79s-9,4.06-11.23,4c.25-8,.2-11.4.2-11.4Z"/><path class="cls-8" d="M214.36,131.53s.84,19.77,14.76,28.68,33.4-9.74,36.75-20.05,2.22-32.57,2.22-32.57S249.72,95.34,235.8,95.34s-21.44,7-21.44,7Z"/><path class="cls-7" d="M230.23,95.73s-.42,7.27,13,15.76,20.61,10.23,20.61,10.23l2.83,15.61s-1.95,4.9-2.49,6.68c-.6,1.94-.36,8.12-.36,8.12S275.05,150.46,279,140a33.15,33.15,0,0,0,12-24.22c.42-15.59-7.65-20.46-7.65-20.46s-2.08-18.65-22.69-21.86-37,8.36-37,8.36-10-1.39-15.45,5.7-1.95,15.73-1.95,15.73-4.74,4.6-2,12.12a13.41,13.41,0,0,0,10.16,8.49s.7-12.81,4.45-19.21S230.23,95.73,230.23,95.73Z"/><path class="cls-8" d="M264.75,124s2.65-6.55,8.08-7.24,5.84,8.91,2.08,15.31-9,5.15-9,5.15Z"/><path class="cls-7" d="M262.11,116.74s3.62,10.9,1.53,19.53a12.16,12.16,0,0,0,1.35-1.7c1.75-2.55,2.48-12.22,3.26-15.54Z"/><path class="cls-7" d="M223.27,82.81a26.49,26.49,0,0,1,29-9.28l1.39-.09a25.83,25.83,0,0,0-17.17-1.1c-9.09,2.77-15.41,9.91-15.41,9.91Z"/><path class="cls-7" d="M283.27,95.34a12.25,12.25,0,0,1,7.67,6.12c2.86,5.2-.09,10.48-.09,10.48l-.48-.64a10.25,10.25,0,0,0-.56-9.37c-2.86-4.9-6.54-4.64-6.54-4.64Z"/><path class="cls-7" d="M216.1,120.57s.58-1.32,4.69-1.24a10.53,10.53,0,0,1,6.59,2.39s-1.89-3.54-5.64-4A5.15,5.15,0,0,0,216.1,120.57Z"/><path class="cls-7" d="M230.23,95.73s-.65,7.13,3.53,12.88,16.51,5.75,16.51,5.75l.5,1.11s-12.19.1-17.11-4.26-5.47-11.66-4.54-15.48Z"/><path class="cls-7" d="M238.51,121s.67-1.52,5.42-1.42a12.16,12.16,0,0,1,7.61,2.75s-2.19-4.09-6.51-4.66A6,6,0,0,0,238.51,121Z"/><path class="cls-11" d="M227.38,139.75a7.93,7.93,0,0,0,3,1.32,6.52,6.52,0,0,0,4,0,3.54,3.54,0,0,0-2.55-1.6A15.59,15.59,0,0,0,227.38,139.75Z"/><path class="cls-10" d="M227.38,121.72s1.32,1.39,1.81,5a24.08,24.08,0,0,1,0,6.47S227.53,123.74,227.38,121.72Z"/><path class="cls-10" d="M216.62,125.76a17.5,17.5,0,0,0,4.56,1.14,19,19,0,0,0,5.67-.52s-1.16-3.13-3.86-3.86C218.74,121.37,216.62,125.76,216.62,125.76Z"/><path class="cls-10" d="M238.51,126.27s.42-3.21,4.53-3.92,9,3.61,9,3.61S243.94,129.82,238.51,126.27Z"/><path class="cls-7" d="M221.85,126.87a15.93,15.93,0,0,1-5.23-1.11l-.52.34a3.38,3.38,0,0,1-1.1.33,3.79,3.79,0,0,0,2,.24,9.92,9.92,0,0,0,4.78,1.31,9.23,9.23,0,0,0,5.11-1.13v-.47A22.24,22.24,0,0,1,221.85,126.87Z"/><path class="cls-7" d="M252,126a28.8,28.8,0,0,1-6.72,1.1,22.32,22.32,0,0,1-6.59-.91l-.64.4a4.73,4.73,0,0,1-1.36.4,5.72,5.72,0,0,0,2.47.16,14.25,14.25,0,0,0,6,1.14c4.27-.13,5.58-1.14,6.51-1.75C251.83,126.42,252,126,252,126Z"/><path class="cls-11" d="M227.38,146.06a20.69,20.69,0,0,0,3.52.88c2.81.56,9.5-.88,9.5-.88a51.57,51.57,0,0,0-6.51-.75,5.45,5.45,0,0,0-2.64.88,5.5,5.5,0,0,0-2.32-1.15,11.72,11.72,0,0,0-2.51.51Z"/><path class="cls-10" d="M228.39,149a9.72,9.72,0,0,0,4.7,1.4,17.36,17.36,0,0,0,5.8-1.07,7.57,7.57,0,0,1-5.25,2.77C230.07,152.51,228.39,149,228.39,149Z"/><path class="cls-12" d="M194.22,327.18l12-25.65s8,8.39,32.31,9.24,57.17-11.49,57.17-11.49,8.41,21.7,8.41,29.77-48,40-48,40l-28.48-2.12Z"/><path class="cls-8" d="M192.85,369s-7.87,3.06-10.56,4.32c0,0-11.76,1.2-16.48,2.59s-5.91,7.72-7.07,14.56-10,16-12.69,20.75-1.43,10.41-1.05,11.58-1.18,5.16.78,7.63,3.1,1.2,4.19.58,1.43-2.78,1.43-2.78a13.62,13.62,0,0,0,4.18-1.48c1.13-.88,0-.89,2.78-1.8a18.14,18.14,0,0,0,5.82-2.78c1.57-1.15,10.43-16.53,16.08-21.46s15.82-6.64,15.82-6.64Z"/><path class="cls-12" d="M346.88,396.64c-19.2,4.84-60.87,8.24-98.23,10.45-38.48,2.28-72.37,3.3-72.37,3.3l-5.71-18.1-5-16.05,111.86-22.18s-3.05-23.16,21.32-35.64c0,0,72.55.58,90.12,21S387.4,386.44,346.88,396.64Z"/><path class="cls-8" d="M237.68,390.28s7.86,3.06,10.56,4.32c0,0,11.76,1.2,16.47,2.59s5.92,7.72,7.07,14.55,10,16,12.69,20.76,1.43,10.4,1,11.57,1.18,5.16-.77,7.63-3.1,1.2-4.2.59-1.43-2.79-1.43-2.79A13.68,13.68,0,0,1,275,448c-1.14-.88,0-.9-2.78-1.8a18.24,18.24,0,0,1-5.82-2.78c-1.57-1.15-10.44-16.54-16.08-21.46s-15.83-6.65-15.83-6.65Z"/><path class="cls-12" d="M200.37,322.68s-95.64,0-110.95,17-6.8,38.68,5.53,45.91S236.5,421.72,236.5,421.72l6.8-39.53-19.06-5.95,10.2-13.67Z"/><path class="cls-13" d="M200.09,326.36s19.95,24.71,30.8,32.05C230.89,358.41,208.59,356.12,200.09,326.36Z"/><path class="cls-13" d="M123,347.76s16.58,2.12,42.51,7.65,58.73,20.83,58.73,20.83-33.65-23-60-28.48S123,347.76,123,347.76Z"/><path class="cls-13" d="M215.49,370.66s77.12-23,109.43-28.27c0,0-68.31,20.53-100.68,33.85Z"/><path class="cls-13" d="M289.84,324.33s-37.38,18.46-50,37.16C239.87,361.49,279.28,341.29,289.84,324.33Z"/><path class="cls-8" d="M192.09,291.19s-6.35-15.45-21.24-15.59l-59.13,40.11a22.73,22.73,0,0,0-6.22-2c-5.33-1-15.86-.86-18.58-1.36-1.32-.24-1.39.42-.83,1.29-.87-.36-2.25.6-3.32,2.18-1.67,2.48-5.88,7.09-5.88,9.68s4.58,5.18,7.3,5.31c0,0-9.29,2.35-11,5.69s2.85,2.85,4.33,2.11,11-3.34,11-3.34-9.42,5.2-9.66,8.79,3,1.49,5.94,0,8.3-4.21,8.3-4.21-7.68,5.57-6.32,8.05,7.68-3.18,12.76-5.49,8.92-2.65,13.2-4.32a20.57,20.57,0,0,0,9.16-7.35C132.48,326.82,177.75,309.22,192.09,291.19Zm-99.6,33.68c-4.21,1.49-9,0-9.66-.74s4.09-5.08,4.09-8.42a3.81,3.81,0,0,0-.18-1.25,8.78,8.78,0,0,0,2.64,1.87c2.62,1.11,8.31,1.72,9.8,2.59S96.7,323.39,92.49,324.87Z"/><path class="cls-7" d="M386.84,240.35s5.38,16.45,1.7,28.7-17.78,15-17.78,15l2.26-2.84s13.89-2.34,14.67-21.39C388.38,242.91,386.84,240.35,386.84,240.35Z"/><path class="cls-10" d="M100,318.73a22.72,22.72,0,0,0,9.89,2.65c5.2,0-1.07,2.34-5,1.17S100,318.73,100,318.73Z"/><path class="cls-10" d="M116.38,328a19.56,19.56,0,0,0-7.65,2.44c-4.47,2.34-6.8,8.29-8,7.33S102.78,327.66,116.38,328Z"/><path class="cls-10" d="M85.58,330.66s9.77,7.9,10.94,8S92.49,331.08,85.58,330.66Z"/><path class="cls-14" d="M205.74,245.89s4.82-2.53,19.52-2.53,39.14,5.74,39.14,5.74S219.29,249.33,205.74,245.89Z"/><path class="cls-14" d="M294.52,294.49l1.17,5h0L274.86,306s10.6-25.6,10.4-45.2,6.19-44,6.19-44L300,241.15c-2.71,8.58-5.48,16.92-7.76,23.66A38,38,0,0,0,294.52,294.49Z"/><path class="cls-8" d="M402.12,355.32c-1.08-3.61-9.77-7.65-9.77-7.65,2.7.38,7.68-1.32,8.16-3.86s-2.79-7.86-4-10.6c-.76-1.75-1.94-3-2.85-2.77.71-.74.76-1.4-.58-1.41-2.77,0-13.09-2.1-18.5-2.12a24.4,24.4,0,0,0-5.11.46l-39.61-55.7c-2.19-13.62-5.22-48.07-8.79-63.34-4.67-20-15.09-25.53-15.09-25.53s-12.91,7.68-15.06,22.55,16.81,81.45,16.81,81.45c6.73,18.93,42.19,49.2,47.13,54.85h0a25.55,25.55,0,0,0,8.05,7.86c3.9,2.43,7.61,3.48,12.17,6.7s9.71,10,11.51,7.77-4.71-9.09-4.71-9.09,4.73,3.67,7.37,5.68,5.42,4.69,5.84,1.11-7.85-10.44-7.85-10.44,8.89,4.33,10.21,5.34S403.2,358.92,402.12,355.32Zm-16.82-15c-3.86-2.24-7.09-6.51-5.46-7.09s7.33-.12,10.1-.73a8.3,8.3,0,0,0,2.94-1.34,4.22,4.22,0,0,0-.4,1.19c-.62,3.29,3.2,8.43,2.45,9S389.16,342.53,385.3,340.28Z"/><path class="cls-10" d="M378.58,333.73a22.59,22.59,0,0,1-9.88,2.66c-5.21,0,1.06,2.33,4.94,1.16S378.58,333.73,378.58,333.73Z"/><path class="cls-10" d="M358.8,340.72a19.71,19.71,0,0,1,7.65,2.45c4.46,2.33,6.8,8.28,8,7.33S372.4,340.4,358.8,340.72Z"/><path class="cls-10" d="M388.4,346.13s-9.77,7.9-10.94,8S381.49,346.55,388.4,346.13Z"/><path class="cls-14" d="M236.16,175.33s-4.64,8.84,2.73,11.25,20-6,26.43-12.17c0,0-8.5,13.66-22.27,15.84S232.47,178.34,236.16,175.33Z"/></g></svg>