<svg xmlns="http://www.w3.org/2000/svg" xmlns:xlink="http://www.w3.org/1999/xlink" viewBox="0 0 500 500"><defs><style>.cls-1,.cls-9{fill:#1d3542;}.cls-11,.cls-2{fill:#d25a5c;}.cls-3{fill:#f4a082;}.cls-4{fill:#ffd2b9;}.cls-5{isolation:isolate;}.cls-27,.cls-6{fill:#a7d3df;}.cls-7{fill:#e9fbff;}.cls-8{clip-path:url(#clip-path);}.cls-11,.cls-13,.cls-15,.cls-19,.cls-23,.cls-27,.cls-9{mix-blend-mode:multiply;}.cls-9{opacity:0.22;}.cls-10{clip-path:url(#clip-path-2);}.cls-11{opacity:0.23;}.cls-12{fill:#aa353b;}.cls-13{opacity:0.49;}.cls-14{clip-path:url(#clip-path-3);}.cls-15,.cls-19{fill:#d18161;}.cls-15{opacity:0.21;}.cls-16{clip-path:url(#clip-path-4);}.cls-17{clip-path:url(#clip-path-5);}.cls-18{clip-path:url(#clip-path-6);}.cls-19{opacity:0.34;}.cls-20{clip-path:url(#clip-path-7);}.cls-21{fill:#fcebe6;}.cls-22{clip-path:url(#clip-path-8);}.cls-23{fill:#a05940;opacity:0.18;}.cls-24{clip-path:url(#clip-path-9);}.cls-25{fill:#2e2430;}.cls-26{fill:#a34f31;}.cls-27{opacity:0.56;}</style><clipPath id="clip-path"><path class="cls-1" d="M258.63,194.65s27.49-11.85,32.71-35.09-14.7-48.83-14.7-48.83-82.49,70.64-64.48,85.34c9.3,7.58,46.47,4.27,46.47,4.27"/></clipPath><clipPath id="clip-path-2"><path class="cls-2" d="M226.86,308.91s-18,27.5-19,31.77c0,0-61.16,3.32-75.38,9.48s-19.44,24.65-7.11,34.13S219.75,397.1,242.51,389c0,0,117.58,15.64,137.49-7.12s-36-45-83.45-42.67c0,0-16.59-32.71-25.6-37S226.86,308.91,226.86,308.91Z"/></clipPath><clipPath id="clip-path-3"><path class="cls-3" d="M206.32,216.09c0,.95-2,7.69-4,25.34S190,283.3,190.14,286.14s-6.39,5.52-11.52,17.63S162.5,324.46,159.77,327a34,34,0,0,0-11.91-.87c-6.13.76-11.9-.87-12.94-2.72,0,0-2.73,2.5-.25,4.76s8.07.1,9.63,2.87-2,7.22-5.42,5.95a8,8,0,0,1-5-5c-.54-1.39,1.56-7.19-2.77-8.41,0,0-1.29,7.89-.73,9.76,0,0-6-6.36-9.17-3.36,0,0,5.92,4.94,6.46,6.34,0,0-4.84-2.15-6.13.76,0,0,4.39,2.64,6.31,3s3.36.79,4.37,2.17c0,0-5.25-.71-5.59,2.16,0,0,5.21-.25,7.62.59s11.46,1.36,14.68-.69,47.65-26.43,57.5-49.2c0,0,11.88-40.43,11.91-49.92"/></clipPath><clipPath id="clip-path-4"><path class="cls-3" d="M300.82,217.88c-.05,1,1.17,3.75,3.06,21.42s12,41.95,11.82,44.79,6.35,5.57,11.39,17.71,16,20.81,18.68,23.33a33.88,33.88,0,0,1,11.91-.78c6.13.81,11.91-.78,13-2.62,0,0,2.71,2.52.22,4.76s-8.07,0-9.65,2.8,2,7.23,5.38,6a8,8,0,0,0,5-4.95c.55-1.4-1.51-7.21,2.83-8.4,0,0,1.23,7.9.66,9.77,0,0,6-6.32,9.2-3.3,0,0-6,4.9-6.52,6.3,0,0,4.87-2.11,6.13.8,0,0-4.41,2.61-6.33,3s-3.37.77-4.39,2.14c0,0,5.26-.67,5.58,2.2,0,0-5.21-.28-7.63.54s-11.46,1.28-14.67-.8S309,315.78,299.32,292.94c0,0-11.58-40.51-11.54-50"/></clipPath><clipPath id="clip-path-5"><path class="cls-3" d="M225.91,310.81l-9-64.48-11.28-26.6s-2.2-6.74,23.14-18.92c25.61-12.31,70.64,2.37,72.29,18.59,1.82,17.87-11.13,23.61-11.13,23.61l-10,67.8S256.73,322.66,225.91,310.81Z"/></clipPath><clipPath id="clip-path-6"><path class="cls-3" d="M231.45,200.74c-.78,2.37,13.36-14.66,12-39.28h16s0,30.65,16.21,40.22C275.69,201.68,250.2,225.33,231.45,200.74Z"/></clipPath><clipPath id="clip-path-7"><path class="cls-4" d="M208.29,214.14c.57,0,79.36,29,94.24,14,0,0,3,24.07,6.35,33.34,3.79,10.43,7.59,22.28,7.59,22.76,0,0-5.22-.95-21.34,15.17-21.79,21.79-69,2-97.8-36.22C197.33,263.21,200.62,213.73,208.29,214.14Z"/></clipPath><clipPath id="clip-path-8"><path class="cls-3" d="M282.68,151.09c0,19.61-21.93,35.5-31.17,35.5s-31.16-15.89-31.16-35.5,13.37-44.15,30.59-44.15S282.68,131.49,282.68,151.09Z"/></clipPath><clipPath id="clip-path-9"><path class="cls-1" d="M251,118.32s-16.12,10.43-23.71,34.13c0,0-4.26,10.43-1.42,16.12s13.75,13.28,11.38,20.39a27.13,27.13,0,0,1-10.43,20.86s10.43-4.27,19.44,12.33c0,0,19-10,32.71,7.58,0,0,10-11.38,19.92,3.32,0,0,9-6.16,13.74,5.69,0,0,7.12-5.69,4.75,10,0,0,8.06,6.64-1.9,12.8,0,0,1.42,3.32-4.27,6.64l-2.84-8.06s1.42-1.43,4.74-1.43c0,0-2.85-6.63,1.9-9.95,0,0-7.59-1.9-7.59-10,0,0-8.53,5.69-14.22-4.27,0,0-13.75,11.38-24.66-3.79,0,0-21.81,14.7-31.76-4.74,0,0-27,12.33-28.45-11.85,0,0-14.22-19.44,3.79-30.82,0,0-16.54-21.88-6.64-41.25,10.43-20.39,20.39-50.73,43.15-37.93,0,0,39.82-17.54,34.14,47.89C282.81,152,262.89,136.81,251,118.32Z"/></clipPath></defs><g class="cls-5"><g id="BACKGROUND"><rect class="cls-6" width="500" height="500"/></g><g id="OBJECTS"><path class="cls-7" d="M250.53,121.52c-13.32-1.39-26.4,2.31-38.32,8.06a144,144,0,0,0-30.13,19.74c-17.22,14.55-31.65,33.42-38.29,55.17s-3.95,44.83,6.64,64.94c11.11,21.09,29.25,37.95,49.63,50a165,165,0,0,0,73.62,22.52c23.69,1.43,49-2.36,68.89-16.11,18.13-12.54,28.77-32.63,31.61-54.25,2.94-22.34-2.25-44.79-13.35-64.26-11.79-20.67-29.3-37.58-48.61-51.23-21-14.87-45.46-27.94-71.59-29.83a80.69,80.69,0,0,0-18.82.84c-1,.16-.55,1.63.41,1.47,26.58-4.31,52.84,6.13,75.22,19.66,19.8,12,38.32,26.86,52.42,45.33,13.66,17.89,22.72,39.1,23.55,61.76.78,21.15-5.31,43.06-19.79,58.91-16.06,17.57-40.11,25-63.3,26.28a160.09,160.09,0,0,1-73.11-13.95C176.34,308.3,137,269.08,142,220.84c2.32-22.3,13.89-42.71,29-58.88a144.57,144.57,0,0,1,25.7-21.71c10.59-7,22.2-13.13,34.67-16A58.58,58.58,0,0,1,250.53,123c1,.1,1-1.42,0-1.52Z"/><path class="cls-7" d="M260.62,347.06c-13.61,4.72-28.4,2.61-42.29.36a215.28,215.28,0,0,1-39.13-9.87c-23.93-8.7-46.09-23.3-60.47-44.68a82.75,82.75,0,0,1-12-66.84c5.65-22.51,19.59-42.65,37.47-57.24,41.1-33.56,99.76-35.86,150.09-29.54A287.62,287.62,0,0,1,337.79,148c11.92,3.43,24.3,7.51,34.08,15.42,10.32,8.35,15.37,20.54,14.95,33.72-.42,13.71-6.41,26.36-14.07,37.48-14.32,20.77-33.16,39.06-53,54.53a283.88,283.88,0,0,1-65.4,38.22q-8.43,3.51-17.08,6.46c-.92.32-.52,1.79.41,1.47A285.78,285.78,0,0,0,364.8,247.54c15.89-19.25,31.52-46,19.43-71.2-5.21-10.85-15.38-18-26.1-22.8-12.87-5.74-26.89-9.23-40.66-12-28-5.7-57.26-7.95-85.79-5.63-26.24,2.13-52.48,8.68-75.17,22.39-39.85,24.1-66.77,75-47.27,120.41,9.85,22.95,29.07,40.83,51,52.22A172.12,172.12,0,0,0,199,345.08c13.67,3.33,28.1,6.08,42.21,6.31A57.27,57.27,0,0,0,261,348.52c.92-.31.53-1.79-.4-1.46Z"/><circle class="cls-7" cx="143.39" cy="204.1" r="7.61" transform="translate(-102.32 161.17) rotate(-45)"/><path class="cls-7" d="M160.14,121.35a4.57,4.57,0,1,1-4.57-4.57A4.57,4.57,0,0,1,160.14,121.35Z"/><path class="cls-7" d="M135.78,274.15a4.57,4.57,0,1,1-4.57-4.56A4.57,4.57,0,0,1,135.78,274.15Z"/><path class="cls-7" d="M328.18,200.29a3.81,3.81,0,1,1-3.81-3.81A3.81,3.81,0,0,1,328.18,200.29Z"/><path class="cls-7" d="M196.7,198.26a1.78,1.78,0,1,1-1.78-1.78A1.78,1.78,0,0,1,196.7,198.26Z"/><path class="cls-7" d="M311.93,98.25a2.79,2.79,0,1,1-2.79-2.79A2.79,2.79,0,0,1,311.93,98.25Z"/><path class="cls-7" d="M311.93,324.67a2.79,2.79,0,1,1-2.79-2.8A2.79,2.79,0,0,1,311.93,324.67Z"/><path class="cls-7" d="M420.07,263a6.6,6.6,0,1,1-6.6-6.6A6.61,6.61,0,0,1,420.07,263Z"/><circle class="cls-7" cx="92.12" cy="315.78" r="7.11"/><path class="cls-7" d="M85.52,158.66a2.8,2.8,0,1,1-2.8-2.79A2.79,2.79,0,0,1,85.52,158.66Z"/><circle class="cls-7" cx="255.58" cy="67.03" r="8.12"/><circle class="cls-7" cx="298.23" cy="409.7" r="5.58"/><circle class="cls-7" cx="374.89" cy="175.16" r="6.6"/><path class="cls-1" d="M188,296.58l5.22-4.26c-2.33-5.32-7.91-6.21-11-6.27l-5.34,2.78C178.36,296.58,188,296.58,188,296.58Z"/><path class="cls-1" d="M231.36,291.13s-8.53-5.21-14.22,1.42c0,0-5.22-4.26-14.22,2.37l-3.32,1.43s9,7.11,19,1.89c0,0,15.65,2.37,16.12-1.89A4.63,4.63,0,0,0,231.36,291.13Z"/><path class="cls-1" d="M258.63,194.65s27.49-11.85,32.71-35.09-14.7-48.83-14.7-48.83-82.49,70.64-64.48,85.34c9.3,7.58,46.47,4.27,46.47,4.27"/><g class="cls-8"><path class="cls-9" d="M225.91,168.57s9,22.76,25.6,21.81,28.28-22.12,29.31-32.87-56.81-.79-54.91,11.06"/></g><path class="cls-2" d="M226.86,308.91s-18,27.5-19,31.77c0,0-61.16,3.32-75.38,9.48s-19.44,24.65-7.11,34.13S219.75,397.1,242.51,389c0,0,117.58,15.64,137.49-7.12s-36-45-83.45-42.67c0,0-16.59-32.71-25.6-37S226.86,308.91,226.86,308.91Z"/><g class="cls-10"><path class="cls-11" d="M250.37,390a99.86,99.86,0,0,1-44.85-17.06S218.8,391.41,234,394.25,250.37,390,250.37,390Z"/><path class="cls-11" d="M161,351.58c-.9,1-5.69,3.32-1,5.22s30.82,16.12,37.45,14.22S165.7,346.37,161,351.58Z"/><path class="cls-11" d="M301.23,368.58c1,.07,21.4-5.15,30.41-8.94s10.9-6.64,13.27-6.64,1.9-4.74-4.74-4.26S306,361.06,306,361.06l-4.81,8.21"/><path class="cls-11" d="M294.66,356.8s-21.81,4.74-25.13,4.26,6.64-20.86,29.87-22.75c0,0-22.76-.48-37.93,16.59s-28-4.27-37.46-9c0,0,15.24,19.22,15.92,21.7,0,0,23.59-3,30.39-1.94,0,0,17.23.15,25.52-9.09Z"/><path class="cls-12" d="M213.5,366c8.73,3.67,17.95,2.85,27.15,1.87A274.25,274.25,0,0,1,273.81,366c8.2.12,16.38.51,24.31,2.72,5.56,1.55,11.18,3.17,16.59,5.22.43.16.62-.52.19-.69a114.32,114.32,0,0,0-37.16-7.86,242.35,242.35,0,0,0-32.44,1.25c-10.6,1.05-21.45,2.91-31.61-1.36-.42-.17-.61.52-.19.69Z"/><path class="cls-12" d="M206.84,375a133.29,133.29,0,0,0,40,15.22c.45.09.64-.59.19-.68a132.78,132.78,0,0,1-39.88-15.15.35.35,0,0,0-.36.61Z"/><path class="cls-12" d="M182.43,360.15c-7.43-1.83-14.82-3.32-22.29-.86-.43.15-.24.83.19.69,7.35-2.43,14.61-.94,21.91.86a.36.36,0,0,0,.19-.69Z"/><g class="cls-13"><path class="cls-2" d="M239.1,367.05q-4-5.73-7.93-11.47"/></g><path class="cls-12" d="M300.58,337.71a47.17,47.17,0,0,0-18.65,5.53c-.41.21-.05.83.36.62a46.37,46.37,0,0,1,18.29-5.44c.46,0,.46-.74,0-.71Z"/><path class="cls-12" d="M205.52,340.58a20,20,0,0,1,13.32,6,.36.36,0,0,0,.51-.5,20.83,20.83,0,0,0-13.83-6.19c-.45,0-.45.69,0,.71Z"/><path class="cls-12" d="M292.15,359.65c-6.11,3.1-12.14,5.37-19.06,5.56-.46,0-.46.73,0,.71,7-.19,13.23-2.51,19.42-5.65.41-.21.05-.82-.36-.62Z"/></g><path class="cls-3" d="M206.32,216.09c0,.95-2,7.69-4,25.34S190,283.3,190.14,286.14s-6.39,5.52-11.52,17.63S162.5,324.46,159.77,327a34,34,0,0,0-11.91-.87c-6.13.76-11.9-.87-12.94-2.72,0,0-2.73,2.5-.25,4.76s8.07.1,9.63,2.87-2,7.22-5.42,5.95a8,8,0,0,1-5-5c-.54-1.39,1.56-7.19-2.77-8.41,0,0-1.29,7.89-.73,9.76,0,0-6-6.36-9.17-3.36,0,0,5.92,4.94,6.46,6.34,0,0-4.84-2.15-6.13.76,0,0,4.39,2.64,6.31,3s3.36.79,4.37,2.17c0,0-5.25-.71-5.59,2.16,0,0,5.21-.25,7.62.59s11.46,1.36,14.68-.69,47.65-26.43,57.5-49.2c0,0,11.88-40.43,11.91-49.92"/><g class="cls-14"><path class="cls-15" d="M197.46,263.4s10,20.38,22.76,28.44-6.16-43.14-22.76-28.44"/></g><path class="cls-3" d="M300.82,217.88c-.05,1,1.17,3.75,3.06,21.42s12,41.95,11.82,44.79,6.35,5.57,11.39,17.71,16,20.81,18.68,23.33a33.88,33.88,0,0,1,11.91-.78c6.13.81,11.91-.78,13-2.62,0,0,2.71,2.52.22,4.76s-8.07,0-9.65,2.8,2,7.23,5.38,6a8,8,0,0,0,5-4.95c.55-1.4-1.51-7.21,2.83-8.4,0,0,1.23,7.9.66,9.77,0,0,6-6.32,9.2-3.3,0,0-6,4.9-6.52,6.3,0,0,4.87-2.11,6.13.8,0,0-4.41,2.61-6.33,3s-3.37.77-4.39,2.14c0,0,5.26-.67,5.58,2.2,0,0-5.21-.28-7.63.54s-11.46,1.28-14.67-.8S309,315.78,299.32,292.94c0,0-11.58-40.51-11.54-50"/><g class="cls-16"><path class="cls-15" d="M299.4,301.32s9-15.17,17.07-17.06S295.13,265.29,299.4,301.32Z"/></g><path class="cls-3" d="M225.91,310.81l-9-64.48-11.28-26.6s-2.2-6.74,23.14-18.92c25.61-12.31,70.64,2.37,72.29,18.59,1.82,17.87-11.13,23.61-11.13,23.61l-10,67.8S256.73,322.66,225.91,310.81Z"/><g class="cls-17"><path class="cls-15" d="M220.22,291.84c-.13,1.05,43.71,30.32,64.77,14.21S224.49,257.71,220.22,291.84Z"/></g><path class="cls-3" d="M231.45,200.74c-.78,2.37,13.36-14.66,12-39.28h16s0,30.65,16.21,40.22C275.69,201.68,250.2,225.33,231.45,200.74Z"/><g class="cls-18"><ellipse class="cls-19" cx="251.28" cy="178.77" rx="14.46" ry="11.62"/></g><path class="cls-3" d="M212.64,365.8s-1.9-5.21-3.8-10.9-10-6.16-16.12-2.84-19-4.27-23.7-4.75-11.38,0-10,3.8c1.67,4.44,7.59.47,10,3.32s29.87,20.86,37.93,20.86C207,375.29,212.64,373.86,212.64,365.8Z"/><path class="cls-3" d="M292.92,358.93s2.39-5,4.83-10.49,10.5-5.18,16.31-1.28,19.29-2.42,24.06-2.44,11.32,1.1,9.54,4.74c-2.08,4.26-7.6-.26-10.23,2.34s-31.74,17.89-39.76,17.11C297.67,368.91,292.14,367,292.92,358.93Z"/><path class="cls-4" d="M208.29,214.14c.57,0,79.36,29,94.24,14,0,0,3,24.07,6.35,33.34,3.79,10.43,7.59,22.28,7.59,22.76,0,0-5.22-.95-21.34,15.17-21.79,21.79-69,2-97.8-36.22C197.33,263.21,200.62,213.73,208.29,214.14Z"/><g class="cls-20"><path class="cls-21" d="M193.26,237.13c9.11-4.43,21.13,2.52,30.31-1.78a13.73,13.73,0,0,1,3.12-1.3,9.32,9.32,0,0,1,3.07.09l29.64,4.28a57.93,57.93,0,0,0,8,.77c3.51,0,7.13-.6,10.49.37,1.59.47,3,1.27,4.6,1.8,4.1,1.41,8.65.88,13,.33l17.71-2.23c1.68-.21,4,0,4.17,1.6s-2.42,2.13-4.25,2.12c-5.45,0-10.75,1.52-16.17,2.06a86.91,86.91,0,0,1-11.75.13q-28.25-1-56.46-2.64a106.19,106.19,0,0,1-10.85-1,10.37,10.37,0,0,0-3.84-.17c-1,.24-2,.83-3,1.13-4,1.17-8-2.18-12.11-1.93-1.83.11-3.59.92-5.42.77s-3.63-2.1-2.5-3.44"/><path class="cls-21" d="M189.81,252.09c.41-2,3.34-2.74,5.48-2.12s3.88,2.08,6,2.85c6.4,2.35,13.37-2.33,20.25-2,4.66.21,9.08,2.72,13.71,2.19,1.37-.15,2.69-.57,4.05-.73,2.88-.35,5.76.45,8.59,1.07,9.32,2,19,2.2,28.58,2.36L294,256c5.29.08,10.66.16,15.76-1.15a25.56,25.56,0,0,1,6-1.23c2,0,4.28.85,5,2.61l-17.69,2.32a86,86,0,0,1-8.63.84c-4.42.14-8.82-.39-13.23-.57-13.69-.58-27.5,2.14-41,.17-3.55-.52-7.11-1.36-10.71-1.14-3.09.2-6.11,1.19-9.21,1.09a32.82,32.82,0,0,1-6.79-1.29,70.77,70.77,0,0,0-24.1-1.73l-2.94-4.3,3.57-.15"/><path class="cls-21" d="M189.86,267.46c4.17-2.51,9.69-1.9,14.45-.55s9.43,3.38,14.42,3.41c4.67,0,9.16-1.71,13.82-1.93,7.42-.35,14.7,3.14,22,2.15,3.1-.41,6-1.61,9.17-1.83a29.24,29.24,0,0,1,6.91.61l13.73,2.31a18.61,18.61,0,0,0,4.27.39,20.69,20.69,0,0,0,5.36-1.36,98.51,98.51,0,0,1,13.49-3.59c2.47-.47,5.18-.82,7.42.25a15.25,15.25,0,0,0,2.56,1.27c1.81.5,3.68-.46,5.53-.86s4.42.36,4.33,2.1c-5.23,1.72-11,.85-16.52,1.1-5.89.26-11.61,1.79-17.42,2.7a84,84,0,0,1-27.45-.24,68.63,68.63,0,0,0-9.33-1.39c-3.74-.13-7.44.58-11.15,1-9.25,1.1-18.63.47-27.94-.17l-15.3-1a76,76,0,0,1-11.77-1.42,3.41,3.41,0,0,1-2.16-1.11c-.45-.65-.07-1.78.78-1.77"/><path class="cls-21" d="M207.06,284.35c3.56-1.5,7.74-1,11.48.1s7.36,2.59,11.24,3c11.05,1.27,22.53-6.39,32.79-2.44,1.8.69,3.55,1.74,5.5,1.66a19,19,0,0,0,4.2-1.14c4-1.09,8.27.39,12.14,1.84a7.4,7.4,0,0,0,4.5.67,26.89,26.89,0,0,0,3-1.57c2.36-1,5.08,0,7.65.35,3.81.52,7.65-.42,11.46-.95s8-.54,11.13,1.54c-2.31,1.63-5.36,2.06-8.27,2.25-9.7.61-19.64-.87-29,1.42a16.82,16.82,0,0,1-4.54.78,17.57,17.57,0,0,1-4.88-1.22c-6.06-2-12.62-2-19-2.05a77.81,77.81,0,0,0-7.94.24c-6.11.61-12.06,2.67-18.19,2.46-7.42-.26-14.36-3.84-21.78-3.91a8.87,8.87,0,0,1-3.18-.35c-1-.39-1.78-1.42-1.42-2.35s2.16-1.07,2.39-.1"/><path class="cls-21" d="M192.79,226c1.92-3.28,6.49-4.5,10.52-4.17s7.82,1.86,11.76,2.7a35.61,35.61,0,0,0,12.48.43c2.21-.32,4.44-.85,6.65-.54s4,1.32,6.09,1.87c7.29,2,14.7-2.28,22.23-3.24,5.05-.64,10.16.22,15.16,1.11,12.22,2.18,24.71,4.54,37,2.88-.07,2.78-4,3.73-7,3.82A281,281,0,0,1,272,229.71c-5.93-.58-11.89-1.34-17.85-1-4.17.22-8.33,1-12.51.83-7-.25-13.76-3.08-20.81-3.18-3.62-.06-7.21.61-10.81,1a64,64,0,0,1-14.77-.27,4.42,4.42,0,0,1-2.75-1.07c-.65-.73-.4-2.12.61-2.26"/><path class="cls-21" d="M232.6,299.05c11.13.27,22.32.53,33.36-.85a52.71,52.71,0,0,1,7.41-.66,46.1,46.1,0,0,1,6.51.79q12,2,24.08,3.05c-7,3.09-15.11,2.75-22.76,1.76s-15.37-2.55-23-1.69c-4.42.5-8.77,1.81-13.23,1.66a20.05,20.05,0,0,1-9.63-2.84"/></g><path class="cls-3" d="M282.68,151.09c0,19.61-21.93,35.5-31.17,35.5s-31.16-15.89-31.16-35.5,13.37-44.15,30.59-44.15S282.68,131.49,282.68,151.09Z"/><g class="cls-22"><path class="cls-23" d="M250.72,117.41s11.2,23.64,29.17,32.23h0l-22.31-32.86-13.34-2.86s-19.77,29.6-16.91,38.53h0s16.39-31.73,26.87-34.89-5.67-4.67-5.67-4.67"/></g><path class="cls-1" d="M251,118.32s-16.12,10.43-23.71,34.13c0,0-4.26,10.43-1.42,16.12s13.75,13.28,11.38,20.39a27.13,27.13,0,0,1-10.43,20.86s10.43-4.27,19.44,12.33c0,0,19-10,32.71,7.58,0,0,10-11.38,19.92,3.32,0,0,9-6.16,13.74,5.69,0,0,7.12-5.69,4.75,10,0,0,8.06,6.64-1.9,12.8,0,0,1.42,3.32-4.27,6.64l-2.84-8.06s1.42-1.43,4.74-1.43c0,0-2.85-6.63,1.9-9.95,0,0-7.59-1.9-7.59-10,0,0-8.53,5.69-14.22-4.27,0,0-13.75,11.38-24.66-3.79,0,0-21.81,14.7-31.76-4.74,0,0-27,12.33-28.45-11.85,0,0-14.22-19.44,3.79-30.82,0,0-16.54-21.88-6.64-41.25,10.43-20.39,20.39-50.73,43.15-37.93,0,0,39.82-17.54,34.14,47.89C282.81,152,262.89,136.81,251,118.32Z"/><g class="cls-24"><path class="cls-9" d="M225.91,168.57s9,22.76,25.6,21.81,28.28-22.12,29.31-32.87-56.81-.79-54.91,11.06"/></g><path class="cls-3" d="M227.72,154c.9,3.69-.35,7.16-2.8,7.76s-5.16-1.9-6.06-5.58.34-7.16,2.79-7.76S226.81,150.29,227.72,154Z"/><path class="cls-3" d="M279.58,150.66c-.91,3.68.34,7.15,2.79,7.75s5.16-1.9,6.07-5.58-.35-7.16-2.8-7.76S280.48,147,279.58,150.66Z"/><path class="cls-1" d="M199.84,259.6c-10-3.32-14.23,8.54-14.23,8.54-7.11-2.85-9,6.16-9,6.16-6.16,5.22,0,12.33,0,12.33a10.79,10.79,0,0,0,.22,2.2l5.34-2.78a16.83,16.83,0,0,0-2.24.1c2.37-4.74-1.42-9.95-1.42-9.95a9.47,9.47,0,0,0,9.48-5.69c25.6,9.48,32.24-19.92,32.24-19.92S209.79,262.92,199.84,259.6Z"/><path class="cls-25" d="M233.16,153.15a19.89,19.89,0,0,0,6.15.58,20.22,20.22,0,0,0,6-1.42,10.54,10.54,0,0,1-12.17.84Z"/><path class="cls-26" d="M247.25,174.92a9.9,9.9,0,0,0,8.74-.62.41.41,0,0,0-.42-.71,9.1,9.1,0,0,1-8.1.54c-.49-.2-.7.59-.22.79Z"/><path class="cls-26" d="M247.36,166.94c.79,0,1.49.06,2.19.07s1.37,0,2-.06,1.35-.12,2-.22,1.38-.25,2.16-.37a4.8,4.8,0,0,1-1.82,1.43,6.52,6.52,0,0,1-4.6.32A4.88,4.88,0,0,1,247.36,166.94Z"/><path class="cls-25" d="M258.78,153.23a20,20,0,0,0,6.16.58,20.16,20.16,0,0,0,6-1.42,10.54,10.54,0,0,1-12.17.84Z"/><path class="cls-1" d="M233,148.5a11.55,11.55,0,0,1,11.08-3.85c.72.14,1-1,.31-1.11a12.75,12.75,0,0,0-12.2,4.15c-.48.56.33,1.37.81.81Z"/><path class="cls-1" d="M271.3,147.21a12.72,12.72,0,0,0-12.19-4.15c-.73.14-.42,1.24.3,1.1A11.53,11.53,0,0,1,270.49,148c.49.55,1.29-.26.81-.81Z"/><path class="cls-1" d="M252,116.71a35.69,35.69,0,0,0,3.25,8.78,42.11,42.11,0,0,0,12.23,14.44,43.41,43.41,0,0,0,4,2.68c1.36.84,2.83,1.5,4.25,2.26-1.45-.69-3-1.28-4.37-2.06a39.57,39.57,0,0,1-4.14-2.5,41.43,41.43,0,0,1-7.39-6.29,41.92,41.92,0,0,1-5.82-7.85,36.91,36.91,0,0,1-3.86-9.09Z"/><path class="cls-1" d="M252.63,114.65a22.69,22.69,0,0,0-1.72,10.19A17.33,17.33,0,0,0,252,130a18.31,18.31,0,0,0,2.58,4.68,18.72,18.72,0,0,1-3-4.49A18,18,0,0,1,250,125a23.24,23.24,0,0,1-.2-5.53,24,24,0,0,1,1.11-5.5Z"/><path class="cls-1" d="M254.2,116.48a18.56,18.56,0,0,0-2.45,1.92,22.88,22.88,0,0,0-2.22,2.29,20.42,20.42,0,0,0-1.92,2.59,22.47,22.47,0,0,0-1.55,2.86,23.16,23.16,0,0,1,2.7-6,26,26,0,0,1,2-2.72,21.93,21.93,0,0,1,2.37-2.47Z"/><path class="cls-27" d="M406.87,432c0,2.52-66.14,4.57-147.73,4.57S111.41,434.56,111.41,432s66.14-4.57,147.73-4.57S406.87,429.51,406.87,432Z"/></g></g></svg>