<svg width="296" height="183" viewBox="0 0 296 183" fill="none" xmlns="http://www.w3.org/2000/svg">
<path d="M91.5289 35.9479C62.3118 40.0297 43.7289 75.9602 38.0896 93.4153C35.1357 101.295 18.2177 107.648 3.98512 118.926C-10.2475 130.205 18.2177 152.762 18.2177 162.698C18.2177 172.634 43.9975 185.524 71.657 182.57C99.3165 179.616 133.248 149.666 150.65 146.049C180.19 139.909 215.326 156.791 245.133 146.049C274.941 135.307 282.729 112.213 292.665 93.4153C302.601 74.6175 282.729 76.4973 271.987 70.5894C261.246 64.6816 251.041 42.9299 245.133 14.1962C240.407 -8.79077 187.666 1.21679 161.886 9.09394C150.608 16.3445 120.746 31.8661 91.5289 35.9479Z" fill="#476367"/>
</svg>
