<svg width="341" height="290" viewBox="0 0 341 290" fill="none" xmlns="http://www.w3.org/2000/svg">
<path d="M304.152 199.489C296.174 195.885 294.958 187.22 291.664 182.71C288.371 178.2 280.393 175.42 280.393 175.42C280.393 175.42 288.023 169.528 300.163 170.888C305.874 171.537 310.158 174.106 313.663 176.893C311.857 171.673 313.663 168.659 310.573 163.696C306.924 157.887 299.816 154.759 295.827 145.12C293.476 139.25 293.476 132.7 295.827 126.83C295.827 126.83 297.043 130.305 301.87 133.773C306.207 136.87 318.445 137.346 325.697 146.698C321.92 93.9156 285.251 65.0652 259.86 50.0017C238.051 37.076 223.962 10.1067 165.037 14.0048C106.112 17.9029 92.9903 55.7204 78.3876 84.3366C70.3044 100.201 52.0302 103.683 36.6192 114.554C48.0264 111.57 55.2635 117.077 63.8604 118.807C74.1571 120.892 75.7738 113.633 85.0128 113.678C94.2519 113.723 97.7345 117.04 97.7345 117.04C97.7345 117.04 88.4879 115.65 85.4812 123.514C82.4745 131.378 78.7729 134.324 69.5263 133.078C60.2796 131.831 57.5978 132.511 52.695 136.915C47.7922 141.32 36.4605 138.079 29.9788 139.703C26.1487 140.662 20.9135 147.469 17.3176 152.855C21.0796 149.868 25.2169 147.387 29.6238 145.475C44.6495 138.766 63.8529 151.035 63.8529 151.035C63.8529 151.035 48.744 154.502 39.928 160.515C31.112 166.529 24.8947 160.75 18.8814 162.827C16.4697 163.662 14.1043 164.626 11.7953 165.713C11.7953 165.713 11.7953 165.758 11.7953 165.781C10.5866 184.478 17.6575 201.083 29.6615 215.308C59.0483 250.141 118.048 270.78 157.732 273.25C199.281 275.819 272.144 260.408 306.751 214.424C309.829 210.337 312.582 206.015 314.985 201.498C311.487 201.476 307.506 201.022 304.152 199.489Z" fill="#CAE8ED"/>
<path d="M140.774 111.054C151.866 106.368 157.06 93.5781 152.374 82.4861C147.689 71.3942 134.899 66.2007 123.807 70.8861C112.715 75.5715 107.521 88.3616 112.207 99.4536C116.892 110.546 129.682 115.739 140.774 111.054Z" fill="#476367"/>
<path d="M282.531 77.0768C286.903 77.0768 290.448 73.5322 290.448 69.1598C290.448 64.7873 286.903 61.2427 282.531 61.2427C278.158 61.2427 274.614 64.7873 274.614 69.1598C274.614 73.5322 278.158 77.0768 282.531 77.0768Z" fill="#476367"/>
<path d="M306.713 214.424C272.106 260.393 199.221 275.819 157.694 273.25C117.988 270.78 59.0104 250.141 29.6237 215.308C40.8118 202.903 69.428 177.77 122.241 170.737C193.253 161.233 242.719 217.574 296.371 214.628C299.982 214.394 303.396 214.348 306.713 214.424Z" fill="#B1CBD0"/>
<path d="M76.5745 67.9359C83.1695 48.166 67.562 57.2993 61.662 69.9001C55.762 82.5009 44.6646 83.8909 44.6646 90.9996C44.6646 98.1083 69.9643 87.6681 76.5745 67.9359Z" stroke="#476367" stroke-miterlimit="10"/>
<path d="M257.314 43.0894C257.314 43.0894 238.927 27.4895 231.471 22.4582C224.014 17.427 227.308 10.6657 244.389 18.4695C261.469 26.2732 268.737 41.3443 266.478 44.5172C264.219 47.69 257.314 43.0894 257.314 43.0894Z" stroke="#476367" stroke-miterlimit="10"/>
<path d="M86.6901 89.7758C86.6916 90.011 86.6231 90.2414 86.4933 90.4376C86.3636 90.6338 86.1784 90.7869 85.9614 90.8776C85.7444 90.9684 85.5053 90.9925 85.2745 90.947C85.0437 90.9014 84.8317 90.7883 84.6654 90.622C84.4991 90.4557 84.3859 90.2436 84.3404 90.0129C84.2949 89.7821 84.319 89.543 84.4097 89.326C84.5004 89.109 84.6536 88.9238 84.8498 88.794C85.046 88.6643 85.2764 88.5958 85.5116 88.5973C85.8241 88.5973 86.1239 88.7215 86.3449 88.9425C86.5659 89.1635 86.6901 89.4632 86.6901 89.7758Z" fill="#476367"/>
<path d="M96.6391 92.0195C96.6391 92.2541 96.5695 92.4834 96.4392 92.6784C96.3089 92.8735 96.1236 93.0255 95.9069 93.1152C95.6902 93.205 95.4517 93.2285 95.2216 93.1827C94.9916 93.137 94.7802 93.024 94.6144 92.8581C94.4485 92.6923 94.3355 92.4809 94.2898 92.2509C94.244 92.0208 94.2675 91.7823 94.3572 91.5656C94.447 91.3489 94.599 91.1637 94.7941 91.0333C94.9891 90.903 95.2184 90.8334 95.453 90.8334C95.767 90.8354 96.0675 90.961 96.2895 91.183C96.5115 91.405 96.6371 91.7055 96.6391 92.0195Z" fill="#476367"/>
<path d="M129.863 56.6043C129.863 56.8392 129.794 57.0688 129.663 57.264C129.532 57.4592 129.347 57.6112 129.129 57.7008C128.912 57.7903 128.673 57.8133 128.443 57.767C128.213 57.7206 128.002 57.6069 127.836 57.4402C127.67 57.2736 127.558 57.0616 127.513 56.831C127.468 56.6004 127.493 56.3617 127.584 56.1452C127.675 55.9286 127.828 55.7439 128.024 55.6144C128.22 55.485 128.45 55.4167 128.685 55.4182C128.84 55.4182 128.994 55.449 129.138 55.5087C129.281 55.5684 129.411 55.6558 129.521 55.7661C129.63 55.8763 129.717 56.0071 129.776 56.151C129.835 56.2948 129.864 56.4489 129.863 56.6043Z" fill="#476367"/>
<path d="M284.903 161.664C284.903 161.9 284.832 162.131 284.7 162.326C284.568 162.522 284.381 162.674 284.162 162.763C283.943 162.851 283.703 162.872 283.472 162.823C283.24 162.775 283.029 162.658 282.865 162.488C282.701 162.318 282.591 162.104 282.55 161.871C282.508 161.639 282.537 161.399 282.633 161.183C282.728 160.967 282.886 160.785 283.086 160.659C283.286 160.533 283.519 160.47 283.755 160.478C284.063 160.488 284.355 160.617 284.569 160.838C284.784 161.06 284.903 161.356 284.903 161.664Z" fill="#476367"/>
<path d="M288.93 158.453C288.93 158.688 288.86 158.918 288.729 159.113C288.599 159.308 288.413 159.46 288.196 159.55C287.979 159.639 287.74 159.662 287.509 159.616C287.279 159.569 287.068 159.456 286.902 159.289C286.737 159.122 286.624 158.91 286.579 158.68C286.535 158.449 286.559 158.211 286.65 157.994C286.741 157.777 286.894 157.593 287.09 157.463C287.286 157.334 287.516 157.266 287.751 157.267C288.064 157.269 288.364 157.395 288.585 157.617C288.806 157.839 288.93 158.14 288.93 158.453Z" fill="#476367"/>
<path d="M92.3557 87.8494C93.4113 87.8494 94.267 86.9937 94.267 85.9382C94.267 84.8826 93.4113 84.0269 92.3557 84.0269C91.3002 84.0269 90.4445 84.8826 90.4445 85.9382C90.4445 86.9937 91.3002 87.8494 92.3557 87.8494Z" fill="#476367"/>
<path d="M293.591 100.775C294.646 100.775 295.502 99.9193 295.502 98.8638C295.502 97.8082 294.646 96.9525 293.591 96.9525C292.535 96.9525 291.679 97.8082 291.679 98.8638C291.679 99.9193 292.535 100.775 293.591 100.775Z" fill="#476367"/>
<path d="M90.4521 156.225C90.4521 156.713 90.3072 157.191 90.0358 157.597C89.7643 158.003 89.3785 158.32 88.9271 158.507C88.4757 158.694 87.979 158.743 87.4998 158.647C87.0206 158.552 86.5805 158.317 86.235 157.971C85.8895 157.626 85.6543 157.186 85.5589 156.707C85.4636 156.227 85.5125 155.731 85.6995 155.279C85.8865 154.828 86.2031 154.442 86.6093 154.171C87.0156 153.899 87.4932 153.754 87.9818 153.754C88.6369 153.754 89.2653 154.015 89.7285 154.478C90.1918 154.941 90.4521 155.569 90.4521 156.225V156.225Z" stroke="white" stroke-miterlimit="10"/>
<path d="M230.156 50.8176C230.156 51.3062 230.011 51.7838 229.74 52.19C229.468 52.5963 229.083 52.9129 228.631 53.0999C228.18 53.2868 227.683 53.3357 227.204 53.2404C226.725 53.1451 226.285 52.9098 225.939 52.5644C225.594 52.2189 225.358 51.7787 225.263 51.2995C225.168 50.8203 225.217 50.3236 225.404 49.8723C225.591 49.4209 225.907 49.0351 226.313 48.7636C226.72 48.4922 227.197 48.3473 227.686 48.3473C228.011 48.3463 228.332 48.4095 228.632 48.5333C228.933 48.6571 229.205 48.839 229.435 49.0686C229.664 49.2982 229.846 49.5709 229.97 49.8711C230.094 50.1712 230.157 50.4929 230.156 50.8176V50.8176Z" stroke="white" stroke-miterlimit="10"/>
<path d="M109.302 50.2407C113.351 48.6451 115.339 44.0697 113.744 40.0211C112.148 35.9726 107.573 33.9841 103.524 35.5797C99.4758 37.1752 97.4873 41.7507 99.0829 45.7992C100.678 49.8477 105.254 51.8363 109.302 50.2407Z" stroke="white" stroke-miterlimit="10"/>
<path d="M326.045 125.816C334.304 122.447 338.269 113.02 334.9 104.761C331.531 96.5011 322.104 92.5365 313.845 95.9055C305.585 99.2744 301.621 108.701 304.99 116.961C308.359 125.22 317.785 129.185 326.045 125.816Z" stroke="white" stroke-miterlimit="10"/>
<path d="M17.1514 205.563C26.0715 205.563 33.3027 198.331 33.3027 189.411C33.3027 180.491 26.0715 173.26 17.1514 173.26C8.23122 173.26 1 180.491 1 189.411C1 198.331 8.23122 205.563 17.1514 205.563Z" stroke="white" stroke-miterlimit="10"/>
<path d="M139.579 25.0797C139.579 25.0797 136.171 26.8474 136.013 34.2961C135.854 41.7447 142.993 45.1971 147.488 45.1216L147.095 43.9582C147.095 43.9582 139.427 43.1121 137.441 36.6077C136.862 34.7395 136.775 32.7539 137.186 30.8421C137.598 28.9302 138.494 27.1564 139.79 25.6916L139.579 25.0797Z" fill="#3D2624"/>
<path d="M263.494 155.076C263.494 155.076 261.938 166.854 241.284 171.349C220.63 175.843 199.327 164.066 199.327 164.066L202.802 163.726C202.802 163.726 214.889 170.706 229.303 169.845C243.716 168.984 251.966 160.213 251.966 160.213L263.494 155.076Z" fill="#3D2624"/>
<path d="M268.586 98.1536C269.87 83.5962 249.745 68.6083 225.767 64.7479C201.789 60.8876 203.519 35.3234 203.519 35.3234L155.617 62.882C155.617 62.882 153.411 85.7342 137.441 98.5842C121.471 111.434 118.728 141.826 126.222 153.815C133.716 165.804 146.982 166.657 167.643 165.373C188.305 164.089 197.861 165.161 220.842 167.088C243.822 169.014 260.185 174.234 274.131 148.783C288.076 123.333 268.586 98.1536 268.586 98.1536ZM266.659 96.9752C266.659 96.9752 264.197 89.806 254.776 82.4178C249.437 78.1747 243.782 74.3436 237.862 70.9577C267.196 80.1665 267.513 96.9676 267.513 96.9676L266.659 96.9752Z" fill="#3D2624"/>
<path d="M139.11 85.16C139.11 85.16 132.311 91.2791 127.507 104.122C122.702 116.964 112.519 156.791 112.519 156.791L128.957 167.043L144.821 123.605L139.11 85.16Z" fill="#C56E5D"/>
<path d="M204.607 146.91C203.367 150.57 202.88 154.444 203.176 158.297C203.472 162.15 204.545 165.904 206.329 169.332L207.213 173.109L209.631 183.526C193.071 197.88 170.076 202.752 155.926 199.625C141.777 196.497 138.166 184.924 138.166 184.924L140.357 169.619L136.579 135.563C136.579 135.563 133.648 131.091 132.402 120.787C131.155 110.482 139.08 85.1223 139.08 85.1223L164.848 74.818L183.666 73.224L215.01 85.16L219.059 95.3132C218.915 100.934 214.783 115.378 210.462 129.036C208.422 135.518 206.33 141.818 204.607 146.91Z" fill="#F7DBC6"/>
<path d="M183.847 74.9313C180.901 80.295 170.393 87.0184 166.147 85.5529C161.902 84.0873 165.339 76.4876 165.339 76.4876C165.377 75.4073 165.422 74.4176 165.452 73.5036C165.641 67.46 165.603 64.8915 165.603 64.8915L183.847 52.8044C183.416 55.1987 183.178 57.6241 183.137 60.0567C183.041 65.0252 183.279 69.9945 183.847 74.9313Z" fill="#C56E5D"/>
<path d="M183.847 52.8271C183.415 55.2214 183.178 57.6467 183.137 60.0793C181.045 63.222 177.562 67.9208 173.936 70.4969C170.31 73.0729 167.137 73.564 165.452 73.5186C165.641 67.4751 165.603 64.9066 165.603 64.9066L183.847 52.8271Z" fill="#AF5448"/>
<path d="M145.781 46.4284C145.781 46.4284 146.415 61.3636 156.931 68.0946C167.447 74.8256 182.163 60.7365 184.693 52.9479C187.224 45.1593 186.37 28.3431 186.37 28.3431C186.37 28.3431 172.493 19.089 161.977 19.089C151.461 19.089 145.781 24.3771 145.781 24.3771V46.4284Z" fill="#C56E5D"/>
<path d="M157.77 19.3836C157.77 19.3836 157.452 24.8757 167.59 31.2894C177.729 37.7031 183.16 39.0175 183.16 39.0175L185.298 50.81C185.298 50.81 183.825 54.5117 183.417 55.8564C182.964 57.3219 183.145 61.9906 183.145 61.9906C183.145 61.9906 191.629 60.729 194.613 52.827C197.324 50.5852 199.533 47.7971 201.095 44.6445C202.657 41.492 203.537 38.0457 203.678 34.5302C203.995 22.7529 197.899 19.0738 197.899 19.0738C197.899 19.0738 196.328 4.98483 180.758 2.55986C165.188 0.13489 152.806 8.87537 152.806 8.87537C152.806 8.87537 145.252 7.8253 141.135 13.1814C137.018 18.5375 139.662 25.0645 139.662 25.0645C139.662 25.0645 136.081 28.5396 138.151 34.2205C138.766 35.8623 139.796 37.3164 141.142 38.4407C142.487 39.5649 144.101 40.3207 145.826 40.6342C145.826 40.6342 146.355 30.957 149.188 26.1221C152.021 21.2873 157.77 19.3836 157.77 19.3836Z" fill="#3D2624"/>
<path d="M183.848 40.74C183.848 40.74 185.849 35.7918 189.952 35.2706C194.054 34.7493 194.363 42.0016 191.523 46.8364C188.682 51.6713 184.724 50.7269 184.724 50.7269L183.848 40.74Z" fill="#C56E5D"/>
<path d="M181.853 35.2554C181.853 35.2554 184.588 43.4898 183.009 50.0092C183.386 49.6124 183.728 49.1826 184.029 48.725C185.351 46.7986 185.902 39.4935 186.491 36.9854L181.853 35.2554Z" fill="#3D2624"/>
<path d="M152.512 9.62327C154.999 6.34343 158.437 3.91041 162.358 2.65586C166.278 1.4013 170.49 1.38625 174.42 2.61276L175.47 2.54477C171.368 0.793627 166.79 0.500348 162.499 1.71378C155.632 3.80636 150.857 9.20023 150.857 9.20023L152.512 9.62327Z" fill="#3D2624"/>
<path d="M197.838 19.089C199.071 19.4186 200.221 19.9995 201.219 20.7951C202.216 21.5907 203.038 22.5839 203.633 23.7123C205.793 27.6406 203.565 31.6293 203.565 31.6293L203.202 31.1458C203.7 30.0176 203.922 28.7865 203.848 27.5553C203.775 26.3241 203.408 25.1282 202.779 24.0673C200.618 20.3657 197.838 20.5621 197.838 20.5621V19.089Z" fill="#3D2624"/>
<path d="M147.095 38.1488C147.095 38.1488 147.533 37.1516 150.638 37.2121C152.455 37.2277 154.212 37.8648 155.616 39.0176C155.616 39.0176 154.189 36.3433 151.356 35.9958C150.507 35.8303 149.628 35.9521 148.856 36.342C148.085 36.7319 147.465 37.3676 147.095 38.1488Z" fill="#3D2624"/>
<path d="M157.77 19.3836C157.77 19.3836 157.279 24.7699 160.436 29.1137C163.594 33.4575 172.909 33.4575 172.909 33.4575L173.286 34.2961C173.286 34.2961 164.078 34.3716 160.361 31.0779C156.644 27.7841 156.228 22.2694 156.931 19.3836H157.77Z" fill="#3D2624"/>
<path d="M164.025 38.4736C164.025 38.4736 164.531 37.3254 168.119 37.4009C170.216 37.4168 172.245 38.1499 173.868 39.4784C173.868 39.4784 172.214 36.3886 168.95 35.958C167.967 35.775 166.95 35.9225 166.059 36.3775C165.168 36.8325 164.453 37.5695 164.025 38.4736Z" fill="#3D2624"/>
<path d="M155.617 52.6382C156.294 53.1248 157.066 53.4645 157.883 53.6354C158.865 53.952 159.922 53.952 160.905 53.6354C160.692 53.3048 160.409 53.025 160.076 52.8161C159.744 52.6072 159.369 52.4742 158.978 52.4267C157.853 52.3358 156.721 52.407 155.617 52.6382Z" fill="#913D37"/>
<path d="M155.617 39.0176C155.617 39.0176 156.614 40.0676 156.984 42.7948C157.204 44.4166 157.204 46.0607 156.984 47.6825C156.984 47.6825 155.73 40.5436 155.617 39.0176Z" fill="#AF5448"/>
<path d="M147.488 42.0696C148.592 42.5102 149.751 42.7999 150.933 42.9308C152.372 43.0157 153.816 42.8833 155.216 42.5379C155.216 42.5379 154.34 40.1734 152.3 39.6219C149.09 38.7532 147.488 42.0696 147.488 42.0696Z" fill="#AF5448"/>
<path d="M164.025 42.4548C164.025 42.4548 164.342 40.0299 167.447 39.4935C170.552 38.9571 174.246 42.2207 174.246 42.2207C174.246 42.2207 168.127 45.1367 164.025 42.4548Z" fill="#AF5448"/>
<path d="M151.439 42.9081C150.084 42.8532 148.748 42.5697 147.488 42.0696L147.095 42.3264C146.834 42.4563 146.553 42.5406 146.264 42.5757C146.742 42.7713 147.264 42.834 147.775 42.757C148.876 43.3871 150.118 43.7276 151.386 43.7466C152.728 43.8405 154.069 43.544 155.246 42.893V42.5379C153.995 42.8059 152.718 42.9301 151.439 42.9081Z" fill="#3D2624"/>
<path d="M174.216 42.2509C172.562 42.7276 170.858 43.0066 169.139 43.0818C167.455 43.1027 165.776 42.8709 164.161 42.3944L163.677 42.6966C163.352 42.8483 163.005 42.9502 162.65 42.9987C163.255 43.1747 163.892 43.216 164.516 43.1196C165.947 43.7309 167.493 44.0247 169.048 43.9808C172.274 43.8826 173.264 43.1196 173.966 42.6588C174.087 42.5681 174.216 42.2509 174.216 42.2509Z" fill="#3D2624"/>
<path d="M155.616 57.4051C156.482 57.7041 157.371 57.9266 158.275 58.0699C160.398 58.4929 165.452 57.4051 165.452 57.4051C163.827 57.1121 162.184 56.9229 160.534 56.8385C159.823 56.8838 159.136 57.1128 158.54 57.5033C158.033 57.0783 157.432 56.7805 156.787 56.6345C156.143 56.6933 155.507 56.8225 154.891 57.0198L155.616 57.4051Z" fill="#913D37"/>
<path d="M156.379 59.626C157.453 60.2763 158.676 60.6404 159.93 60.6837C161.426 60.6661 162.908 60.3927 164.312 59.8753C163.826 60.4734 163.224 60.967 162.542 61.3266C161.861 61.6862 161.113 61.9043 160.345 61.9679C157.649 62.2776 156.379 59.626 156.379 59.626Z" fill="#AF5448"/>
<path d="M130.566 194.231L139.631 174.854C139.631 174.854 145.675 181.192 164.04 181.834C182.405 182.476 207.228 173.154 207.228 173.154C207.228 173.154 213.582 189.547 213.582 195.644C213.582 201.74 177.32 225.861 177.32 225.861L155.805 224.26L130.566 194.231Z" fill="#525E7D"/>
<path d="M129.531 225.824C129.531 225.824 123.586 228.135 121.554 229.087C121.554 229.087 112.67 229.994 109.104 231.044C105.538 232.094 104.639 236.876 103.763 242.043C102.887 247.21 96.2085 254.13 94.1764 257.718C92.1442 261.307 93.0961 265.583 93.3832 266.466C93.6702 267.35 92.4917 270.364 93.9724 272.23C95.4531 274.096 96.3143 273.137 97.1377 272.669C97.9611 272.2 98.218 270.568 98.218 270.568C99.3246 270.371 100.391 269.993 101.376 269.45C102.229 268.786 101.376 268.778 103.476 268.091C105.055 267.659 106.544 266.948 107.873 265.99C109.059 265.122 115.752 253.503 120.02 249.779C124.288 246.054 131.971 244.763 131.971 244.763L129.531 225.824Z" fill="#C56E5D"/>
<path d="M245.892 246.704C231.387 250.36 199.908 252.929 171.685 254.598C142.615 256.321 117.013 257.091 117.013 257.091L112.7 243.418L108.923 231.293L193.426 214.537C193.426 214.537 191.122 197.041 209.533 187.613C209.533 187.613 264.34 188.051 277.613 203.478C290.886 218.904 276.503 238.999 245.892 246.704Z" fill="#525E7D"/>
<path d="M163.398 241.899C163.398 241.899 169.335 244.211 171.375 245.163C171.375 245.163 180.259 246.069 183.817 247.119C187.375 248.17 188.29 252.951 189.158 258.111C190.027 263.271 196.713 270.198 198.745 273.794C200.777 277.39 199.825 281.651 199.5 282.535C199.175 283.419 200.392 286.433 198.919 288.299C197.445 290.165 196.577 289.205 195.746 288.744C194.915 288.284 194.665 286.637 194.665 286.637C193.587 286.425 192.549 286.042 191.591 285.504C190.73 284.839 191.591 284.824 189.491 284.144C187.912 283.71 186.423 282.999 185.094 282.044C183.908 281.175 177.207 269.549 172.946 265.832C168.686 262.115 160.988 260.808 160.988 260.808L163.398 241.899Z" fill="#C56E5D"/>
<path d="M135.212 190.831C135.212 190.831 62.9615 190.831 51.3956 203.674C39.8298 216.516 46.2586 232.895 55.5732 238.356C64.8879 243.818 162.506 265.651 162.506 265.651L167.643 235.788L153.244 231.293L160.95 220.966L135.212 190.831Z" fill="#525E7D"/>
<path d="M135 193.611C135 193.611 150.072 212.278 158.268 217.823C158.268 217.823 141.422 216.093 135 193.611Z" fill="#4F506B"/>
<path d="M76.7634 209.778C76.7634 209.778 89.2887 211.379 108.877 215.557C128.466 219.735 153.244 231.293 153.244 231.293C153.244 231.293 127.824 213.918 107.918 209.778C88.012 205.638 76.7634 209.778 76.7634 209.778Z" fill="#4F506B"/>
<path d="M146.634 227.078C146.634 227.078 204.894 209.702 229.303 205.721C229.303 205.721 177.698 221.23 153.245 231.293L146.634 227.078Z" fill="#4F506B"/>
<path d="M202.801 192.078C202.801 192.078 174.563 206.023 165.029 220.15C165.052 220.15 194.824 204.89 202.801 192.078Z" fill="#4F506B"/>
<path d="M128.957 167.043C128.957 167.043 124.16 155.371 112.911 155.265L68.2421 185.566C66.7567 184.839 65.1741 184.33 63.5432 184.055C59.5167 183.3 51.5619 183.405 49.5071 183.028C48.5099 182.846 48.457 183.345 48.8801 184.002C48.2228 183.73 47.1803 184.455 46.372 185.649C45.1104 187.523 41.93 191.005 41.93 192.962C41.93 194.918 45.3899 196.875 47.4447 196.973C47.4447 196.973 40.4267 198.748 39.1349 201.272C37.843 203.795 41.2879 203.425 42.4059 202.866C43.524 202.307 50.7158 200.342 50.7158 200.342C50.7158 200.342 43.5995 204.271 43.4182 206.983C43.2369 209.695 45.6845 208.108 47.9056 206.983C50.1266 205.857 54.1757 203.802 54.1757 203.802C54.1757 203.802 48.3739 208.01 49.4013 209.884C50.4287 211.757 55.2031 207.481 59.0408 205.736C62.8784 203.991 65.7793 203.734 69.0126 202.473C71.8098 201.334 74.2145 199.404 75.9325 196.92C83.9251 193.959 118.124 180.663 128.957 167.043ZM53.7149 192.486C50.5345 193.611 46.9159 192.486 46.4173 191.927C45.9187 191.368 49.5071 188.089 49.5071 185.566C49.5146 185.246 49.4686 184.927 49.3711 184.622C49.9427 185.212 50.6189 185.691 51.3655 186.034C53.3447 186.873 57.6432 187.334 58.7688 187.991C59.8944 188.648 56.8953 191.368 53.7149 192.486Z" fill="#C56E5D"/>
<path d="M276.08 128.636C276.08 128.636 280.144 141.063 277.364 150.317C274.584 159.571 263.932 161.649 263.932 161.649L265.639 159.503C265.639 159.503 276.132 157.735 276.722 143.344C277.243 130.57 276.08 128.636 276.08 128.636Z" fill="#3D2624"/>
<path d="M59.3882 187.847C61.6939 189.075 64.2492 189.759 66.8595 189.849C70.7878 189.849 66.0512 191.617 63.0823 190.733C60.1134 189.849 59.3882 187.847 59.3882 187.847Z" fill="#AF5448"/>
<path d="M71.7625 194.85C69.7293 195.059 67.7615 195.686 65.9833 196.694C62.6065 198.461 60.8463 202.956 59.9398 202.231C59.0332 201.506 61.4884 194.594 71.7625 194.85Z" fill="#AF5448"/>
<path d="M48.4948 196.86C48.4948 196.86 55.8754 202.828 56.7593 202.903C57.6432 202.979 53.7149 197.177 48.4948 196.86Z" fill="#AF5448"/>
<path d="M139.269 132.821C139.269 132.821 142.91 130.91 154.015 130.91C165.12 130.91 183.583 135.246 183.583 135.246C183.583 135.246 149.505 135.42 139.269 132.821Z" fill="#EFC9B6"/>
<path d="M206.337 169.535L207.221 173.313L191.485 178.231C191.485 178.231 199.493 158.891 199.342 144.085C199.191 129.278 204.018 110.845 204.018 110.845L210.477 129.24C208.43 135.722 206.337 142.022 204.615 147.114C203.378 150.775 202.893 154.648 203.189 158.5C203.485 162.353 204.556 166.106 206.337 169.535Z" fill="#EFC9B6"/>
<path d="M287.623 215.489C286.807 212.762 280.242 209.71 280.242 209.71C282.282 209.997 286.044 208.713 286.406 206.794C286.769 204.875 284.299 200.856 283.385 198.786C282.811 197.464 281.919 196.52 281.232 196.694C281.768 196.135 281.806 195.636 280.793 195.628C278.701 195.628 270.905 194.042 266.818 194.027C265.522 194.007 264.228 194.123 262.957 194.374L233.034 152.296C231.38 142.007 229.091 115.982 226.394 104.446C222.866 89.3376 214.994 85.16 214.994 85.16C214.994 85.16 205.242 90.9618 203.617 102.195C201.993 113.429 216.316 163.726 216.316 163.726C221.401 178.027 248.189 200.894 251.92 205.162C253.481 207.569 255.559 209.597 258.002 211.1C260.948 212.936 263.751 213.729 267.195 216.161C270.64 218.594 274.531 223.716 275.891 222.031C277.25 220.347 272.332 215.164 272.332 215.164C272.332 215.164 275.906 217.937 277.9 219.455C279.894 220.974 281.995 222.998 282.312 220.294C282.629 217.589 276.382 212.407 276.382 212.407C276.382 212.407 283.098 215.678 284.095 216.441C285.092 217.204 288.439 218.209 287.623 215.489ZM274.916 204.157C272 202.465 269.56 199.24 270.791 198.801C272.023 198.363 276.329 198.711 278.421 198.25C279.221 198.061 279.976 197.717 280.642 197.238C280.497 197.521 280.396 197.824 280.34 198.137C279.872 200.622 282.758 204.505 282.191 204.936C281.624 205.366 277.832 205.827 274.916 204.127V204.157Z" fill="#C56E5D"/>
<path d="M269.84 199.179C267.538 200.411 264.985 201.098 262.376 201.189C258.44 201.189 263.177 202.949 266.108 202.065C269.039 201.181 269.84 199.179 269.84 199.179Z" fill="#AF5448"/>
<path d="M254.897 204.46C256.93 204.673 258.897 205.303 260.676 206.31C264.045 208.071 265.813 212.566 266.72 211.848C267.626 211.13 265.171 204.218 254.897 204.46Z" fill="#AF5448"/>
<path d="M277.258 208.547C277.258 208.547 269.877 214.515 268.994 214.59C268.11 214.666 272.038 208.864 277.258 208.547Z" fill="#AF5448"/>
<path d="M162.249 79.5168C162.249 79.5168 158.744 86.195 164.312 88.0156C169.879 89.8362 179.421 83.4829 184.278 78.8218C184.278 78.8218 177.857 89.1412 167.454 90.7881C157.052 92.4349 159.462 81.7907 162.249 79.5168Z" fill="#EFC9B6"/>
</svg>
