<svg width="317" height="269" viewBox="0 0 317 269" fill="none" xmlns="http://www.w3.org/2000/svg">
<path d="M282.758 185.445C275.345 182.097 274.215 174.045 271.154 169.854C268.094 165.663 260.681 163.08 260.681 163.08C260.681 163.08 267.771 157.604 279.052 158.868C284.359 159.471 288.339 161.858 291.597 164.449C289.919 159.598 291.597 156.797 288.725 152.185C285.335 146.786 278.729 143.88 275.022 134.922C272.838 129.468 272.838 123.382 275.022 117.927C275.022 117.927 276.153 121.156 280.638 124.378C284.668 127.257 296.04 127.699 302.78 136.39C299.27 87.3409 265.194 60.5314 241.6 46.5336C221.333 34.5223 208.241 9.4609 153.485 13.0832C98.729 16.7055 86.5352 51.8477 72.9655 78.4395C65.4541 93.1815 48.4727 96.4177 34.1519 106.52C44.7521 103.747 51.4773 108.864 59.4661 110.472C69.0343 112.409 70.5366 105.663 79.1221 105.705C87.7076 105.747 90.9438 108.829 90.9438 108.829C90.9438 108.829 82.3513 107.537 79.5573 114.845C76.7634 122.153 73.3236 124.891 64.7311 123.733C56.1386 122.574 53.6465 123.206 49.0905 127.299C44.5345 131.391 34.0045 128.38 27.9813 129.889C24.4222 130.781 19.5573 137.106 16.2158 142.111C19.7117 139.335 23.5563 137.029 27.6514 135.252C41.6142 129.019 59.4591 140.419 59.4591 140.419C59.4591 140.419 45.419 143.641 37.2267 149.229C29.0343 154.817 23.2569 149.447 17.6689 151.377C15.4279 152.154 13.2299 153.049 11.0842 154.059C11.0842 154.059 11.0842 154.101 11.0842 154.122C9.96097 171.497 16.5317 186.927 27.6865 200.145C54.9943 232.515 109.821 251.693 146.697 253.989C185.307 256.376 253.015 242.055 285.173 199.324C288.034 195.526 290.593 191.51 292.825 187.313C289.575 187.292 285.875 186.871 282.758 185.445Z" fill="#CAE8ED"/>
<path d="M130.939 103.266C141.246 98.9125 146.072 87.0273 141.718 76.72C137.364 66.4127 125.479 61.5866 115.172 65.9405C104.864 70.2945 100.038 82.1798 104.392 92.4871C108.746 102.794 120.631 107.62 130.939 103.266Z" fill="#476367"/>
<path d="M262.667 71.6933C266.73 71.6933 270.024 68.3995 270.024 64.3363C270.024 60.2732 266.73 56.9794 262.667 56.9794C258.604 56.9794 255.31 60.2732 255.31 64.3363C255.31 68.3995 258.604 71.6933 262.667 71.6933Z" fill="#476367"/>
<path d="M285.138 199.324C252.98 242.041 185.251 256.376 146.662 253.989C109.764 251.693 54.9592 232.515 27.6514 200.145C38.048 188.619 64.6398 165.263 113.717 158.727C179.705 149.896 225.672 202.251 275.528 199.514C278.883 199.296 282.056 199.254 285.138 199.324Z" fill="#B1CBD0"/>
<path d="M71.2808 63.1991C77.4093 44.8277 62.9059 53.3149 57.4233 65.0243C51.9407 76.7337 41.6283 78.0253 41.6283 84.6312C41.6283 91.237 65.1383 81.5353 71.2808 63.1991Z" stroke="#476367" stroke-miterlimit="10"/>
<path d="M239.235 40.1102C239.235 40.1102 222.148 25.6139 215.219 20.9386C208.29 16.2633 211.351 9.98037 227.223 17.232C243.096 24.4837 249.849 38.4886 247.75 41.437C245.651 44.3854 239.235 40.1102 239.235 40.1102Z" stroke="#476367" stroke-miterlimit="10"/>
<path d="M80.6807 83.4939C80.6821 83.7125 80.6185 83.9266 80.4979 84.1089C80.3773 84.2912 80.2053 84.4336 80.0036 84.5178C79.8019 84.6021 79.5797 84.6245 79.3653 84.5822C79.1508 84.5399 78.9538 84.4348 78.7992 84.2803C78.6447 84.1257 78.5396 83.9287 78.4973 83.7142C78.455 83.4998 78.4774 83.2776 78.5617 83.0759C78.646 82.8743 78.7883 82.7022 78.9706 82.5816C79.153 82.4611 79.367 82.3974 79.5856 82.3988C79.876 82.3988 80.1546 82.5142 80.36 82.7196C80.5653 82.925 80.6807 83.2035 80.6807 83.4939V83.4939Z" fill="#476367"/>
<path d="M89.926 85.5789C89.926 85.7969 89.8613 86.01 89.7402 86.1912C89.6191 86.3724 89.447 86.5137 89.2456 86.5971C89.0442 86.6806 88.8226 86.7024 88.6088 86.6599C88.395 86.6173 88.1986 86.5124 88.0445 86.3582C87.8904 86.2041 87.7854 86.0077 87.7429 85.7939C87.7003 85.5801 87.7222 85.3585 87.8056 85.1571C87.889 84.9557 88.0303 84.7836 88.2115 84.6625C88.3928 84.5414 88.6058 84.4767 88.8238 84.4767C89.1156 84.4786 89.3948 84.5953 89.6011 84.8016C89.8074 85.0079 89.9241 85.2872 89.926 85.5789V85.5789Z" fill="#476367"/>
<path d="M120.8 52.6691C120.8 52.8874 120.735 53.1007 120.614 53.2821C120.492 53.4635 120.32 53.6048 120.118 53.688C119.916 53.7712 119.694 53.7926 119.48 53.7495C119.266 53.7064 119.07 53.6007 118.916 53.4459C118.762 53.291 118.658 53.094 118.616 52.8798C118.574 52.6655 118.597 52.4437 118.682 52.2424C118.766 52.0412 118.908 51.8695 119.091 51.7493C119.273 51.629 119.486 51.5655 119.705 51.5669C119.849 51.5669 119.992 51.5955 120.125 51.651C120.259 51.7064 120.38 51.7877 120.482 51.8902C120.583 51.9926 120.664 52.1142 120.719 52.2478C120.773 52.3815 120.801 52.5247 120.8 52.6691V52.6691Z" fill="#476367"/>
<path d="M264.872 150.296C264.872 150.516 264.806 150.73 264.683 150.912C264.56 151.094 264.386 151.235 264.183 151.317C263.979 151.4 263.756 151.419 263.541 151.374C263.327 151.329 263.13 151.22 262.978 151.062C262.825 150.905 262.723 150.705 262.684 150.489C262.646 150.273 262.673 150.05 262.762 149.85C262.85 149.649 262.997 149.479 263.183 149.363C263.369 149.246 263.585 149.187 263.805 149.194C264.091 149.203 264.362 149.323 264.561 149.529C264.76 149.735 264.872 150.01 264.872 150.296V150.296Z" fill="#476367"/>
<path d="M268.613 147.313C268.613 147.531 268.549 147.744 268.427 147.926C268.306 148.107 268.133 148.249 267.931 148.332C267.73 148.415 267.508 148.436 267.294 148.393C267.08 148.35 266.883 148.244 266.729 148.09C266.576 147.935 266.471 147.738 266.429 147.523C266.388 147.309 266.41 147.087 266.495 146.886C266.579 146.685 266.722 146.513 266.904 146.393C267.086 146.273 267.3 146.209 267.518 146.211C267.809 146.213 268.088 146.329 268.293 146.536C268.498 146.742 268.613 147.022 268.613 147.313V147.313Z" fill="#476367"/>
<path d="M85.9456 81.7038C86.9265 81.7038 87.7217 80.9087 87.7217 79.9278C87.7217 78.9469 86.9265 78.1517 85.9456 78.1517C84.9647 78.1517 84.1696 78.9469 84.1696 79.9278C84.1696 80.9087 84.9647 81.7038 85.9456 81.7038Z" fill="#476367"/>
<path d="M272.945 93.7151C273.926 93.7151 274.721 92.9199 274.721 91.939C274.721 90.9581 273.926 90.1629 272.945 90.1629C271.964 90.1629 271.169 90.9581 271.169 91.939C271.169 92.9199 271.964 93.7151 272.945 93.7151Z" fill="#476367"/>
<path d="M84.1765 145.242C84.1765 145.696 84.0419 146.14 83.7897 146.517C83.5374 146.895 83.1789 147.189 82.7595 147.363C82.34 147.536 81.8784 147.582 81.4331 147.493C80.9879 147.405 80.5788 147.186 80.2578 146.865C79.9368 146.544 79.7181 146.135 79.6296 145.69C79.541 145.244 79.5864 144.783 79.7602 144.363C79.9339 143.944 80.2281 143.585 80.6056 143.333C80.9831 143.081 81.427 142.946 81.881 142.946C82.4898 142.946 83.0737 143.188 83.5042 143.619C83.9347 144.049 84.1765 144.633 84.1765 145.242V145.242Z" stroke="white" stroke-miterlimit="10"/>
<path d="M213.998 47.2918C213.998 47.7458 213.863 48.1896 213.611 48.5671C213.358 48.9446 213 49.2388 212.58 49.4126C212.161 49.5863 211.699 49.6318 211.254 49.5432C210.809 49.4546 210.4 49.236 210.079 48.915C209.758 48.5939 209.539 48.1849 209.451 47.7396C209.362 47.2943 209.407 46.8328 209.581 46.4133C209.755 45.9938 210.049 45.6353 210.427 45.3831C210.804 45.1309 211.248 44.9962 211.702 44.9962C212.004 44.9953 212.303 45.054 212.582 45.1691C212.861 45.2841 213.114 45.4532 213.327 45.6665C213.541 45.8798 213.71 46.1333 213.825 46.4122C213.94 46.6911 213.998 46.99 213.998 47.2918V47.2918Z" stroke="white" stroke-miterlimit="10"/>
<path d="M101.693 46.7557C105.456 45.273 107.303 41.0212 105.821 37.2591C104.338 33.4969 100.086 31.6491 96.3241 33.1318C92.562 34.6145 90.7142 38.8663 92.1969 42.6284C93.6796 46.3905 97.9313 48.2384 101.693 46.7557Z" stroke="white" stroke-miterlimit="10"/>
<path d="M303.103 116.984C310.778 113.854 314.462 105.094 311.331 97.4186C308.201 89.7434 299.441 86.0593 291.766 89.19C284.091 92.3206 280.406 101.08 283.537 108.756C286.668 116.431 295.428 120.115 303.103 116.984Z" stroke="white" stroke-miterlimit="10"/>
<path d="M16.0614 191.09C24.3505 191.09 31.0702 184.37 31.0702 176.081C31.0702 167.792 24.3505 161.072 16.0614 161.072C7.77227 161.072 1.05261 167.792 1.05261 176.081C1.05261 184.37 7.77227 191.09 16.0614 191.09Z" stroke="white" stroke-miterlimit="10"/>
<path d="M129.828 23.3746C129.828 23.3746 126.662 25.0173 126.514 31.939C126.367 38.8608 133.001 42.0689 137.178 41.9987L136.813 40.9176C136.813 40.9176 129.687 40.1314 127.841 34.0872C127.304 32.3511 127.222 30.506 127.605 28.7294C127.987 26.9527 128.82 25.3045 130.024 23.9432L129.828 23.3746Z" fill="#3D2624"/>
<path d="M244.977 144.175C244.977 144.175 243.531 155.119 224.338 159.296C205.145 163.473 185.349 152.529 185.349 152.529L188.578 152.213C188.578 152.213 199.81 158.699 213.204 157.899C226.598 157.099 234.264 148.948 234.264 148.948L244.977 144.175Z" fill="#3D2624"/>
<path d="M249.708 91.2791C250.902 77.7515 232.2 63.8238 209.919 60.2366C187.637 56.6494 189.245 32.8937 189.245 32.8937L144.731 58.5027C144.731 58.5027 142.681 79.7382 127.841 91.6792C113.001 103.62 110.453 131.862 117.416 143.003C124.38 154.143 136.707 154.937 155.907 153.743C175.107 152.55 183.987 153.547 205.342 155.337C226.697 157.127 241.902 161.978 254.861 138.327C267.82 114.677 249.708 91.2791 249.708 91.2791ZM247.918 90.184C247.918 90.184 245.63 83.522 236.876 76.6564C231.914 72.7135 226.66 69.1535 221.158 66.0071C248.417 74.5645 248.712 90.177 248.712 90.177L247.918 90.184Z" fill="#3D2624"/>
<path d="M129.392 79.2047C129.392 79.2047 123.074 84.8909 118.61 96.8249C114.145 108.759 104.682 145.768 104.682 145.768L119.958 155.295L134.7 114.93L129.392 79.2047Z" fill="#C56E5D"/>
<path d="M190.256 136.586C189.103 139.988 188.651 143.587 188.926 147.168C189.201 150.748 190.198 154.236 191.856 157.422L192.678 160.932L194.924 170.612C179.536 183.95 158.167 188.478 145.019 185.572C131.87 182.666 128.515 171.911 128.515 171.911L130.551 157.688L127.041 126.042C127.041 126.042 124.317 121.886 123.159 112.311C122 102.736 129.364 79.1696 129.364 79.1696L153.31 69.5943L170.796 68.1131L199.922 79.2047L203.685 88.6396C203.552 93.8625 199.712 107.285 195.696 119.977C193.801 126 191.856 131.855 190.256 136.586Z" fill="#F7DBC6"/>
<path d="M170.965 69.6996C168.227 74.6838 158.462 80.9316 154.517 79.5698C150.572 78.2079 153.766 71.1458 153.766 71.1458C153.801 70.1419 153.843 69.2223 153.871 68.3728C154.047 62.7568 154.011 60.37 154.011 60.37L170.965 49.138C170.563 51.363 170.343 53.6167 170.305 55.8772C170.216 60.4943 170.436 65.1121 170.965 69.6996V69.6996Z" fill="#C56E5D"/>
<path d="M170.965 49.1591C170.563 51.384 170.343 53.6377 170.305 55.8983C168.36 58.8186 165.124 63.185 161.754 65.5789C158.385 67.9727 155.436 68.429 153.871 68.3869C154.046 62.7709 154.011 60.3841 154.011 60.3841L170.965 49.1591Z" fill="#AF5448"/>
<path d="M135.591 43.2131C135.591 43.2131 136.181 57.0917 145.952 63.3465C155.724 69.6013 169.399 56.509 171.751 49.2714C174.103 42.0338 173.309 26.4072 173.309 26.4072C173.309 26.4072 160.414 17.8077 150.642 17.8077C140.87 17.8077 135.591 22.7217 135.591 22.7217V43.2131Z" fill="#C56E5D"/>
<path d="M146.732 18.0815C146.732 18.0815 146.437 23.185 155.858 29.145C165.279 35.105 170.326 36.3265 170.326 36.3265L172.313 47.2847C172.313 47.2847 170.944 50.7245 170.565 51.9741C170.144 53.336 170.312 57.6743 170.312 57.6743C170.312 57.6743 178.196 56.502 180.969 49.1591C183.488 47.0758 185.541 44.485 186.992 41.5554C188.444 38.6259 189.262 35.4234 189.393 32.1566C189.687 21.2124 184.022 17.7937 184.022 17.7937C184.022 17.7937 182.562 4.70136 168.094 2.44794C153.626 0.194517 142.12 8.31667 142.12 8.31667C142.12 8.31667 135.1 7.34088 131.274 12.3181C127.448 17.2953 129.905 23.3605 129.905 23.3605C129.905 23.3605 126.578 26.5897 128.501 31.8688C129.073 33.3945 130.03 34.7457 131.28 35.7904C132.531 36.8351 134.03 37.5374 135.633 37.8288C135.633 37.8288 136.125 28.8361 138.757 24.3433C141.39 19.8505 146.732 18.0815 146.732 18.0815Z" fill="#3D2624"/>
<path d="M170.965 37.9271C170.965 37.9271 172.825 33.329 176.637 32.8446C180.449 32.3602 180.737 39.0994 178.097 43.5922C175.458 48.085 171.779 47.2075 171.779 47.2075L170.965 37.9271Z" fill="#C56E5D"/>
<path d="M169.112 32.8305C169.112 32.8305 171.653 40.4823 170.186 46.5406C170.537 46.1718 170.854 45.7724 171.133 45.3472C172.362 43.5571 172.874 36.7687 173.422 34.4381L169.112 32.8305Z" fill="#3D2624"/>
<path d="M141.846 9.01165C144.157 5.96384 147.352 3.70294 150.995 2.53713C154.639 1.37133 158.553 1.35734 162.204 2.49709L163.18 2.43391C159.368 0.806644 155.114 0.534113 151.126 1.6617C144.745 3.60625 140.309 8.61854 140.309 8.61854L141.846 9.01165Z" fill="#3D2624"/>
<path d="M183.966 17.8077C185.111 18.1141 186.18 18.6538 187.107 19.3932C188.034 20.1325 188.797 21.0554 189.35 22.104C191.358 25.7544 189.287 29.4609 189.287 29.4609L188.95 29.0116C189.413 27.9632 189.619 26.8193 189.551 25.6751C189.482 24.531 189.142 23.4197 188.557 22.4339C186.549 18.9941 183.966 19.1766 183.966 19.1766V17.8077Z" fill="#3D2624"/>
<path d="M136.812 35.5192C136.812 35.5192 137.22 34.5926 140.105 34.6487C141.793 34.6632 143.426 35.2553 144.731 36.3265C144.731 36.3265 143.404 33.8414 140.772 33.5185C139.983 33.3648 139.166 33.4779 138.449 33.8402C137.732 34.2025 137.156 34.7933 136.812 35.5192V35.5192Z" fill="#3D2624"/>
<path d="M146.732 18.0815C146.732 18.0815 146.276 23.0868 149.21 27.1233C152.144 31.1598 160.8 31.1598 160.8 31.1598L161.151 31.939C161.151 31.939 152.594 32.0092 149.14 28.9485C145.686 25.8878 145.3 20.7632 145.953 18.0815H146.732Z" fill="#3D2624"/>
<path d="M152.544 35.821C152.544 35.821 153.015 34.754 156.349 34.8242C158.298 34.839 160.183 35.5202 161.691 36.7547C161.691 36.7547 160.154 33.8835 157.121 33.4834C156.207 33.3133 155.263 33.4504 154.435 33.8732C153.607 34.2961 152.942 34.9809 152.544 35.821V35.821Z" fill="#3D2624"/>
<path d="M144.731 48.9836C145.361 49.4358 146.078 49.7514 146.837 49.9102C147.75 50.2045 148.732 50.2045 149.645 49.9102C149.448 49.603 149.185 49.343 148.875 49.1489C148.566 48.9547 148.218 48.8312 147.855 48.787C146.81 48.7025 145.758 48.7687 144.731 48.9836V48.9836Z" fill="#913D37"/>
<path d="M144.731 36.3265C144.731 36.3265 145.658 37.3023 146.002 39.8365C146.206 41.3436 146.206 42.8714 146.002 44.3785C146.002 44.3785 144.837 37.7445 144.731 36.3265Z" fill="#AF5448"/>
<path d="M137.178 39.1626C138.204 39.5721 139.281 39.8413 140.379 39.9629C141.716 40.0418 143.058 39.9187 144.359 39.5978C144.359 39.5978 143.545 37.4006 141.649 36.8881C138.666 36.0808 137.178 39.1626 137.178 39.1626Z" fill="#AF5448"/>
<path d="M152.544 39.5206C152.544 39.5206 152.839 37.2672 155.724 36.7688C158.61 36.2704 162.042 39.303 162.042 39.303C162.042 39.303 156.356 42.0127 152.544 39.5206Z" fill="#AF5448"/>
<path d="M140.849 39.9418C139.59 39.8908 138.349 39.6273 137.178 39.1626L136.812 39.4013C136.57 39.522 136.309 39.6003 136.04 39.6329C136.485 39.8147 136.97 39.8729 137.444 39.8014C138.467 40.3869 139.622 40.7034 140.8 40.721C142.047 40.8083 143.293 40.5328 144.387 39.9278V39.5978C143.225 39.8468 142.038 39.9622 140.849 39.9418V39.9418Z" fill="#3D2624"/>
<path d="M162.014 39.3311C160.478 39.7741 158.894 40.0333 157.297 40.1033C155.732 40.1226 154.172 39.9073 152.671 39.4644L152.221 39.7452C151.919 39.8863 151.597 39.9809 151.267 40.026C151.83 40.1896 152.421 40.2279 153.001 40.1384C154.33 40.7064 155.767 40.9794 157.213 40.9386C160.21 40.8474 161.13 40.1384 161.783 39.7101C161.895 39.6259 162.014 39.3311 162.014 39.3311Z" fill="#3D2624"/>
<path d="M144.731 53.4132C145.535 53.6911 146.362 53.8978 147.202 54.031C149.175 54.4241 153.871 53.4132 153.871 53.4132C152.36 53.141 150.834 52.9652 149.301 52.8867C148.64 52.9288 148.002 53.1417 147.448 53.5045C146.977 53.1096 146.418 52.8328 145.819 52.6972C145.22 52.7518 144.63 52.8718 144.057 53.0552L144.731 53.4132Z" fill="#913D37"/>
<path d="M145.44 55.4771C146.438 56.0813 147.574 56.4197 148.739 56.4599C150.129 56.4436 151.507 56.1895 152.811 55.7087C152.359 56.2644 151.8 56.7231 151.167 57.0573C150.533 57.3915 149.839 57.5942 149.125 57.6533C146.619 57.9411 145.44 55.4771 145.44 55.4771Z" fill="#AF5448"/>
<path d="M121.453 180.56L129.877 162.553C129.877 162.553 135.493 168.443 152.558 169.04C169.624 169.636 192.692 160.974 192.692 160.974C192.692 160.974 198.596 176.207 198.596 181.872C198.596 187.537 164.9 209.952 164.9 209.952L144.907 208.464L121.453 180.56Z" fill="#525E7D"/>
<path d="M120.491 209.917C120.491 209.917 114.966 212.065 113.078 212.95C113.078 212.95 104.822 213.792 101.509 214.768C98.1955 215.744 97.3601 220.188 96.5458 224.989C95.7314 229.791 89.5258 236.221 87.6374 239.556C85.749 242.89 86.6335 246.864 86.9003 247.685C87.167 248.506 86.0719 251.307 87.4478 253.041C88.8238 254.775 89.624 253.884 90.3892 253.448C91.1544 253.013 91.3931 251.497 91.3931 251.497C92.4214 251.313 93.4126 250.962 94.3274 250.458C95.1207 249.84 94.3274 249.833 96.279 249.194C97.7465 248.793 99.1303 248.132 100.365 247.243C101.467 246.435 107.687 235.639 111.653 232.178C115.619 228.717 122.758 227.516 122.758 227.516L120.491 209.917Z" fill="#C56E5D"/>
<path d="M228.62 229.321C215.142 232.718 185.889 235.105 159.663 236.656C132.65 238.257 108.859 238.973 108.859 238.973L104.85 226.267L101.34 215L179.866 199.429C179.866 199.429 177.725 183.171 194.833 174.41C194.833 174.41 245.763 174.817 258.097 189.152C270.431 203.487 257.065 222.16 228.62 229.321Z" fill="#525E7D"/>
<path d="M151.962 224.856C151.962 224.856 157.48 227.004 159.375 227.888C159.375 227.888 167.63 228.731 170.937 229.707C174.243 230.682 175.093 235.126 175.9 239.921C176.707 244.715 182.92 251.153 184.808 254.494C186.697 257.836 185.812 261.795 185.51 262.616C185.209 263.438 186.339 266.239 184.97 267.973C183.601 269.707 182.794 268.815 182.021 268.387C181.249 267.959 181.018 266.428 181.018 266.428C180.015 266.231 179.051 265.876 178.16 265.375C177.36 264.758 178.16 264.743 176.209 264.112C174.742 263.709 173.358 263.048 172.123 262.16C171.021 261.353 164.794 250.549 160.835 247.095C156.876 243.641 149.722 242.427 149.722 242.427L151.962 224.856Z" fill="#C56E5D"/>
<path d="M125.77 177.401C125.77 177.401 58.6307 177.401 47.8831 189.335C37.1354 201.269 43.1094 216.488 51.7651 221.563C60.4208 226.639 151.133 246.927 151.133 246.927L155.907 219.177L142.527 215L149.687 205.403L125.77 177.401Z" fill="#525E7D"/>
<path d="M125.573 179.984C125.573 179.984 139.578 197.33 147.195 202.483C147.195 202.483 131.54 200.875 125.573 179.984Z" fill="#4F506B"/>
<path d="M71.4563 195.007C71.4563 195.007 83.0955 196.495 101.298 200.377C119.501 204.259 142.527 215 142.527 215C142.527 215 118.905 198.854 100.407 195.007C81.9091 191.16 71.4563 195.007 71.4563 195.007Z" fill="#4F506B"/>
<path d="M136.384 211.083C136.384 211.083 190.523 194.937 213.204 191.237C213.204 191.237 165.251 205.649 142.527 215L136.384 211.083Z" fill="#4F506B"/>
<path d="M188.578 178.559C188.578 178.559 162.337 191.518 153.478 204.645C153.499 204.645 181.165 190.465 188.578 178.559Z" fill="#4F506B"/>
<path d="M119.958 155.295C119.958 155.295 115.5 144.449 105.047 144.35L63.5377 172.508C62.1575 171.832 60.6868 171.359 59.1713 171.104C55.4296 170.402 48.0376 170.5 46.1281 170.149C45.2015 169.98 45.1523 170.444 45.5455 171.054C44.9347 170.802 43.966 171.476 43.2148 172.585C42.0425 174.326 39.0871 177.562 39.0871 179.38C39.0871 181.198 42.3022 183.017 44.2117 183.108C44.2117 183.108 37.6901 184.758 36.4896 187.102C35.2892 189.447 38.4903 189.103 39.5293 188.583C40.5683 188.064 47.2513 186.239 47.2513 186.239C47.2513 186.239 40.6385 189.889 40.47 192.409C40.3015 194.93 42.576 193.455 44.6399 192.409C46.7038 191.363 50.4665 189.454 50.4665 189.454C50.4665 189.454 45.0751 193.364 46.0298 195.105C46.9846 196.846 51.4212 192.873 54.9874 191.251C58.5535 189.629 61.2492 189.391 64.2538 188.218C66.8531 187.16 69.0876 185.367 70.6841 183.059C78.1113 180.307 109.891 167.952 119.958 155.295ZM50.0383 178.938C47.0828 179.984 43.7203 178.938 43.2569 178.418C42.7936 177.899 46.1281 174.852 46.1281 172.508C46.1351 172.21 46.0924 171.914 46.0018 171.63C46.5329 172.179 47.1613 172.624 47.855 172.943C49.6943 173.722 53.6887 174.15 54.7346 174.761C55.7806 175.372 52.9937 177.899 50.0383 178.938V178.938Z" fill="#C56E5D"/>
<path d="M256.672 119.605C256.672 119.605 260.449 131.153 257.866 139.752C255.282 148.352 245.384 150.282 245.384 150.282L246.971 148.289C246.971 148.289 256.721 146.646 257.269 133.273C257.753 121.402 256.672 119.605 256.672 119.605Z" fill="#3D2624"/>
<path d="M55.3102 174.628C57.4528 175.768 59.8273 176.404 62.253 176.488C65.9034 176.488 61.5018 178.131 58.743 177.309C55.9841 176.488 55.3102 174.628 55.3102 174.628Z" fill="#AF5448"/>
<path d="M66.8091 181.135C64.9198 181.329 63.0911 181.912 61.4388 182.848C58.3008 184.491 56.6652 188.668 55.8228 187.994C54.9804 187.32 57.2619 180.897 66.8091 181.135Z" fill="#AF5448"/>
<path d="M45.1874 183.003C45.1874 183.003 52.0459 188.548 52.8673 188.619C53.6886 188.689 50.0382 183.297 45.1874 183.003Z" fill="#AF5448"/>
<path d="M129.54 123.494C129.54 123.494 132.923 121.718 143.243 121.718C153.562 121.718 170.719 125.747 170.719 125.747C170.719 125.747 139.052 125.909 129.54 123.494Z" fill="#EFC9B6"/>
<path d="M191.863 157.611L192.685 161.121L178.062 165.691C178.062 165.691 185.503 147.72 185.363 133.961C185.223 120.202 189.708 103.073 189.708 103.073L195.71 120.166C193.808 126.19 191.863 132.044 190.263 136.776C189.114 140.178 188.663 143.777 188.938 147.357C189.213 150.937 190.208 154.425 191.863 157.611V157.611Z" fill="#EFC9B6"/>
<path d="M267.399 200.314C266.641 197.78 260.54 194.944 260.54 194.944C262.436 195.21 265.932 194.017 266.268 192.234C266.605 190.451 264.31 186.716 263.46 184.793C262.927 183.564 262.099 182.687 261.46 182.848C261.958 182.329 261.993 181.865 261.053 181.858C259.108 181.858 251.863 180.384 248.066 180.37C246.862 180.351 245.659 180.46 244.478 180.693L216.672 141.592C215.135 132.03 213.008 107.846 210.502 97.1268C207.223 83.0868 199.908 79.2047 199.908 79.2047C199.908 79.2047 190.846 84.5961 189.336 95.0348C187.827 105.474 201.137 152.213 201.137 152.213C205.861 165.502 230.754 186.751 234.222 190.718C235.672 192.954 237.603 194.839 239.873 196.235C242.611 197.941 245.215 198.678 248.417 200.939C251.618 203.199 255.233 207.959 256.497 206.393C257.76 204.828 253.19 200.012 253.19 200.012C253.19 200.012 256.511 202.588 258.364 203.999C260.217 205.41 262.169 207.292 262.464 204.779C262.758 202.265 256.953 197.45 256.953 197.45C256.953 197.45 263.194 200.489 264.12 201.198C265.047 201.907 268.157 202.841 267.399 200.314ZM255.591 189.784C252.881 188.211 250.614 185.214 251.758 184.807C252.902 184.4 256.904 184.722 258.848 184.294C259.591 184.119 260.293 183.799 260.912 183.354C260.777 183.616 260.683 183.898 260.631 184.189C260.196 186.498 262.878 190.107 262.351 190.507C261.825 190.907 258.301 191.335 255.591 189.756V189.784Z" fill="#C56E5D"/>
<path d="M250.874 185.158C248.735 186.302 246.362 186.941 243.938 187.025C240.28 187.025 244.682 188.661 247.406 187.839C250.129 187.018 250.874 185.158 250.874 185.158Z" fill="#AF5448"/>
<path d="M236.988 190.065C238.877 190.263 240.705 190.849 242.358 191.785C245.489 193.42 247.132 197.597 247.974 196.93C248.817 196.263 246.535 189.84 236.988 190.065Z" fill="#AF5448"/>
<path d="M257.767 193.862C257.767 193.862 250.909 199.408 250.087 199.478C249.266 199.549 252.917 194.157 257.767 193.862Z" fill="#AF5448"/>
<path d="M150.895 73.9607C150.895 73.9607 147.637 80.1664 152.811 81.8582C157.985 83.5501 166.851 77.6462 171.365 73.3149C171.365 73.3149 165.398 82.9042 155.732 84.4346C146.065 85.9649 148.304 76.0738 150.895 73.9607Z" fill="#EFC9B6"/>
</svg>
