<svg width="307" height="261" viewBox="0 0 307 261" fill="none" xmlns="http://www.w3.org/2000/svg">
<path d="M273.837 179.638C266.657 176.395 265.562 168.596 262.598 164.537C259.634 160.478 252.454 157.976 252.454 157.976C252.454 157.976 259.321 152.673 270.247 153.897C275.387 154.481 279.242 156.793 282.397 159.302C280.772 154.604 282.397 151.891 279.616 147.424C276.332 142.196 269.934 139.381 266.344 130.705C264.228 125.422 264.228 119.528 266.344 114.245C266.344 114.245 267.439 117.372 271.783 120.493C275.686 123.281 286.7 123.709 293.227 132.126C289.828 84.6218 256.826 58.6564 233.974 45.0993C214.345 33.4662 201.665 9.19381 148.633 12.7021C95.6011 16.2104 83.7913 50.2461 70.6488 76.0007C63.3739 90.2785 46.9272 93.4129 33.0572 103.197C43.3237 100.511 49.8371 105.467 57.5744 107.024C66.8414 108.901 68.2964 102.367 76.6116 102.408C84.9267 102.449 88.061 105.433 88.061 105.433C88.061 105.433 79.7391 104.182 77.0331 111.26C74.3271 118.338 70.9956 120.99 62.6736 119.868C54.3517 118.746 51.938 119.358 47.5255 123.322C43.1129 127.285 32.9145 124.369 27.0809 125.83C23.6338 126.694 18.9221 132.82 15.6858 137.667C19.0716 134.979 22.7952 132.746 26.7614 131.025C40.2846 124.987 57.5676 136.029 57.5676 136.029C57.5676 136.029 43.9696 139.15 36.0352 144.562C28.1008 149.974 22.5052 144.772 17.0932 146.642C14.9227 147.394 12.7939 148.261 10.7158 149.239C10.7158 149.239 10.7158 149.28 10.7158 149.301C9.62793 166.128 15.9918 181.072 26.7954 193.875C53.2434 225.225 106.344 243.8 142.059 246.023C179.453 248.335 245.029 234.465 276.175 193.079C278.946 189.401 281.424 185.512 283.586 181.446C280.438 181.426 276.855 181.018 273.837 179.638Z" fill="#CAE8ED"/>
<path d="M126.797 100.046C136.78 95.8291 141.454 84.318 137.237 74.3353C133.02 64.3525 121.509 59.6784 111.526 63.8952C101.543 68.1121 96.8691 79.6232 101.086 89.606C105.303 99.5887 116.814 104.263 126.797 100.046Z" fill="#476367"/>
<path d="M254.378 69.4669C258.313 69.4669 261.503 66.2767 261.503 62.3415C261.503 58.4063 258.313 55.2162 254.378 55.2162C250.443 55.2162 247.253 58.4063 247.253 62.3415C247.253 66.2767 250.443 69.4669 254.378 69.4669Z" fill="#476367"/>
<path d="M276.141 193.079C244.995 234.451 179.399 248.335 142.025 246.023C106.289 243.8 53.2094 225.225 26.7614 193.875C36.8307 182.711 62.5852 160.091 110.117 153.761C174.027 145.208 218.547 195.914 266.834 193.263C270.084 193.052 273.157 193.011 276.141 193.079Z" fill="#B1CBD0"/>
<path d="M69.0171 61.2401C74.9527 43.4471 60.9059 51.6671 55.5959 63.0078C50.2859 74.3485 40.2982 75.5995 40.2982 81.9974C40.2982 88.3952 63.068 78.999 69.0171 61.2401Z" stroke="#476367" stroke-miterlimit="10"/>
<path d="M231.683 38.8782C231.683 38.8782 215.134 24.8383 208.424 20.3101C201.713 15.782 204.677 9.69692 220.05 16.7203C235.422 23.7436 241.963 37.3076 239.93 40.1632C237.897 43.0188 231.683 38.8782 231.683 38.8782Z" stroke="#476367" stroke-miterlimit="10"/>
<path d="M78.1211 80.896C78.1224 81.1077 78.0608 81.315 77.944 81.4915C77.8272 81.6681 77.6606 81.806 77.4653 81.8876C77.2699 81.9693 77.0548 81.991 76.8471 81.95C76.6394 81.909 76.4485 81.8072 76.2989 81.6575C76.1492 81.5078 76.0474 81.317 76.0064 81.1093C75.9654 80.9016 75.9871 80.6865 76.0688 80.4911C76.1504 80.2958 76.2883 80.1292 76.4648 80.0124C76.6414 79.8956 76.8487 79.834 77.0604 79.8353C77.3417 79.8353 77.6115 79.9471 77.8104 80.146C78.0093 80.3449 78.1211 80.6147 78.1211 80.896V80.896Z" fill="#476367"/>
<path d="M87.0752 82.9153C87.0752 83.1264 87.0126 83.3328 86.8953 83.5083C86.778 83.6839 86.6113 83.8207 86.4162 83.9015C86.2212 83.9823 86.0066 84.0034 85.7995 83.9622C85.5924 83.921 85.4022 83.8194 85.253 83.6701C85.1037 83.5208 85.002 83.3306 84.9608 83.1235C84.9196 82.9165 84.9408 82.7018 85.0216 82.5068C85.1024 82.3117 85.2392 82.145 85.4147 82.0277C85.5903 81.9105 85.7966 81.8478 86.0078 81.8478C86.2903 81.8496 86.5608 81.9627 86.7606 82.1625C86.9604 82.3623 87.0734 82.6327 87.0752 82.9153V82.9153Z" fill="#476367"/>
<path d="M116.977 51.0416C116.977 51.253 116.914 51.4597 116.797 51.6353C116.679 51.811 116.512 51.9478 116.317 52.0284C116.121 52.109 115.906 52.1298 115.699 52.088C115.492 52.0463 115.301 51.9439 115.152 51.794C115.003 51.644 114.902 51.4532 114.862 51.2456C114.821 51.0381 114.844 50.8233 114.925 50.6284C115.007 50.4335 115.145 50.2672 115.322 50.1507C115.498 50.0343 115.705 49.9728 115.916 49.9742C116.056 49.9742 116.195 50.0018 116.324 50.0555C116.453 50.1093 116.57 50.188 116.669 50.2872C116.767 50.3864 116.845 50.5042 116.898 50.6336C116.951 50.7631 116.978 50.9017 116.977 51.0416V51.0416Z" fill="#476367"/>
<path d="M256.513 145.595C256.513 145.808 256.449 146.015 256.33 146.192C256.211 146.368 256.043 146.504 255.846 146.584C255.649 146.664 255.432 146.683 255.224 146.639C255.016 146.595 254.826 146.49 254.678 146.337C254.531 146.184 254.432 145.991 254.394 145.782C254.357 145.572 254.383 145.357 254.469 145.163C254.555 144.968 254.697 144.804 254.877 144.691C255.057 144.578 255.267 144.521 255.479 144.528C255.757 144.537 256.019 144.653 256.212 144.852C256.405 145.051 256.513 145.318 256.513 145.595V145.595Z" fill="#476367"/>
<path d="M260.137 142.706C260.137 142.917 260.074 143.124 259.956 143.299C259.839 143.475 259.672 143.612 259.476 143.692C259.281 143.773 259.066 143.794 258.859 143.752C258.651 143.71 258.461 143.608 258.312 143.458C258.163 143.308 258.062 143.117 258.022 142.91C257.981 142.702 258.003 142.487 258.085 142.292C258.167 142.097 258.305 141.931 258.481 141.815C258.658 141.698 258.865 141.637 259.076 141.638C259.358 141.64 259.628 141.753 259.826 141.953C260.025 142.153 260.137 142.424 260.137 142.706V142.706Z" fill="#476367"/>
<path d="M83.2201 79.1622C84.1702 79.1622 84.9403 78.3921 84.9403 77.4421C84.9403 76.4921 84.1702 75.7219 83.2201 75.7219C82.2701 75.7219 81.5 76.4921 81.5 77.4421C81.5 78.3921 82.2701 79.1622 83.2201 79.1622Z" fill="#476367"/>
<path d="M264.332 90.7953C265.282 90.7953 266.052 90.0251 266.052 89.0751C266.052 88.1251 265.282 87.355 264.332 87.355C263.382 87.355 262.612 88.1251 262.612 89.0751C262.612 90.0251 263.382 90.7953 264.332 90.7953Z" fill="#476367"/>
<path d="M81.5068 140.7C81.5068 141.14 81.3764 141.569 81.1322 141.935C80.8879 142.301 80.5406 142.586 80.1344 142.754C79.7281 142.922 79.2811 142.966 78.8498 142.88C78.4186 142.795 78.0224 142.583 77.7115 142.272C77.4006 141.961 77.1888 141.565 77.103 141.134C77.0172 140.702 77.0613 140.255 77.2295 139.849C77.3978 139.443 77.6828 139.096 78.0484 138.851C78.414 138.607 78.8439 138.477 79.2836 138.477C79.8732 138.477 80.4387 138.711 80.8557 139.128C81.2726 139.545 81.5068 140.11 81.5068 140.7V140.7Z" stroke="white" stroke-miterlimit="10"/>
<path d="M207.24 45.8336C207.24 46.2733 207.11 46.7032 206.866 47.0688C206.621 47.4344 206.274 47.7194 205.868 47.8876C205.462 48.0559 205.015 48.0999 204.583 48.0141C204.152 47.9284 203.756 47.7166 203.445 47.4057C203.134 47.0948 202.922 46.6986 202.837 46.2673C202.751 45.8361 202.795 45.389 202.963 44.9828C203.131 44.5765 203.416 44.2293 203.782 43.985C204.148 43.7407 204.577 43.6103 205.017 43.6103C205.309 43.6094 205.599 43.6663 205.869 43.7777C206.139 43.8891 206.385 44.0529 206.591 44.2595C206.798 44.4661 206.962 44.7116 207.073 44.9817C207.184 45.2519 207.241 45.5414 207.24 45.8336V45.8336Z" stroke="white" stroke-miterlimit="10"/>
<path d="M98.4723 45.3144C102.116 43.8784 103.906 39.7605 102.47 36.1168C101.034 32.4731 96.9157 30.6834 93.272 32.1195C89.6283 33.5555 87.8387 37.6734 89.2747 41.317C90.7107 44.9607 94.8286 46.7504 98.4723 45.3144Z" stroke="white" stroke-miterlimit="10"/>
<path d="M293.54 113.332C300.974 110.3 304.542 101.816 301.51 94.3822C298.478 86.9487 289.994 83.3806 282.56 86.4126C275.127 89.4447 271.559 97.9288 274.591 105.362C277.623 112.796 286.107 116.364 293.54 113.332Z" stroke="white" stroke-miterlimit="10"/>
<path d="M15.5362 185.104C23.5644 185.104 30.0725 178.596 30.0725 170.568C30.0725 162.54 23.5644 156.032 15.5362 156.032C7.50809 156.032 1 162.54 1 170.568C1 178.596 7.50809 185.104 15.5362 185.104Z" stroke="white" stroke-miterlimit="10"/>
<path d="M125.721 22.6695C125.721 22.6695 122.654 24.2604 122.512 30.9642C122.369 37.668 128.794 40.7752 132.839 40.7072L132.486 39.6601C132.486 39.6601 125.585 38.8986 123.797 33.0447C123.276 31.3633 123.197 29.5763 123.568 27.8556C123.938 26.1349 124.745 24.5386 125.911 23.2202L125.721 22.6695Z" fill="#3D2624"/>
<path d="M237.244 139.666C237.244 139.666 235.844 150.266 217.255 154.311C198.667 158.357 179.494 147.757 179.494 147.757L182.621 147.451C182.621 147.451 193.5 153.734 206.472 152.958C219.445 152.183 226.869 144.29 226.869 144.29L237.244 139.666Z" fill="#3D2624"/>
<path d="M241.827 88.436C242.983 75.3344 224.87 61.8452 203.29 58.3709C181.71 54.8966 183.267 31.8888 183.267 31.8888L140.155 56.6915C140.155 56.6915 138.17 77.2585 123.797 88.8236C109.424 100.389 106.955 127.741 113.7 138.531C120.445 149.321 132.384 150.089 150.979 148.933C169.574 147.778 178.175 148.743 198.857 150.477C219.54 152.211 234.267 156.909 246.817 134.003C259.368 111.097 241.827 88.436 241.827 88.436ZM240.093 87.3754C240.093 87.3754 237.877 80.9231 229.398 74.2737C224.593 70.4549 219.504 67.007 214.176 63.9597C240.576 72.2476 240.862 87.3686 240.862 87.3686L240.093 87.3754Z" fill="#3D2624"/>
<path d="M125.299 76.7418C125.299 76.7418 119.18 82.249 114.856 93.8072C110.532 105.366 101.367 141.21 101.367 141.21L116.161 150.436L130.439 111.342L125.299 76.7418Z" fill="#C56E5D"/>
<path d="M184.246 132.317C183.13 135.611 182.692 139.097 182.958 142.565C183.225 146.033 184.19 149.411 185.796 152.496L186.592 155.896L188.768 165.271C173.864 178.189 153.168 182.575 140.434 179.76C127.699 176.945 124.449 166.529 124.449 166.529L126.421 152.754L123.021 122.105C123.021 122.105 120.383 118.08 119.262 108.806C118.14 99.532 125.272 76.7078 125.272 76.7078L148.463 67.434L165.399 65.9994L193.608 76.7418L197.253 85.8796C197.124 90.9381 193.405 103.938 189.516 116.23C187.68 122.064 185.796 127.734 184.246 132.317Z" fill="#F7DBC6"/>
<path d="M165.563 67.536C162.911 72.3632 153.454 78.4144 149.633 77.0953C145.812 75.7763 148.905 68.9366 148.905 68.9366C148.939 67.9643 148.98 67.0736 149.007 66.251C149.177 60.8118 149.143 58.5001 149.143 58.5001L165.563 47.6217C165.174 49.7766 164.96 51.9594 164.923 54.1488C164.837 58.6204 165.051 63.0928 165.563 67.536V67.536Z" fill="#C56E5D"/>
<path d="M165.562 47.6421C165.174 49.797 164.96 51.9798 164.923 54.1691C163.04 56.9975 159.906 61.2265 156.642 63.5449C153.379 65.8634 150.523 66.3053 149.007 66.2645C149.177 60.8253 149.143 58.5137 149.143 58.5137L165.562 47.6421Z" fill="#AF5448"/>
<path d="M131.302 41.8834C131.302 41.8834 131.874 55.325 141.338 61.3829C150.802 67.4408 164.046 54.7606 166.324 47.7509C168.602 40.7411 167.833 25.6066 167.833 25.6066C167.833 25.6066 155.344 17.2778 145.88 17.2778C136.415 17.2778 131.302 22.0371 131.302 22.0371V41.8834Z" fill="#C56E5D"/>
<path d="M142.093 17.543C142.093 17.543 141.807 22.4859 150.931 28.2582C160.056 34.0305 164.944 35.2136 164.944 35.2136L166.868 45.8268C166.868 45.8268 165.542 49.1583 165.175 50.3685C164.767 51.6875 164.931 55.8893 164.931 55.8893C164.931 55.8893 172.566 54.7539 175.251 47.6421C177.692 45.6244 179.68 43.1152 181.085 40.2779C182.491 37.4406 183.283 34.3389 183.41 31.175C183.696 20.5753 178.209 17.2642 178.209 17.2642C178.209 17.2642 176.795 4.58413 162.782 2.40166C148.769 0.219183 137.626 8.08561 137.626 8.08561C137.626 8.08561 130.827 7.14055 127.121 11.961C123.416 16.7815 125.796 22.6558 125.796 22.6558C125.796 22.6558 122.573 25.7834 124.436 30.8962C124.989 32.3739 125.917 33.6826 127.128 34.6944C128.338 35.7062 129.791 36.3864 131.344 36.6685C131.344 36.6685 131.82 27.959 134.369 23.6077C136.919 19.2563 142.093 17.543 142.093 17.543Z" fill="#3D2624"/>
<path d="M165.563 36.7638C165.563 36.7638 167.364 32.3104 171.056 31.8413C174.748 31.3722 175.027 37.8992 172.471 42.2505C169.914 46.6019 166.351 45.752 166.351 45.752L165.563 36.7638Z" fill="#C56E5D"/>
<path d="M163.768 31.8276C163.768 31.8276 166.229 39.2385 164.808 45.1061C165.148 44.7489 165.455 44.3621 165.726 43.9502C166.916 42.2165 167.412 35.6419 167.942 33.3846L163.768 31.8276Z" fill="#3D2624"/>
<path d="M137.361 8.75871C139.599 5.80685 142.694 3.61713 146.222 2.48803C149.75 1.35893 153.541 1.34539 157.078 2.44925L158.023 2.38806C154.331 0.812028 150.211 0.548077 146.349 1.64017C140.169 3.52349 135.872 8.37797 135.872 8.37797L137.361 8.75871Z" fill="#3D2624"/>
<path d="M178.154 17.2778C179.263 17.5745 180.299 18.0973 181.197 18.8134C182.094 19.5294 182.834 20.4233 183.369 21.4388C185.314 24.9743 183.308 28.5642 183.308 28.5642L182.982 28.129C183.43 27.1136 183.63 26.0057 183.563 24.8975C183.497 23.7894 183.167 22.7132 182.601 21.7584C180.656 18.4269 178.154 18.6036 178.154 18.6036V17.2778Z" fill="#3D2624"/>
<path d="M132.485 34.4317C132.485 34.4317 132.88 33.5342 135.674 33.5886C137.309 33.6027 138.891 34.1761 140.155 35.2136C140.155 35.2136 138.87 32.8067 136.32 32.494C135.556 32.3451 134.765 32.4547 134.071 32.8056C133.376 33.1565 132.819 33.7286 132.485 34.4317V34.4317Z" fill="#3D2624"/>
<path d="M142.093 17.543C142.093 17.543 141.651 22.3907 144.493 26.3001C147.335 30.2095 155.718 30.2095 155.718 30.2095L156.058 30.9642C156.058 30.9642 147.77 31.0322 144.425 28.0678C141.08 25.1035 140.706 20.1402 141.338 17.543H142.093Z" fill="#3D2624"/>
<path d="M147.722 34.724C147.722 34.724 148.178 33.6906 151.407 33.7586C153.295 33.7729 155.12 34.4327 156.581 35.6283C156.581 35.6283 155.092 32.8475 152.155 32.46C151.27 32.2952 150.355 32.428 149.553 32.8375C148.751 33.2471 148.108 33.9104 147.722 34.724V34.724Z" fill="#3D2624"/>
<path d="M140.155 47.4722C140.765 47.9101 141.46 48.2158 142.195 48.3696C143.079 48.6546 144.03 48.6546 144.914 48.3696C144.723 48.072 144.469 47.8203 144.169 47.6322C143.869 47.4442 143.532 47.3246 143.181 47.2818C142.168 47.2 141.149 47.2641 140.155 47.4722V47.4722Z" fill="#913D37"/>
<path d="M140.155 35.2136C140.155 35.2136 141.052 36.1586 141.386 38.6131C141.584 40.0727 141.584 41.5524 141.386 43.012C141.386 43.012 140.257 36.587 140.155 35.2136Z" fill="#AF5448"/>
<path d="M132.839 37.9603C133.833 38.357 134.876 38.6177 135.94 38.7354C137.235 38.8119 138.535 38.6927 139.795 38.3819C139.795 38.3819 139.006 36.2538 137.17 35.7575C134.281 34.9756 132.839 37.9603 132.839 37.9603Z" fill="#AF5448"/>
<path d="M147.722 38.3071C147.722 38.3071 148.008 36.1246 150.802 35.6419C153.596 35.1592 156.921 38.0963 156.921 38.0963C156.921 38.0963 151.414 40.7208 147.722 38.3071Z" fill="#AF5448"/>
<path d="M136.395 38.7151C135.176 38.6656 133.973 38.4105 132.839 37.9604L132.486 38.1915C132.251 38.3084 131.998 38.3843 131.738 38.4159C132.168 38.592 132.638 38.6483 133.097 38.5791C134.088 39.1462 135.206 39.4526 136.347 39.4697C137.555 39.5542 138.762 39.2874 139.822 38.7015V38.3819C138.696 38.6231 137.546 38.7348 136.395 38.7151V38.7151Z" fill="#3D2624"/>
<path d="M156.894 38.1235C155.406 38.5526 153.872 38.8037 152.325 38.8714C150.809 38.8902 149.299 38.6816 147.845 38.2527L147.409 38.5247C147.117 38.6612 146.805 38.7529 146.485 38.7966C147.03 38.955 147.603 38.9921 148.164 38.9054C149.452 39.4555 150.844 39.72 152.243 39.6805C155.147 39.5921 156.037 38.9054 156.67 38.4907C156.778 38.4091 156.894 38.1235 156.894 38.1235Z" fill="#3D2624"/>
<path d="M140.155 51.7623C140.933 52.0315 141.734 52.2317 142.548 52.3606C144.458 52.7414 149.007 51.7623 149.007 51.7623C147.544 51.4987 146.065 51.3284 144.581 51.2524C143.941 51.2931 143.322 51.4993 142.786 51.8507C142.33 51.4683 141.789 51.2002 141.208 51.0688C140.629 51.1217 140.056 51.238 139.502 51.4156L140.155 51.7623Z" fill="#913D37"/>
<path d="M140.841 53.7612C141.808 54.3464 142.908 54.6741 144.037 54.713C145.383 54.6972 146.717 54.4512 147.98 53.9856C147.543 54.5238 147.001 54.968 146.388 55.2917C145.775 55.6153 145.102 55.8116 144.411 55.8689C141.984 56.1476 140.841 53.7612 140.841 53.7612Z" fill="#AF5448"/>
<path d="M117.609 174.906L125.768 157.466C125.768 157.466 131.207 163.171 147.736 163.748C164.264 164.326 186.606 155.936 186.606 155.936C186.606 155.936 192.323 170.69 192.323 176.177C192.323 181.664 159.688 203.373 159.688 203.373L140.325 201.932L117.609 174.906Z" fill="#525E7D"/>
<path d="M116.678 203.339C116.678 203.339 111.327 205.419 109.498 206.276C109.498 206.276 101.503 207.092 98.2935 208.037C95.0844 208.982 94.2753 213.286 93.4866 217.936C92.698 222.587 86.6876 228.815 84.8587 232.044C83.0298 235.274 83.8865 239.122 84.1448 239.917C84.4032 240.713 83.3425 243.426 84.6751 245.105C86.0077 246.784 86.7828 245.921 87.5239 245.499C88.265 245.078 88.4962 243.609 88.4962 243.609C89.4921 243.431 90.4522 243.091 91.3382 242.603C92.1064 242.005 91.3382 241.998 93.2283 241.379C94.6496 240.991 95.9898 240.35 97.1853 239.489C98.2527 238.707 104.277 228.25 108.118 224.898C111.959 221.547 118.874 220.384 118.874 220.384L116.678 203.339Z" fill="#C56E5D"/>
<path d="M221.403 222.131C208.349 225.422 180.017 227.734 154.616 229.236C128.454 230.786 105.412 231.48 105.412 231.48L101.53 219.174L98.1304 208.261L174.184 193.181C174.184 193.181 172.11 177.435 188.679 168.95C188.679 168.95 238.006 169.344 249.952 183.228C261.898 197.111 248.952 215.196 221.403 222.131Z" fill="#525E7D"/>
<path d="M147.158 217.807C147.158 217.807 152.502 219.888 154.338 220.744C154.338 220.744 162.333 221.56 165.536 222.505C168.738 223.45 169.561 227.754 170.342 232.398C171.124 237.041 177.141 243.276 178.97 246.512C180.799 249.749 179.943 253.583 179.65 254.379C179.358 255.174 180.453 257.887 179.127 259.567C177.801 261.246 177.019 260.382 176.271 259.968C175.523 259.553 175.299 258.071 175.299 258.071C174.328 257.88 173.394 257.536 172.532 257.051C171.757 256.453 172.532 256.439 170.642 255.827C169.221 255.437 167.881 254.797 166.685 253.937C165.617 253.155 159.586 242.691 155.752 239.346C151.917 236.001 144.989 234.825 144.989 234.825L147.158 217.807Z" fill="#C56E5D"/>
<path d="M121.791 171.846C121.791 171.846 56.7653 171.846 46.356 183.404C35.9468 194.963 41.7327 209.703 50.1158 214.618C58.499 219.534 146.356 239.183 146.356 239.183L150.979 212.307L138.02 208.261L144.955 198.967L121.791 171.846Z" fill="#525E7D"/>
<path d="M121.6 174.348C121.6 174.348 135.164 191.148 142.541 196.139C142.541 196.139 127.38 194.582 121.6 174.348Z" fill="#4F506B"/>
<path d="M69.187 188.898C69.187 188.898 80.4597 190.339 98.0895 194.099C115.719 197.859 138.02 208.261 138.02 208.261C138.02 208.261 115.141 192.624 97.226 188.898C79.3107 185.172 69.187 188.898 69.187 188.898Z" fill="#4F506B"/>
<path d="M132.071 204.468C132.071 204.468 184.505 188.83 206.472 185.247C206.472 185.247 160.028 199.205 138.02 208.261L132.071 204.468Z" fill="#4F506B"/>
<path d="M182.621 172.968C182.621 172.968 157.207 185.519 148.626 198.233C148.647 198.233 175.441 184.499 182.621 172.968Z" fill="#4F506B"/>
<path d="M116.161 150.436C116.161 150.436 111.844 139.932 101.72 139.836L61.5179 167.107C60.1811 166.453 58.7567 165.995 57.2889 165.747C53.665 165.067 46.5057 165.163 44.6564 164.823C43.7589 164.659 43.7113 165.108 44.0921 165.7C43.5006 165.455 42.5623 166.108 41.8348 167.182C40.6994 168.868 37.837 172.002 37.837 173.763C37.837 175.524 40.9509 177.285 42.8003 177.374C42.8003 177.374 36.484 178.971 35.3214 181.242C34.1588 183.513 37.2591 183.18 38.2653 182.677C39.2716 182.174 45.7442 180.406 45.7442 180.406C45.7442 180.406 39.3396 183.941 39.1764 186.382C39.0132 188.823 41.2161 187.395 43.215 186.382C45.2139 185.369 48.8582 183.52 48.8582 183.52C48.8582 183.52 43.6365 187.307 44.5612 188.993C45.4859 190.679 49.7828 186.831 53.2367 185.26C56.6906 183.69 59.3014 183.459 62.2114 182.323C64.7288 181.298 66.893 179.562 68.4392 177.326C75.6326 174.661 106.412 162.695 116.161 150.436ZM48.4434 173.335C45.581 174.348 42.3243 173.335 41.8756 172.832C41.4269 172.329 44.6564 169.378 44.6564 167.107C44.6632 166.819 44.6218 166.532 44.534 166.257C45.0484 166.789 45.657 167.22 46.3289 167.529C48.1103 168.283 51.9789 168.698 52.9919 169.29C54.005 169.881 51.3058 172.329 48.4434 173.335V173.335Z" fill="#C56E5D"/>
<path d="M248.572 115.87C248.572 115.87 252.229 127.054 249.727 135.383C247.225 143.712 237.639 145.582 237.639 145.582L239.175 143.651C239.175 143.651 248.619 142.06 249.149 129.108C249.619 117.611 248.572 115.87 248.572 115.87Z" fill="#3D2624"/>
<path d="M53.5493 169.16C55.6244 170.265 57.9242 170.881 60.2735 170.962C63.809 170.962 59.546 172.553 56.874 171.758C54.202 170.962 53.5493 169.16 53.5493 169.16Z" fill="#AF5448"/>
<path d="M64.6861 175.463C62.8563 175.65 61.0853 176.215 59.4849 177.122C56.4457 178.713 54.8616 182.758 54.0457 182.106C53.2298 181.453 55.4395 175.232 64.6861 175.463Z" fill="#AF5448"/>
<path d="M43.7452 177.272C43.7452 177.272 50.3878 182.643 51.1833 182.711C51.9788 182.779 48.4433 177.557 43.7452 177.272Z" fill="#AF5448"/>
<path d="M125.442 119.637C125.442 119.637 128.719 117.916 138.714 117.916C148.708 117.916 165.325 121.819 165.325 121.819C165.325 121.819 134.655 121.975 125.442 119.637Z" fill="#EFC9B6"/>
<path d="M185.803 152.68L186.599 156.079L172.437 160.505C172.437 160.505 179.643 143.1 179.507 129.774C179.372 116.448 183.716 99.8584 183.716 99.8584L189.529 116.414C187.687 122.247 185.803 127.918 184.253 132.5C183.14 135.795 182.704 139.281 182.97 142.748C183.236 146.216 184.2 149.594 185.803 152.68V152.68Z" fill="#EFC9B6"/>
<path d="M258.96 194.038C258.226 191.583 252.318 188.837 252.318 188.837C254.154 189.095 257.539 187.939 257.866 186.212C258.192 184.485 255.969 180.868 255.146 179.005C254.629 177.816 253.827 176.966 253.208 177.122C253.691 176.619 253.725 176.17 252.814 176.163C250.931 176.163 243.914 174.736 240.236 174.722C239.07 174.704 237.906 174.809 236.762 175.035L209.831 137.164C208.342 127.904 206.282 104.482 203.855 94.0996C200.679 80.5016 193.595 76.7418 193.595 76.7418C193.595 76.7418 184.817 81.9634 183.356 92.0735C181.894 102.184 194.785 147.451 194.785 147.451C199.36 160.322 223.47 180.902 226.828 184.744C228.233 186.91 230.103 188.735 232.302 190.088C234.953 191.74 237.476 192.454 240.576 194.643C243.676 196.832 247.178 201.442 248.402 199.926C249.625 198.41 245.199 193.746 245.199 193.746C245.199 193.746 248.415 196.241 250.21 197.607C252.005 198.974 253.895 200.796 254.181 198.362C254.466 195.928 248.843 191.264 248.843 191.264C248.843 191.264 254.888 194.208 255.785 194.895C256.683 195.581 259.695 196.486 258.96 194.038ZM247.524 183.839C244.9 182.316 242.704 179.413 243.812 179.019C244.92 178.625 248.796 178.937 250.679 178.523C251.399 178.353 252.078 178.043 252.678 177.612C252.548 177.866 252.456 178.139 252.406 178.421C251.985 180.658 254.582 184.152 254.072 184.54C253.562 184.927 250.149 185.342 247.524 183.812V183.839Z" fill="#C56E5D"/>
<path d="M242.956 179.359C240.884 180.468 238.586 181.086 236.238 181.167C232.696 181.167 236.959 182.752 239.597 181.956C242.235 181.161 242.956 179.359 242.956 179.359Z" fill="#AF5448"/>
<path d="M229.507 184.111C231.337 184.304 233.107 184.871 234.708 185.777C237.741 187.361 239.332 191.407 240.148 190.761C240.964 190.115 238.754 183.894 229.507 184.111Z" fill="#AF5448"/>
<path d="M249.632 187.79C249.632 187.79 242.99 193.161 242.194 193.229C241.399 193.297 244.934 188.075 249.632 187.79Z" fill="#AF5448"/>
<path d="M146.124 71.6629C146.124 71.6629 142.97 77.6732 147.981 79.3118C152.991 80.9503 161.579 75.2324 165.95 71.0374C165.95 71.0374 160.171 80.3248 150.809 81.807C141.447 83.2892 143.616 73.7094 146.124 71.6629Z" fill="#EFC9B6"/>
</svg>
