<svg width="305" height="253" viewBox="0 0 305 253" fill="none" xmlns="http://www.w3.org/2000/svg">
<rect x="305" y="200" width="14" height="305" transform="rotate(90 305 200)" fill="#CB8585"/>
<rect x="305" y="200" width="14" height="305" transform="rotate(90 305 200)" fill="#AD1818"/>
<path d="M228.562 130.299C256.697 36.946 200.275 14.5718 168.548 15.0538C119.927 19.4297 89.4382 47.6548 80.2716 61.2204C64.2432 78.8317 160.087 82.4571 154.048 121.862C146.499 171.118 74.7234 244.798 87.0724 247.227C99.4214 249.657 193.394 246.99 228.562 130.299Z" fill="#CAE8ED"/>
<path d="M189.781 117.257C193.759 120.187 202.925 128.001 208.843 121.078C210.788 118.803 226.699 86.9587 223.567 82.114C220.435 77.2693 212.782 83.0084 205.919 86.5705C199.056 90.1326 191.077 99.4436 189.534 103.433C187.99 107.422 184.809 113.595 189.781 117.257Z" fill="#476367"/>
<path d="M38.3913 85.4129C38.2074 85.392 38.0305 85.3304 37.8733 85.2328C37.7161 85.1351 37.5825 85.0037 37.4823 84.8481C37.3821 84.6925 37.3176 84.5166 37.2937 84.3331C37.2698 84.1496 37.2869 83.963 37.3439 83.7869C37.628 82.9003 38.3502 81.8426 40.0241 81.2573C42.1601 80.5213 44.5529 81.2573 45.2443 83.2735C45.7236 84.6701 44.9773 85.8819 43.8101 86.9362C43.3959 87.3196 43.5191 87.7235 43.6834 88.1924C43.7554 88.404 43.7408 88.6355 43.6426 88.8362C43.5445 89.037 43.3709 89.1907 43.1597 89.2639L42.4032 89.524C42.1912 89.5971 41.9589 89.583 41.7573 89.4847C41.5557 89.3865 41.4014 89.2123 41.3283 89.0003L41.0716 88.2438C40.8559 87.6174 40.7053 87.0936 41.2051 86.4604C41.8897 85.6046 42.6839 85.2828 42.3347 84.273C42.2862 84.118 42.2067 83.9744 42.1013 83.8509C41.9958 83.7273 41.8664 83.6264 41.7209 83.5541C41.5754 83.4818 41.4168 83.4397 41.2547 83.4303C41.0925 83.4209 40.9301 83.4444 40.7772 83.4994C40.5307 83.5814 40.3069 83.7202 40.1238 83.9045C39.9407 84.0888 39.8034 84.3135 39.7229 84.5605C39.6291 84.8316 39.4458 85.0627 39.2031 85.2158C38.9605 85.3688 38.673 85.4347 38.3879 85.4026L38.3913 85.4129ZM45.2375 91.2835C45.3422 91.6033 45.3504 91.9468 45.261 92.2712C45.1715 92.5955 44.9885 92.8864 44.7346 93.1073C44.4808 93.3282 44.1676 93.4694 43.8339 93.5132C43.5003 93.557 43.1612 93.5016 42.8589 93.3537C42.5567 93.2059 42.3047 92.9722 42.1345 92.682C41.9643 92.3917 41.8835 92.0577 41.902 91.7217C41.9206 91.3858 42.0378 91.0627 42.239 90.793C42.4401 90.5233 42.7163 90.3188 43.033 90.2052C43.2494 90.1253 43.4797 90.0899 43.71 90.1012C43.9404 90.1125 44.1661 90.1702 44.3736 90.2709C44.5811 90.3716 44.7661 90.5132 44.9175 90.6872C45.0689 90.8612 45.1836 91.0641 45.2546 91.2835H45.2375Z" fill="#AD1818"/>
<path d="M55.428 192.648C55.2192 191.378 54.5825 187.548 53.8123 183.306C52.8641 178.107 50.3447 171.527 50.3447 171.527L44.7822 175.902L51.4812 194.003C51.298 194.645 51.0062 195.251 50.6186 195.794C49.9887 196.543 49.7525 196.848 49.7525 196.848C50.5594 197.094 51.3924 197.243 52.2343 197.293C53.2612 197.293 55.9381 194.928 56.0579 194.496C56.1126 194.253 55.743 193.377 55.428 192.648Z" fill="#D88471"/>
<path d="M50.2933 196.17C49.8071 196.676 49.2818 197.143 48.7221 197.567C47.5412 198.512 47.1064 199.145 47.1064 199.539C47.1064 199.932 51.7173 200.073 52.6998 199.806C53.6822 199.539 56.561 196.622 56.8759 195.992C57.1909 195.362 55.7052 193.302 55.7052 193.302C55.4198 193.913 55.101 194.509 54.7502 195.085C54.3565 195.677 52.8949 196.328 52.0117 196.622C50.0024 197.3 50.2933 196.17 50.2933 196.17Z" fill="#5C5E68"/>
<path d="M41.3387 138.96C41.3387 138.96 40.8732 145.361 40.9759 154.022C41.0785 162.682 43.7896 171.527 43.7896 171.527L50.694 169.412L50.1771 138.947L41.3387 138.96Z" fill="#4F506B"/>
<path d="M44.8472 115.83C44.8472 115.83 41.6467 121.869 40.7395 124.193C39.8324 126.517 42.3552 129.468 42.3552 129.468L44.2242 127.702C44.2242 127.702 45.2614 117.85 44.8472 115.83Z" fill="#D88471"/>
<path d="M44.8473 115.83C44.8473 115.83 50.3687 112.787 54.9625 112.01C59.5563 111.233 61.0522 113.92 61.0522 113.92L57.8448 131.72L59.4536 138.947H41.3386L43.5054 128.677C43.5054 128.677 43.2453 119.863 44.8473 115.83Z" fill="#476367"/>
<path d="M44.0087 99.8858C44.0087 99.8858 44.0087 105.873 44.2791 107.56C44.5495 109.248 46.4699 110.675 48.3868 111.274C50.3037 111.873 53.6549 109.563 54.2471 108.218C54.8393 106.872 55.2741 100.297 55.2741 100.297C55.2741 100.297 46.5281 95.5795 44.0087 99.8858Z" fill="#FFA78C"/>
<path d="M48.9858 110.696C49.1668 111.989 49.1379 113.304 48.9003 114.588L54.2574 112.729L54.3841 107.831L48.9858 110.696Z" fill="#FFA78C"/>
<path d="M54.0759 103.802C54.0759 103.802 55.0275 101.964 56.2085 102.587C57.3895 103.21 56.8144 105.619 56.0442 106.437C55.274 107.256 54.1307 106.503 54.1307 106.503L54.0759 103.802Z" fill="#FFA78C"/>
<path d="M49.0612 111.38C49.0612 111.38 51.4573 110.98 52.9121 109.727C52.9121 109.727 51.2245 112.763 49.0885 113.15L49.0612 111.38Z" fill="#D88471"/>
<path d="M47.7227 98.7527C48.3644 99.9268 49.256 100.946 50.3345 101.738C52.2412 103.21 53.7062 103.34 53.7062 103.34C53.7062 103.34 53.1038 105.15 54.117 105.77C54.117 105.77 54.5175 102.275 55.9039 102.477C57.2902 102.679 56.7186 106.77 54.6099 106.725C54.2488 107.647 54.1539 108.651 54.3361 109.624C54.3361 109.624 58.5978 106.52 59.1695 102.248C59.7411 97.9757 56.7733 96.6989 56.7733 96.6989C56.7733 96.6989 55.7224 94.6142 52.1864 93.9604C48.6503 93.3066 46.8224 95.3297 46.8224 95.3297C46.8224 95.3297 45.0527 94.7546 43.5123 96.5346C43.0693 97.0042 42.766 97.5881 42.6366 98.2206C42.5072 98.8532 42.5568 99.5092 42.7798 100.115C42.7798 100.115 41.633 101.378 42.0678 102.874C42.5025 104.37 44.0839 104.712 44.0839 104.712C44.0839 104.712 44.3749 100.519 45.0424 99.3757C45.7099 98.2324 47.7227 98.7527 47.7227 98.7527Z" fill="#3D2624"/>
<path d="M47.0005 103.617C47.0005 103.617 47.1101 104.829 46.6308 105.578C46.1516 106.328 47.1785 106.674 47.1785 106.674" stroke="#BF6D60" stroke-linecap="round" stroke-linejoin="round"/>
<path d="M44.5153 102.196C44.5153 102.196 45.2204 101.347 46.0283 101.974" stroke="#3D2624" stroke-linecap="round" stroke-linejoin="round"/>
<path d="M48.7325 102.213C49.2863 102.489 49.8864 102.66 50.5023 102.717" stroke="#3D2624" stroke-linecap="round" stroke-linejoin="round"/>
<path d="M55.9382 103.545C55.5983 103.742 55.313 104.021 55.108 104.357C54.903 104.692 54.7848 105.073 54.764 105.465" stroke="#BF6D60" stroke-linecap="round" stroke-linejoin="round"/>
<path d="M60.4874 114.136C60.4874 114.136 62.086 114.341 62.5413 117.542C62.9966 120.743 59.9124 128.944 58.8512 130.704C57.0267 133.63 40.9758 131.234 40.9758 131.234L41.8521 127.671L54.7572 126.072C54.7572 126.072 56.4071 118.884 57.3895 116.265C58.372 113.646 60.4874 114.136 60.4874 114.136Z" fill="#FFA78C"/>
<path d="M55.4657 105.219C55.4858 105.075 55.4665 104.929 55.4098 104.796C55.3531 104.663 55.2612 104.547 55.1439 104.462" stroke="#BF6D60" stroke-linecap="round" stroke-linejoin="round"/>
<path d="M49.7937 104.247C49.7766 104.589 49.6089 104.846 49.4172 104.835C49.2255 104.825 49.0749 104.548 49.1057 104.212C49.1365 103.877 49.2905 103.613 49.4788 103.62C49.6671 103.627 49.8109 103.911 49.7937 104.247Z" fill="#3D2624"/>
<path d="M45.9051 104.052C45.888 104.394 45.7202 104.651 45.532 104.64C45.3437 104.63 45.1896 104.353 45.217 104.017C45.2444 103.682 45.4019 103.418 45.5902 103.429C45.7784 103.439 45.9222 103.716 45.9051 104.052Z" fill="#3D2624"/>
<path d="M47.0825 108.194C47.3374 108.118 47.6061 108.101 47.8683 108.145C48.1305 108.189 48.3793 108.292 48.5955 108.447" stroke="#BF6D60" stroke-linecap="round" stroke-linejoin="round"/>
<path d="M60.812 82.8766C61.2592 81.4814 60.4906 79.9878 59.0953 79.5406C57.7001 79.0935 56.2065 79.8621 55.7594 81.2573C55.3122 82.6526 56.0808 84.1461 57.476 84.5933C58.8713 85.0404 60.3648 84.2719 60.812 82.8766Z" fill="#476367"/>
<path d="M41.9685 112.637C41.9685 112.637 43.2522 111.011 43.7656 110.857C44.2791 110.703 46.0351 111.61 46.1618 111.884C46.2885 112.157 45.9804 112.644 45.9804 112.644C45.9804 112.644 45.9016 113.575 45.5936 113.729L45.2821 113.883C45.2821 113.883 44.7926 115.276 43.9402 115.509C43.9402 115.509 43.7588 117.135 42.7284 117.367L40.7396 115.69C40.9897 114.615 41.4042 113.585 41.9685 112.637Z" fill="#FFA78C"/>
<path d="M43.3755 111.257C43.7555 110.773 44.2081 110.35 44.7173 110.004C45.2993 109.71 46.8739 110.083 47.0416 110.316C47.2093 110.549 46.8739 110.703 46.268 110.658C45.6621 110.614 45.4533 110.583 45.4533 110.583L45.0151 111.38L43.3755 111.257Z" fill="#FFA78C"/>
<path d="M40.743 115.683C40.743 115.683 36.9776 125.953 37.0529 128.64C37.1282 131.327 38.8431 131.721 39.8735 131.666C40.9038 131.611 42.3107 130.081 42.9029 128.243C43.4951 126.404 42.9029 116.888 42.9029 116.888L40.743 115.683Z" fill="#FFA78C"/>
<path d="M54.9453 126.572C55.5336 127.175 56.0213 127.869 56.3899 128.626" stroke="#BF6D60" stroke-linecap="round" stroke-linejoin="round"/>
<path d="M41.835 117.361C42.0028 117.46 42.1963 117.506 42.3909 117.495C42.5854 117.483 42.7721 117.414 42.9269 117.296" stroke="#BF6D60" stroke-linecap="round" stroke-linejoin="round"/>
<path d="M43.9436 115.488C43.8515 115.441 43.7802 115.361 43.7435 115.264C43.7069 115.168 43.7074 115.061 43.7451 114.964L44.0087 114.362" stroke="#BF6D60" stroke-linecap="round" stroke-linejoin="round"/>
<path d="M44.245 113.291C44.245 113.291 45.1384 113.499 45.2719 113.876" stroke="#BF6D60" stroke-linecap="round" stroke-linejoin="round"/>
<path d="M44.6932 112.226C45.1591 112.201 45.6179 112.347 45.9837 112.637" stroke="#BF6D60" stroke-linecap="round" stroke-linejoin="round"/>
<path d="M49.9991 177.953L42.8106 178.322L40.3288 195.119C39.5586 195.462 38.7166 196.461 36.9263 197.156C35.5228 197.7 35.8685 197.937 35.557 198.495C35.4737 198.684 35.4321 198.89 35.4351 199.097C35.438 199.304 35.4855 199.509 35.5742 199.696H44.9979C45.1572 199.694 45.3094 199.63 45.422 199.518C45.5346 199.405 45.5986 199.253 45.6004 199.094C45.6004 198.139 45.6004 196.27 45.6004 195.202C45.7887 194.445 46.5452 191.467 47.6303 187.828C48.8866 183.587 49.9991 177.953 49.9991 177.953Z" fill="#FFA78C"/>
<path d="M38.785 196.205C38.785 196.205 39.4388 197.18 42.2081 197.009C44.9773 196.838 45.6311 196.205 45.6311 196.205C45.6311 196.205 45.9734 199.487 45.8297 199.813C45.6859 200.138 42.3552 199.953 41.8966 199.943C41.4379 199.932 35.314 200.227 34.554 199.943C33.7941 199.658 33.5784 199.107 33.8215 198.731C34.0645 198.354 37.7307 196.718 38.785 196.205Z" fill="#5C5E68"/>
<path d="M46.8396 114.831C46.8396 114.831 46.4973 115.803 49.6397 115.837C52.782 115.872 57.1704 112.637 57.1704 112.637L54.4833 112.431L48.8866 113.876L46.8396 114.831Z" fill="#FFA78C"/>
<path d="M57.4579 105.465C57.4579 105.465 57.6975 109.162 59.659 110.258C59.659 110.258 61.5519 110.36 62.0551 112.219C62.5583 114.078 60.5079 115.348 60.5079 115.348C60.5079 115.348 60.3333 117.586 57.5811 117.86C54.829 118.134 53.5214 114.489 53.5214 112.493C53.5214 110.497 55.9449 106.14 57.4579 105.465Z" fill="#3D2624"/>
<path d="M59.4502 138.96C59.4502 138.96 60.0047 144.297 57.5606 152.653C55.1165 161.008 50.5536 178.326 50.5536 178.326H41.9958L46.5554 144.078L45.9974 138.964L59.4502 138.96Z" fill="#525E7D"/>
<path d="M50.0778 141.459L46.552 144.074" stroke="#465069" stroke-linecap="round" stroke-linejoin="round"/>
<path d="M57.9885 139.474C57.9885 139.474 57.6941 146.662 56.2188 152.416C54.7434 158.171 49.441 176.809 49.441 176.809" stroke="#465069" stroke-linecap="round" stroke-linejoin="round"/>
<path d="M42.1943 176.809C42.1943 176.809 49.1124 176.994 50.954 176.809" stroke="#465069" stroke-linecap="round" stroke-linejoin="round"/>
<path d="M46.5006 115.683C46.5006 115.683 46.5417 116.402 48.8968 116.549C50.4741 116.6 52.0471 116.356 53.5351 115.831" stroke="#2D4649" stroke-linecap="round" stroke-linejoin="round"/>
<path d="M47.4318 97.6504C47.8846 99.0687 48.7044 100.342 49.8082 101.341C50.912 102.34 52.2603 103.03 53.7166 103.34" stroke="#3D2624" stroke-linecap="round" stroke-linejoin="round"/>
<path d="M55.3494 95.3398C55.3494 95.3398 57.6291 96.7844 58.461 98.4959" stroke="#004560" stroke-linecap="round" stroke-linejoin="round"/>
<path d="M41.9924 138.228C41.9924 138.228 49.8073 138.276 51.7859 138.228C53.7644 138.18 58.2658 138.31 58.2658 138.31" stroke="#2D4649" stroke-linecap="round" stroke-linejoin="round"/>
<path d="M61.997 93.8645C61.8083 93.7134 61.6556 93.5222 61.5498 93.3049C61.444 93.0876 61.3877 92.8495 61.3851 92.6078C61.3825 92.3662 61.4336 92.1269 61.5346 91.9073C61.6357 91.6878 61.7843 91.4934 61.9696 91.3382C62.9109 90.5646 64.4376 89.8903 66.69 90.4174C69.5654 91.102 71.6946 93.5735 71.0613 96.2778C70.6197 98.157 68.9493 98.9786 66.9262 99.3346C66.2039 99.4681 66.0602 100.002 65.8993 100.632C65.8325 100.917 65.6551 101.165 65.4061 101.319C65.157 101.474 64.8567 101.524 64.5711 101.457L63.5442 101.217C63.2594 101.15 63.0127 100.974 62.8581 100.725C62.7035 100.477 62.6536 100.178 62.7192 99.8925L62.9589 98.8656C63.1574 98.0201 63.3559 97.3389 64.3521 96.9863C65.6939 96.5139 66.803 96.7125 67.1213 95.3501C67.1757 95.145 67.1879 94.9309 67.1572 94.721C67.1266 94.511 67.0537 94.3094 66.9431 94.1283C66.8324 93.9473 66.6862 93.7905 66.5133 93.6675C66.3403 93.5445 66.1443 93.4578 65.9369 93.4126C65.607 93.3316 65.2627 93.329 64.9315 93.4051C64.6004 93.4812 64.2917 93.6338 64.0303 93.8508C63.7389 94.0841 63.3767 94.2112 63.0034 94.2112C62.63 94.2112 62.2679 94.0841 61.9764 93.8508L61.997 93.8645ZM65.5056 105.13C65.3993 105.562 65.1679 105.952 64.8403 106.253C64.5127 106.553 64.1036 106.75 63.6644 106.819C63.2252 106.888 62.7755 106.825 62.3717 106.639C61.9679 106.454 61.628 106.152 61.3948 105.774C61.1616 105.395 61.0454 104.957 61.0608 104.512C61.0762 104.068 61.2226 103.638 61.4815 103.277C61.7404 102.915 62.1003 102.639 62.516 102.481C62.9317 102.323 63.3847 102.292 63.8181 102.391C64.1102 102.458 64.3861 102.582 64.6297 102.756C64.8734 102.93 65.0798 103.151 65.237 103.406C65.3941 103.661 65.4988 103.945 65.5449 104.241C65.5911 104.537 65.5777 104.839 65.5056 105.13Z" fill="#AD1818"/>
<path d="M205.185 93.2894C205.185 93.2894 203.942 99.1806 204.675 102.48C205.407 105.78 207.779 105.38 208.142 105.274C208.505 105.168 208.827 104.202 208.827 104.202C208.979 104.461 209.199 104.674 209.464 104.817C209.728 104.961 210.026 105.03 210.326 105.017C211.078 104.931 211.802 104.686 212.452 104.298C212.452 104.298 215.718 105.068 217.631 104.64C219.545 104.213 219.818 103.398 219.818 103.398C219.818 103.398 220.948 103.915 222.239 102.775C223.529 101.635 221.718 97.0446 221.02 95.2269C220.322 93.4092 205.185 93.2894 205.185 93.2894Z" fill="#3D2624"/>
<path d="M211.5 189.649L211.915 194.414L215.745 193.843V189.495L211.5 189.649Z" fill="#FFA78C"/>
<path d="M227.082 189.495L228.167 193.791H231.638L231.224 189.495H227.082Z" fill="#FFA78C"/>
<path d="M215.745 193.274C215.745 193.274 218.798 197.156 220.25 198.036C221.701 198.916 221.023 199.747 220.455 199.953C219.887 200.158 218.244 200.025 215.122 199.953C214.845 199.953 212.726 199.741 211.641 199.583C211.555 199.571 211.472 199.541 211.398 199.496C211.323 199.452 211.258 199.392 211.207 199.322C211.156 199.252 211.119 199.173 211.099 199.088C211.079 199.004 211.076 198.916 211.09 198.83L211.863 193.959L215.177 193.374L215.745 193.274Z" fill="#AD1818"/>
<path d="M227.911 192.768L227.428 198.69C227.418 198.806 227.455 198.921 227.53 199.01C227.605 199.099 227.712 199.155 227.828 199.165C229.157 199.292 233.11 199.669 233.617 199.669C234.23 199.669 237.355 199.669 238.033 199.278C238.71 198.888 238.508 198.193 238.033 197.728C237.557 197.262 234.907 195.783 234.907 195.783L231.525 192.624L227.911 192.768Z" fill="#AD1818"/>
<path d="M222.341 108.734C222.341 108.734 219.798 105.958 213.684 105.958C209.026 105.958 205.024 109.255 205.024 109.255L208.361 124.864L206.753 132.09H224.871L223.159 123.899C223.159 123.899 224.994 113.092 222.341 108.734Z" fill="#F7DBC6"/>
<path d="M219.877 91.7046C219.877 91.7046 220.962 97.5923 220.999 99.3004C221.037 101.009 219.404 102.758 217.624 103.696C215.844 104.634 212.147 102.953 211.309 101.748C210.47 100.543 208.878 94.1418 208.878 94.1418C208.878 94.1418 216.611 87.9255 219.877 91.7046Z" fill="#FFA78C"/>
<path d="M216.933 103.23C216.988 104.535 217.254 105.823 217.72 107.043L212.117 106.184L211.09 101.392L216.933 103.23Z" fill="#FFA78C"/>
<path d="M210.686 97.373C210.686 97.373 209.416 95.7368 208.365 96.5618C207.314 97.3867 208.317 99.6425 209.224 100.327C210.131 101.012 211.117 100.046 211.117 100.046L210.686 97.373Z" fill="#FFA78C"/>
<path d="M216.998 103.911C216.998 103.911 214.564 103.952 212.89 102.98C212.89 102.98 215.101 105.66 217.268 105.64L216.998 103.911Z" fill="#D88471"/>
<path d="M217.453 91.0268C217.453 91.0268 217.751 93.108 214.827 94.4875C212.65 95.5144 212.089 96.6235 212.089 96.6235C212.089 96.6235 212.657 98.715 210.994 99.3175C210.994 99.3175 209.967 95.9526 208.639 96.401C207.31 96.8494 208.615 100.769 210.692 100.348C211.213 101.189 211.487 102.159 211.483 103.148C211.483 103.148 206.728 100.861 205.393 96.7639C204.058 92.6664 206.763 90.8762 206.763 90.8762C206.763 90.8762 207.42 88.6306 210.781 87.3572C214.143 86.0838 217.939 86.854 219.777 88.326C220.298 88.7089 220.701 89.2289 220.943 89.828C221.185 90.427 221.255 91.0814 221.147 91.7182C221.147 91.7182 222.499 92.7452 222.345 94.3027C222.191 95.8602 220.691 96.4729 220.691 96.4729C220.691 96.4729 219.664 92.4029 218.785 91.3965C217.905 90.3901 217.453 91.0268 217.453 91.0268Z" fill="#3D2624"/>
<path d="M217.611 95.9149C217.611 95.9149 217.72 97.1267 218.326 97.7771C218.932 98.4275 217.984 98.9512 217.984 98.9512" stroke="#BF6D60" stroke-linecap="round" stroke-linejoin="round"/>
<path d="M219.798 94.0664C219.798 94.0664 218.949 93.3612 218.271 94.1246" stroke="#3D2624" stroke-linecap="round" stroke-linejoin="round"/>
<path d="M215.653 94.8469C215.157 95.2176 214.598 95.4938 214.003 95.6616" stroke="#3D2624" stroke-linecap="round" stroke-linejoin="round"/>
<path d="M208.806 97.4553C209.176 97.589 209.507 97.8127 209.769 98.1061C210.03 98.3995 210.215 98.7535 210.306 99.1361" stroke="#BF6D60" stroke-linecap="round" stroke-linejoin="round"/>
<path d="M209.57 98.9991C209.524 98.8626 209.516 98.7161 209.548 98.5756C209.579 98.435 209.648 98.3057 209.748 98.2015" stroke="#BF6D60" stroke-linecap="round" stroke-linejoin="round"/>
<path d="M214.975 97.0377C215.054 97.38 215.266 97.5922 215.451 97.5512C215.635 97.5101 215.724 97.2089 215.646 96.8665C215.567 96.5242 215.358 96.3086 215.173 96.3531C214.988 96.3976 214.899 96.7091 214.975 97.0377Z" fill="#3D2624"/>
<path d="M218.764 96.1443C218.843 96.4695 219.055 96.6988 219.24 96.6577C219.425 96.6167 219.514 96.3154 219.435 95.9731C219.356 95.6308 219.147 95.4152 218.963 95.4597C218.778 95.5042 218.689 95.8157 218.764 96.1443Z" fill="#3D2624"/>
<path d="M218.367 100.427C218.103 100.398 217.835 100.43 217.586 100.521C217.336 100.612 217.11 100.759 216.926 100.95" stroke="#BF6D60" stroke-linecap="round" stroke-linejoin="round"/>
<path d="M234.113 106.783C233.312 104.219 228.236 94.662 228.236 94.662C227.806 93.648 227.222 92.7068 226.504 91.8722C226.504 91.8722 225.09 90.6125 224.501 90.4482C224.153 90.1604 223.761 89.9294 223.341 89.7635C222.718 89.5719 221.232 90.212 221.105 90.4687C220.979 90.7254 221.338 90.811 221.927 90.6672C222.516 90.5235 222.714 90.4516 222.714 90.4516L223.166 91.013C222.804 91.2309 222.489 91.5182 222.238 91.8585C222.16 92.146 222.55 92.5739 222.55 92.5739C222.55 92.5739 222.786 93.4742 223.118 93.5734L223.461 93.6727C223.461 93.6727 224.186 94.9598 225.063 95.0419C225.063 95.0419 225.463 96.4112 226.374 96.6337C226.572 98.3213 227.346 104.63 228.085 106.865L224.871 107.516C225.059 108.789 226.548 113.677 226.548 113.677C228.017 113.465 235.229 110.394 234.113 106.783Z" fill="#FFA78C"/>
<path d="M230.235 169.152C230.235 169.152 229.283 142.873 224.871 132.09H206.752C206.752 132.09 204.894 137.16 205.298 147.72C205.623 156.206 207.735 165.592 208.553 168.943C208.467 172.26 208.485 181.533 210.983 189.862H216.262L215.95 170.23L217.47 145.697L222.091 167.68H222.071C222.071 167.68 222.786 181.201 226.979 189.865H231.638L230.235 169.152Z" fill="#5C5E68"/>
<path d="M227.442 96.5002C227.294 96.6275 227.111 96.7076 226.917 96.7302C226.723 96.7527 226.527 96.7168 226.353 96.6269" stroke="#EF957A" stroke-linecap="round" stroke-linejoin="round"/>
<path d="M208.553 132.621C208.553 132.621 206.376 141.421 207.098 150.017C207.625 155.719 208.472 161.388 209.635 166.995" stroke="#004560" stroke-linecap="round" stroke-linejoin="round"/>
<path d="M225.042 95.0351C225.125 94.9728 225.182 94.8819 225.201 94.78C225.221 94.6781 225.202 94.5726 225.148 94.484L224.785 93.9363" stroke="#EF957A" stroke-linecap="round" stroke-linejoin="round"/>
<path d="M224.364 92.8958C224.364 92.8958 223.519 93.2381 223.44 93.6523" stroke="#EF957A" stroke-linecap="round" stroke-linejoin="round"/>
<path d="M223.741 91.9373C223.277 91.9934 222.85 92.2175 222.54 92.5671" stroke="#EF957A" stroke-linecap="round" stroke-linejoin="round"/>
<path d="M219.1 106.831L225.299 107.043L226.897 113.677C226.897 113.677 224.364 115.156 222.218 115.105C219.024 115.029 219.1 106.831 219.1 106.831Z" fill="#F7DBC6"/>
<path d="M212.472 134.407C212.472 134.407 212.921 134.568 213.311 134.671C213.701 134.774 214.146 134.794 213.961 134.366C213.777 133.939 212.739 133.405 211.675 133.569C210.61 133.733 210.268 133.829 210.268 133.829L208.375 134.034L202.713 126.076L204.675 120.89L199.595 117.261C198.398 119.982 197.415 122.792 196.654 125.665C195.593 129.913 205.897 136.557 205.897 136.557C206.441 137.077 207.121 137.432 207.858 137.584C208.704 137.731 209.568 137.743 210.419 137.622H210.439L210.532 137.605L210.689 137.581L211.921 137.379C211.921 137.379 212.373 137.543 212.76 137.646C213.147 137.748 213.599 137.766 213.414 137.338C213.253 136.965 212.445 136.516 211.538 136.513L212.181 136.407C212.181 136.407 212.63 136.571 213.02 136.67C213.41 136.769 213.855 136.793 213.674 136.365C213.492 135.938 212.483 135.428 211.442 135.564L212.363 135.414C212.363 135.414 212.811 135.575 213.202 135.677C213.592 135.78 214.037 135.801 213.855 135.373C213.674 134.945 212.63 134.411 211.565 134.575C211.189 134.633 210.901 134.685 210.689 134.722V134.688L212.472 134.407Z" fill="#FFA78C"/>
<path d="M205.017 109.255C205.017 109.255 200.841 112.335 199.198 117.552L205.277 121.434C205.277 121.434 207.93 117.641 208.786 114.821C209.642 112 206.828 108.608 205.017 109.255Z" fill="#F7DBC6"/>
<path d="M208.468 107.187C208.468 107.187 210.703 108.601 214.413 108.498C218.124 108.395 219.1 106.831 219.1 106.831L217.426 106.215L212.014 105.691L208.468 107.187Z" fill="#FFA78C"/>
<path d="M207.088 118.569C207.83 116.867 208.292 115.057 208.457 113.208" stroke="#E7C7AF" stroke-linecap="round" stroke-linejoin="round"/>
<path d="M222.218 109.522C222.218 109.522 224.036 113.39 223.902 114.892" stroke="#E7C7AF" stroke-linecap="round" stroke-linejoin="round"/>
<path d="M221.698 123.303L217.611 124.234" stroke="#E7C7AF" stroke-linecap="round" stroke-linejoin="round"/>
<path d="M209.515 124.857L210.306 125.309L209.515 125.679" stroke="#E7C7AF" stroke-linecap="round" stroke-linejoin="round"/>
<path d="M208.964 108.502C208.964 108.502 213.215 109.956 216.183 109.186C219.151 108.416 219.798 107.416 219.798 107.416" stroke="#E7C7AF" stroke-linecap="round" stroke-linejoin="round"/>
<path d="M202.713 126.076C201.917 126.619 200.994 126.948 200.033 127.031" stroke="#EF957A" stroke-linecap="round" stroke-linejoin="round"/>
<path d="M228.061 106.859C229.042 107.276 230.057 107.608 231.094 107.851" stroke="#EF957A" stroke-linecap="round" stroke-linejoin="round"/>
<path d="M212.548 169.118C213.006 169.375 213.523 169.511 214.049 169.511C214.575 169.511 215.092 169.375 215.55 169.118" stroke="#004560" stroke-linecap="round" stroke-linejoin="round"/>
<path d="M229.567 168.601C229.567 168.601 227.599 168.858 226.617 167.978" stroke="#004560" stroke-linecap="round" stroke-linejoin="round"/>
<path d="M222.091 167.687L223.82 168.306" stroke="#004560" stroke-linecap="round" stroke-linejoin="round"/>
<path d="M208.553 168.95L209.635 169.946" stroke="#004560" stroke-linecap="round" stroke-linejoin="round"/>
<path d="M217.47 145.704C217.47 145.704 217.867 141.733 219.007 140.281C219.7 139.408 220.636 138.76 221.698 138.419" stroke="#004560" stroke-linecap="round" stroke-linejoin="round"/>
<path d="M211.155 198.419C211.155 198.419 213.287 198.703 216.238 198.885C217.719 199.005 219.207 199.005 220.688 198.885" stroke="#004560" stroke-linecap="round" stroke-linejoin="round"/>
<path d="M227.609 198.289C227.609 198.289 232.658 198.734 234.572 198.693C235.723 198.67 236.87 198.535 237.995 198.289" stroke="#004560" stroke-linecap="round" stroke-linejoin="round"/>
<path d="M212.548 189.868C212.548 189.868 208.875 176.936 209.649 171.551" stroke="#004560" stroke-linecap="round" stroke-linejoin="round"/>
<path d="M218.439 142.062C218.439 142.062 222.868 164.719 222.954 166.995" stroke="#004560" stroke-linecap="round" stroke-linejoin="round"/>
<path d="M223.82 169.508C223.82 169.508 224.337 183.857 228.092 189.868" stroke="#004560" stroke-linecap="round" stroke-linejoin="round"/>
<path d="M237.69 71.2002H223.947C223.184 71.2002 222.453 71.5031 221.913 72.0424C221.374 72.5816 221.071 73.313 221.071 74.0756V84.629C221.071 85.3919 221.374 86.1236 221.913 86.6634C222.452 87.2032 223.184 87.5069 223.947 87.5078H228.475L228.013 89.5034C227.986 89.6289 227.997 89.7595 228.044 89.8788C228.091 89.9981 228.173 90.1009 228.278 90.174C228.384 90.2472 228.508 90.2876 228.637 90.2901C228.765 90.2926 228.891 90.2571 228.999 90.1881L233.107 87.5009H237.69C238.453 87.5 239.185 87.1963 239.724 86.6565C240.263 86.1168 240.566 85.385 240.566 84.6221V74.0687C240.564 73.3073 240.26 72.5777 239.721 72.04C239.182 71.5022 238.452 71.2002 237.69 71.2002Z" fill="#AD1818"/>
<path d="M227.753 76.1226C227.587 76.0411 227.441 75.9238 227.326 75.7792C227.211 75.6346 227.129 75.4663 227.086 75.2863C227.044 75.1063 227.042 74.9192 227.08 74.7382C227.118 74.5573 227.196 74.3871 227.308 74.2399C227.883 73.504 228.91 72.744 230.68 72.7611C232.943 72.7851 234.945 74.281 234.925 76.4067C234.925 77.8821 233.802 78.7755 232.35 79.3814C231.834 79.6005 231.816 80.0249 231.81 80.5213C231.809 80.6323 231.787 80.7421 231.743 80.8444C231.7 80.9466 231.637 81.0393 231.558 81.117C231.479 81.1947 231.385 81.2559 231.282 81.297C231.178 81.3381 231.068 81.3583 230.957 81.3565H230.16C230.047 81.3561 229.936 81.3331 229.832 81.2889C229.728 81.2447 229.635 81.1801 229.557 81.0991C229.478 81.018 229.417 80.922 229.377 80.8169C229.336 80.7118 229.317 80.5996 229.321 80.4871V79.6895C229.321 79.0254 229.362 78.4811 230.047 78.0532C230.971 77.4713 231.83 77.4371 231.84 76.3657C231.847 76.2035 231.82 76.0417 231.762 75.89C231.704 75.7384 231.616 75.6001 231.503 75.4836C231.39 75.3671 231.255 75.2747 231.105 75.2122C230.955 75.1496 230.794 75.1181 230.632 75.1197C230.373 75.1168 230.116 75.1752 229.884 75.29C229.651 75.4048 229.449 75.5728 229.294 75.7803C229.114 76.0038 228.863 76.1594 228.583 76.2216C228.303 76.2838 228.011 76.2489 227.753 76.1226ZM232.261 83.9478C232.254 84.2846 232.147 84.6117 231.955 84.8882C231.762 85.1647 231.492 85.3782 231.179 85.502C230.866 85.6257 230.523 85.6543 230.193 85.5841C229.864 85.5139 229.563 85.3479 229.327 85.1071C229.091 84.8664 228.932 84.5614 228.869 84.2304C228.806 83.8995 228.842 83.5573 228.973 83.2468C229.103 82.9362 229.322 82.6711 229.603 82.4846C229.884 82.2982 230.213 82.1987 230.55 82.1986C230.777 82.1986 231.002 82.2437 231.211 82.3315C231.421 82.4192 231.611 82.5477 231.77 82.7095C231.929 82.8714 232.055 83.0633 232.139 83.2741C232.223 83.485 232.265 83.7105 232.261 83.9375V83.9478Z" fill="white"/>
</svg>
