<svg xmlns="http://www.w3.org/2000/svg" viewBox="0 0 750 500"><defs><style>.cls-1{fill:#fff;}.cls-2{fill:#ffefdf;}.cls-3{fill:#ff9400;}.cls-4{fill:#ffa78c;}.cls-5{fill:#00557f;}.cls-6{fill:#d88471;}.cls-7{fill:#ffd07f;}.cls-10,.cls-11,.cls-8,.cls-9{fill:none;stroke-linecap:round;stroke-linejoin:round;}.cls-8{stroke:#00557f;}.cls-9{stroke:#bf6d60;}.cls-10{stroke:#004560;}.cls-11{stroke:#00415b;}.cls-12{fill:#f2bd70;}.cls-13{fill:#fffbdc;}.cls-14{fill:#004560;}</style></defs><g id="BACKGROUND"><rect class="cls-1" width="750" height="500"/></g><g id="OBJECT"><path class="cls-2" d="M73.67,200.75c30.81-38.39,69.74-57.08,153.18-61s103.48,59.49,238.78,46.45,206.3-9.2,231.88,27.45,37.14,157.2-163.43,140.63-264.58-47.42-356-30.7S49.36,334.71,40.36,307.92,59.11,218.89,73.67,200.75Z"/><path class="cls-2" d="M63.86,412.12s136.26-1.44,309.77,0,296.72,1.51,317.06,13.05,11.56,32.12-95.9,27-168.17-21.57-232.32-12.07S243.55,438.55,192,438.92,66.25,445.47,42.33,434,43.52,412.3,63.86,412.12Z"/><path class="cls-3" d="M349.16,89.22H299.64a8.53,8.53,0,0,0-8.53,8.53V132a8.53,8.53,0,0,0,8.53,8.53h6c-1.57,4.47-3.38,10.57-1.84,11.25,1.74.78,9.72-6.76,14.26-11.25h31.14a8.52,8.52,0,0,0,8.52-8.53V97.75A8.52,8.52,0,0,0,349.16,89.22Z"/><path class="cls-1" d="M313.05,104.52a4,4,0,0,1-1.22-6c1.89-2.27,5.21-4.58,10.81-4.36,7.16.29,13.37,5.22,13.1,12-.18,4.68-3.78,7.4-8.44,9.18-1.65.65-1.75,2-1.81,3.56h0a2.68,2.68,0,0,1-2.78,2.56l-2.53-.1a2.67,2.67,0,0,1-2.57-2.78l.1-2.53c.08-2.1.25-3.81,2.45-5.11,3-1.74,5.71-1.78,5.85-5.17a3.8,3.8,0,0,0-3.71-4.06,5.25,5.25,0,0,0-4.34,1.91,4,4,0,0,1-4.91,1Zm13.53,25.22a5.47,5.47,0,1,1-5.27-5.7A5.46,5.46,0,0,1,326.58,129.74Z"/><polygon class="cls-4" points="292 403.33 295.79 418.29 300.84 419.41 309.69 418.29 306.44 403.33 292 403.33"/><path class="cls-5" d="M294.87,417.59s.73,9.9,1.23,11.45,1.47,1.38,1.47,1.38a89.87,89.87,0,0,0,9.22,2.22c3.71.58,8.21,1.55,12.62,1.35s6.11-.77,6.11-2.22-.5-4.24-5.91-7.52-8.51-5.4-8.51-5.4a6.1,6.1,0,0,0-2.91-2.42c-1.9-.67-6.34,2-7.48,2.32S296.17,416.53,294.87,417.59Z"/><polygon class="cls-4" points="239.97 405.2 239.97 416.82 247.81 419.05 252.89 416.82 252.89 405.2 239.97 405.2"/><path class="cls-5" d="M238.68,416.82a68.94,68.94,0,0,1-9.33,7.18c-5.74,3.73-5.88,4.59-5.6,6.89s14.21,1.58,19.52.72,7.47-1.29,7.47-1.29l3.59-1.15L252.89,416a28.94,28.94,0,0,1-4.75,1.26c-1.46.11-4.74-2.48-6.89-3S238.65,416.11,238.68,416.82Z"/><path class="cls-4" d="M345.07,161c-1.1.19-2.7,2.28-3.56,3.49l-.51-.08c1.26-1.93,4.19-5.12,2.2-4.65-1.79.43-3.49,3.23-4.11,4.36l-.65-.1c1.23-2.07,4.58-5.82,2.43-5.28-2,.5-3.88,4-4.41,5l-.37-.05c1.16-2,2.8-4.53,1.18-4-1.8.63-3.27,4-3.69,5-1,1-2.06,2.2-2.78,3-.62-2.47-2.23-5.51-3-5.32s.1,3.12.26,5.11a12.88,12.88,0,0,0,1.11,3.75c-2.5,5-10.14,17-14.14,25.83l-11-11.44L288,195.14s17.84,23.4,24.9,22.32c15.7-2.39,23.59-35.84,25.27-43.9h0l5-8.45h0S346.63,160.75,345.07,161Z"/><path class="cls-4" d="M266.41,166l-6,5.81L250,168a26.54,26.54,0,0,0,.08-4.94c-.07-1-.17-1.88-.28-2.66-.25-1.78-.54-3-.54-3l15.62-.74a10.45,10.45,0,0,0-.1,2,16.59,16.59,0,0,0,.26,2.34A29.55,29.55,0,0,0,266.41,166Z"/><path class="cls-6" d="M265.08,161c-1.76,1.55-4.89,4.05-7,4.19s-5.83-1.3-7.95-2.21c-.07-1-.17-1.88-.28-2.66a13.53,13.53,0,0,0,8,1.28,19,19,0,0,0,7-2.94A16.59,16.59,0,0,0,265.08,161Z"/><path class="cls-4" d="M235.92,131.59s2.29,15.36,4,20.6,11,9.68,17.47,9.77c5.51.07,13.33-7.92,14.58-12.45s-.47-24.75-.47-24.75S247.37,105.13,235.92,131.59Z"/><path class="cls-5" d="M249.72,140.38c.13,1-.23,1.94-.82,2s-1.17-.7-1.31-1.73.24-1.94.82-2S249.58,139.35,249.72,140.38Z"/><path class="cls-5" d="M263.06,138.58c.1,1-.3,1.92-.89,2s-1.14-.74-1.24-1.78.3-1.93.89-2S263,137.54,263.06,138.58Z"/><path class="cls-4" d="M238.86,140.87s-3.75-3.58-5.88-2.22-1,6.65,1.87,9.37,5.11,1.37,5.11,1.37Z"/><path class="cls-4" d="M270.9,136.61s2.84-4.34,5.22-3.5,2.5,6.24.3,9.56-4.67,2.49-4.67,2.49Z"/><path class="cls-5" d="M237.26,139.89l1.45,5.36s3.44-1.26,2.14-12.88c0,0,7-1.07,9.13-4.39,0,0,5.81,1.41,9.25.83a14.73,14.73,0,0,0,6.29-3.08s.24,8.49,3.91,9.76c0,0,0,5.36,1.95,5.93,0,0,.4-7.46,3.44-8.31,0,0,2.2-7,1.49-9.28a4.55,4.55,0,0,0-3-2.85s-.94-12.15-19.81-9.48c-18.19,2.57-20.72,12.21-21.27,13.87-.79,2.37.39,4.71.63,7.64a18.51,18.51,0,0,0,1.31,5.34Z"/><polygon class="cls-7" points="310.59 406.21 290.06 406.21 265.52 280.05 262.94 280.2 257.85 406.21 236.74 406.21 236.15 337.86 235.99 319.34 235.38 249.18 288.99 249.18 298.53 318.55 301.11 337.23 310.59 406.21"/><path class="cls-4" d="M242.81,268.18c2.15.54,2.8-.48,2.31-1.07s-4.69-2.65-5.71-3.82L236,259.41a31.1,31.1,0,0,0,4.17,0c2.09-.16,3.61-1.45.54-1.78-2.24-.23-5.49-.7-7.1-.93l-.55-.63L223,234.26l10-29.57L217,196.77s-11.2,30.6-12.34,37.49,23,31.57,23,31.57v0a32.09,32.09,0,0,0,3.43,5.87c2.27,2.8,4.12,3.1,4.12,3.1h0a6.07,6.07,0,0,0,1.43.61c2.15.54,2.8-.48,2.31-1.07a20,20,0,0,0-2.83-1.8l.22-.54a12.74,12.74,0,0,0,3.8,2.17c2.15.54,2.8-.48,2.31-1.07s-3.72-2.17-5.21-3.35l.33-.82a14.53,14.53,0,0,0,4.29,2.56c2.15.53,2.8-.49,2.31-1.08s-4.6-2.61-5.67-3.78l.31-.77A13.62,13.62,0,0,0,242.81,268.18Z"/><path class="cls-5" d="M250.17,163.91l-24.91,11.57,7.8,50.45,2.32,23.25H289l1.08-25V168l-24.25-3.81s-2.24,4.89-7,5.52S250.17,163.91,250.17,163.91Z"/><path class="cls-5" d="M225.26,175.48s-9.69,15.74-12.27,22.9c0,0,10,6,19.95,6.31C232.94,204.69,233.8,183,225.26,175.48Z"/><path class="cls-5" d="M290,168s12.36,11.33,17.69,16.77a104.38,104.38,0,0,1-17.65,14.28S285.41,178.45,290,168Z"/><path class="cls-8" d="M244,135.41s4,0,5.72-1.76"/><path class="cls-8" d="M265.22,132.51s-3-.77-4.73,0"/><path class="cls-9" d="M254.84,138.34s.77,4.09.39,4.7a1.44,1.44,0,0,0-1,1.83,2,2,0,0,0,1.76,1.6"/><path class="cls-1" d="M253.7,150.67s4.5-1.45,6.79,0-5.34,2.44-6.79,2.44S252.33,151.43,253.7,150.67Z"/><path class="cls-9" d="M275.73,136.61a10,10,0,0,0-2.86,5.38"/><path class="cls-9" d="M275.28,141.36a5.86,5.86,0,0,0-1.17-2.68"/><path class="cls-9" d="M233.9,141.24a10.46,10.46,0,0,1,3.89,5.23"/><path class="cls-9" d="M235.15,145.77a6.86,6.86,0,0,1,.69-2.76"/><path class="cls-10" d="M228.82,180.33s-.35,15.87.91,24.08"/><path class="cls-10" d="M288.18,176.13s2.66,15.48,1.76,22.38"/><path class="cls-10" d="M249.3,169.24a13.06,13.06,0,0,0,9.46,3.15c5.74-.43,7.65-3.15,7.65-3.15"/><path class="cls-9" d="M222,234.4s-3-.14-5.75,0"/><path class="cls-9" d="M315,197.11s-2,5.15-2.59,7.3"/><line class="cls-9" x1="330.8" y1="167.74" x2="332.39" y2="170.24"/><path class="cls-9" d="M334.69,163.91s5.27.18,7,1.32"/><line class="cls-9" x1="236.94" y1="252.41" x2="286.24" y2="252.41"/><path class="cls-9" d="M260.84,252.41s-3.66,19.79,2.8,23.13V257.15"/><path class="cls-9" d="M250.51,272s6.17,3.86,9.3,6"/><path class="cls-9" d="M267.94,278s7.54-7.53,9.05-9.9"/><path class="cls-9" d="M239,401a78.52,78.52,0,0,0,15.33,0"/><path class="cls-9" d="M307.13,401s-9.47.67-15.93.72"/><path class="cls-11" d="M224.67,428.85s3.12,1,11.52.53a90.5,90.5,0,0,0,16.7-2.69"/><path class="cls-11" d="M297.44,427.45s11.2,3.23,17.44,3.87,9.9-.75,9.9-.75"/><path class="cls-11" d="M233.38,421.2a8.61,8.61,0,0,1,5,2.08"/><path class="cls-11" d="M235,419.85a8.61,8.61,0,0,1,5,2.08"/><path class="cls-11" d="M236.53,418.5a8.61,8.61,0,0,1,5,2.08"/><path class="cls-11" d="M314.68,421.79a8.61,8.61,0,0,0-5,2.08"/><path class="cls-11" d="M313.1,420.44a8.61,8.61,0,0,0-5,2.08"/><path class="cls-11" d="M311.52,419.09a8.61,8.61,0,0,0-5,2.08"/><line class="cls-10" x1="271.82" y1="121.73" x2="268.05" y2="123.67"/><path class="cls-10" d="M266.44,124.53S262.52,131.65,250,128c0,0-5.39,5-11.32,4.36"/><path class="cls-10" d="M269.43,135.49s-3.32-1.38-3.91-9.76"/><path class="cls-10" d="M234.5,124.53a8.91,8.91,0,0,0-.6,3.65"/><path class="cls-10" d="M236.87,128.46a15.08,15.08,0,0,0-.52,2.15"/><line class="cls-10" x1="270.9" y1="126.82" x2="271.74" y2="128.46"/><path class="cls-10" d="M268.73,116.56s1.51,1.15,1.65,2.08"/><path class="cls-10" d="M266.08,118.64a6.82,6.82,0,0,1,1.4,1.22"/><line class="cls-10" x1="250.86" y1="125.73" x2="252.55" y2="124.03"/><path class="cls-12" d="M248.71,328.55c0,5.71-3.92,10.34-8.75,10.34a7.61,7.61,0,0,1-3.81-1L236,319.34a7.72,7.72,0,0,1,4-1.12C244.79,318.22,248.71,322.85,248.71,328.55Z"/><path class="cls-12" d="M301.11,337.23a7.71,7.71,0,0,1-4.75,1.66c-4.83,0-8.75-4.63-8.75-10.34s3.92-10.33,8.75-10.33a7.08,7.08,0,0,1,2.17.33Z"/><path class="cls-3" d="M445.2,66.83A3.61,3.61,0,0,1,444,61.39c1.66-2.1,4.63-4.27,9.74-4.19,6.51.11,12.26,4.47,12.16,10.59-.07,4.26-3.28,6.81-7.48,8.52-1.49.63-1.56,1.84-1.58,3.28h0A2.43,2.43,0,0,1,454.34,82l-2.3,0a2.43,2.43,0,0,1-2.4-2.47l0-2.3c0-1.92.15-3.48,2.12-4.7,2.68-1.65,5.16-1.74,5.21-4.83A3.46,3.46,0,0,0,453.55,64a4.78,4.78,0,0,0-3.9,1.84,3.65,3.65,0,0,1-4.45,1ZM458,89.47a5,5,0,1,1-4.92-5.08A5,5,0,0,1,458,89.47Z"/><path class="cls-3" d="M485.28,85.3a3.6,3.6,0,0,1,1.15-5.45c2.4-1.21,6-1.94,10.61.28,5.87,2.83,9.26,9.19,6.6,14.71-1.85,3.83-5.84,4.8-10.37,4.6-1.61-.06-2.18,1-2.8,2.31h0a2.44,2.44,0,0,1-3.25,1.14l-2.07-1A2.44,2.44,0,0,1,484,98.64l1-2.08c.83-1.72,1.59-3.09,3.9-3.37,3.12-.38,5.41.58,6.75-2.2A3.46,3.46,0,0,0,494,86.25a4.78,4.78,0,0,0-4.31,0,3.62,3.62,0,0,1-4.44-1Zm2.16,25.94a5,5,0,1,1-2.33-6.67A5,5,0,0,1,487.44,111.24Z"/><path class="cls-3" d="M403.36,86.05a3.6,3.6,0,0,1-4.29-3.56c0-2.68,1.08-6.21,5.17-9.25,5.24-3.89,12.45-3.94,16.1,1,2.54,3.42,1.54,7.4-.74,11.32-.8,1.4-.11,2.41.74,3.56h0a2.43,2.43,0,0,1-.5,3.4L418,93.87a2.44,2.44,0,0,1-3.41-.5l-1.37-1.85c-1.14-1.53-2-2.84-1.18-5,1.12-2.94,3-4.52,1.19-7a3.46,3.46,0,0,0-5-.76,4.78,4.78,0,0,0-2,3.83,3.64,3.64,0,0,1-2.94,3.48Zm24,10.14a5,5,0,1,1-7-1A4.95,4.95,0,0,1,427.34,96.19Z"/><polygon class="cls-4" points="408.93 400.53 407.93 415.31 393.67 427.12 396.4 431.15 423.2 426.4 425.36 401.51 408.93 400.53"/><path class="cls-5" d="M402.38,419.34a18.08,18.08,0,0,0,11.79,4.88c2.33.06,9.57-2.18,9.57-2.18s.47,5.26-.69,8.75c-.57,1.73-26.07,5.4-30,5.26s-4.9-.58-5.76-1.8-1.59-3.31,2-5.62S402.38,419.34,402.38,419.34Z"/><polygon class="cls-4" points="476.71 399.55 477.71 414.33 491.98 426.14 489.24 430.18 462.44 425.42 460.28 400.53 476.71 399.55"/><path class="cls-5" d="M483.26,418.37a18,18,0,0,1-11.79,4.87c-2.33.06-9.57-2.17-9.57-2.17s-.47,5.25.69,8.75c.57,1.73,26.07,5.4,30,5.26s4.9-.58,5.76-1.8,1.59-3.32-2-5.62S483.26,418.37,483.26,418.37Z"/><polygon class="cls-5" points="413.4 240.53 404.61 401.51 428.1 401.51 442.3 266.35 445.45 266.96 457.77 401.51 480.2 400.51 472.53 240.53 413.4 240.53"/><path class="cls-7" d="M472.53,219.74V158.16a139.24,139.24,0,0,0-33.27-4.41s-18-.94-22.55,0l-3.75,66-4.5,26.86s25.76,4.48,31.81,4l4.32-6.26,3.67,6.29s16.64-.34,27.88-4.07Z"/><path class="cls-4" d="M454,157.32a27.26,27.26,0,0,0,.11,3.34l-7.13,4.07-9-6.27a26.37,26.37,0,0,0,1.3-4.7c.06-.34.12-.66.17-1,.1-.59.17-1.14.22-1.65.15-1.36.2-2.38.21-2.77,0-.12,0-.18,0-.18l1.05.22,14.05,3a10.14,10.14,0,0,0-.59,1.91,14,14,0,0,0-.34,2.3C454,156.18,454,156.76,454,157.32Z"/><path class="cls-7" d="M394.67,184.42s13.81-29.65,22-30.67c10.59-1.31,2.74,25.44,2.74,25.44l-13.11,23.24Z"/><path class="cls-7" d="M493.57,187.45S479.76,159,471.53,158c-10.59-1.31-2.74,25.44-2.74,25.44l13.11,21.32Z"/><path class="cls-4" d="M406.77,195.23c-1.51-2.77-22.87-19.43-28-23.45h0l-1.42-2s-2.23-3.09-4.82-3.88c-1.27-.39-6.63-2.1-8.21-2.17s0,2,1.22,2.48,3.53,1.24,3.53,1.24l-9.44,4.21s-5.38,2.07-5.87,3.47,1.73.54,3.73-.27c1.48-.6,3.08-1.32,3.81-1.65l.16.15c-.65.26-5.34,2.14-5.79,3.45s1.73.54,3.73-.27c1.44-.58,3-1.27,3.73-1.62l.3.29c-1,.41-5.21,2.15-5.64,3.38-.48,1.41,1.73.54,3.73-.27,1.35-.55,2.79-1.19,3.59-1.55l.25.23c-1.52.64-4.71,2.09-5.08,3.16-.49,1.4,1.73.54,3.73-.27,1.08-.44,2.21-.94,3-1.31h0s1.8-.56,3.94-1.45c.87,1.34,19.62,29.82,28.48,29.82C408.5,207,408.5,198.37,406.77,195.23Z"/><path class="cls-4" d="M529.21,175.78c-.49-1.4-5.87-3.47-5.87-3.47l-9.44-4.22s2.31-.75,3.53-1.23,2.81-2.55,1.23-2.48-6.95,1.78-8.21,2.16c-2.6.8-4.83,3.89-4.83,3.89l-1,1.37c-3.88,4.62-21.73,26-22.64,29-1,3.44.78,11.87,9.66,10,7.43-1.6,17.57-25.25,20.65-32.87,2,.81,3.63,1.32,3.63,1.32h0c.82.37,2,.87,3,1.31,2,.81,4.21,1.67,3.73.27-.37-1.07-3.57-2.52-5.08-3.16l.25-.23c.79.36,2.23,1,3.58,1.55,2,.81,4.22,1.67,3.73.27-.43-1.23-4.61-3-5.64-3.38l.3-.29c.76.35,2.3,1,3.73,1.62,2,.81,4.22,1.67,3.73.27s-5.13-3.19-5.79-3.45l.16-.15c.73.33,2.33,1,3.81,1.65C527.48,176.32,529.7,177.19,529.21,175.78Z"/><path class="cls-9" d="M417.15,158.8a49,49,0,0,1-.33,25.06"/><path class="cls-9" d="M472.53,163.12s-3.89,14-1.94,23.22"/><polyline class="cls-9" points="415.85 219.53 418.58 221.04 416.82 223.85"/><line class="cls-9" x1="471.29" y1="221.69" x2="468.44" y2="223.85"/><line class="cls-9" x1="446.94" y1="164.73" x2="444.59" y2="244.38"/><path class="cls-6" d="M455,151.36a10.14,10.14,0,0,0-.59,1.91,14,14,0,0,0-.34,2.3c-.05.61-.08,1.19-.08,1.75a12.78,12.78,0,0,1-7.49-.86,29.1,29.1,0,0,1-7-3.67c.1-.59.17-1.14.22-1.65.15-1.36.2-2.38.21-2.77l1.06,0Z"/><path class="cls-4" d="M433.5,120.22s-1.63,15.25-1.33,20.67,8.09,12,14.25,13.65c5.25,1.44,14.7-4.25,17-8.27s5.68-23.74,5.68-23.74S451,97.81,433.5,120.22Z"/><path class="cls-4" d="M434,129.82s-2.69-4.35-5.06-3.58-2.63,6.09-.54,9.42,4.54,2.57,4.54,2.57Z"/><path class="cls-4" d="M465.65,133.7s3.79-3.44,5.85-2,.85,6.58-2.08,9.2-5.07,1.21-5.07,1.21Z"/><path class="cls-5" d="M444.48,102.08c-7.34,1.51-7.24,5.83-11.23,6.81s-5.72,3.45-6.27,6,.32,2.59,1.08,2.59h1.19s.09,2.53-.11,5.62,1.35,3.56,1.35,3.56,3.4,2.27,3.51,5.51a2.82,2.82,0,0,0,2.05-2.16,85.74,85.74,0,0,0,.65-9s4.76-.22,7.89-2.27a6.15,6.15,0,0,0,4,1.08c2.81,0,11-2.7,13.29-1.3a9.5,9.5,0,0,0,3.35,4.43,91.28,91.28,0,0,0-.88,9.18,5.17,5.17,0,0,0,1.08,2.92s1.74-3.53,4.66-3.82c0,0,2.59-4.07,3-7.52a2.05,2.05,0,0,0,1.95-2.38c-.22-2.27-1.08-3-1.62-5.29s-2.38-4.65-3.67-4.76c0,0,1.18-1.83-4.65-5.83S451.83,100.57,444.48,102.08Z"/><path class="cls-13" d="M439.66,151.14a15.84,15.84,0,0,0,1.62,6.79c1.51,2.89,5.66,6.8,5.66,6.8a15.3,15.3,0,0,0-5.52-1.24,12.86,12.86,0,0,0-4.82,1.24l-1.73-11Z"/><path class="cls-13" d="M454.37,153.27s-1.7,8.38-7.43,11.46a18.52,18.52,0,0,1,5.79,0,7.89,7.89,0,0,1,3.46,1.93s2.83-8.67,2.89-11.25Z"/><path class="cls-9" d="M429.1,128.84a10.53,10.53,0,0,1,3,5.62"/><path class="cls-9" d="M430,134s.12-2,1.18-2.38"/><path class="cls-9" d="M470.38,134a10.23,10.23,0,0,0-4.39,5"/><path class="cls-9" d="M468.18,138.64a2.11,2.11,0,0,0,0-2.09"/><ellipse class="cls-5" cx="442.95" cy="131.04" rx="1.86" ry="1.06" transform="translate(256.83 553.8) rotate(-82.72)"/><path class="cls-8" d="M439.79,125s3.84,1,5.9-.24"/><ellipse class="cls-5" cx="456.34" cy="131.99" rx="1.86" ry="1.06" transform="translate(316.26 585.92) rotate(-88.98)"/><path class="cls-8" d="M460.34,126.47s-3.94.44-5.8-1.09"/><path class="cls-9" d="M449.39,130.5s-.29,4.09-.81,4.58a1.42,1.42,0,0,0-1.41,1.5,2,2,0,0,0,1.28,2"/><path class="cls-9" d="M446.46,143.53s2.42-1.58,4.17-1.29a3.51,3.51,0,0,1,2.38,1.29"/><line class="cls-9" x1="369.03" y1="167.49" x2="372.31" y2="169.18"/><line class="cls-9" x1="360.82" y1="172.78" x2="365.64" y2="177.1"/><path class="cls-9" d="M371,177.17s3.91-1.44,4.28-1.51"/><line class="cls-9" x1="512.3" y1="177.91" x2="509.42" y2="176.96"/><line class="cls-9" x1="522.17" y1="173.23" x2="517.2" y2="177.91"/><path class="cls-9" d="M513.9,168.09a17,17,0,0,1-3,2.6"/><line class="cls-10" x1="405.23" y1="395.21" x2="428.76" y2="395.21"/><line class="cls-10" x1="457.1" y1="394.15" x2="480.2" y2="393.05"/><path class="cls-10" d="M422.62,256.55S418.28,314.89,417,321s0,8.42,0,8.42a65,65,0,0,0-.57,6.92c.15,1.15-2.73,51.57-2.73,51.57"/><path class="cls-10" d="M461.52,256.55s4.9,69.15,5.47,72.61a16.59,16.59,0,0,1,0,5.94,32.06,32.06,0,0,0,.26,4.72c.32,2,3.49,48.11,3.49,48.11"/><line class="cls-10" x1="442.3" y1="266.35" x2="435.73" y2="260.15"/><line class="cls-10" x1="445.45" y1="266.96" x2="450.71" y2="263.9"/><path class="cls-12" d="M422.91,180.05l13.54,1.29s-.14,15.14-8.07,15.14S422.91,180.05,422.91,180.05Z"/><line class="cls-10" x1="469.12" y1="112.24" x2="465.99" y2="114.03"/><path class="cls-10" d="M434,120.84s7.35,1,10.59-2c0,0,2.66,2.12,7.56.56s9-1.21,9.73-.78c0,0,1.65,4.4,4.82,4.83s3.68-.65,3.68-.65"/><line class="cls-10" x1="473.04" y1="122.07" x2="472.18" y2="123.08"/><path class="cls-10" d="M431.15,118.68a5.89,5.89,0,0,1,1.48-2.73"/><path class="cls-10" d="M467.56,110a4.53,4.53,0,0,0-2.22-2"/><path class="cls-10" d="M436.88,109a38.33,38.33,0,0,0,3.68-3.46"/><path class="cls-10" d="M445,116.67a6.6,6.6,0,0,1,2.6-2.09"/><path class="cls-3" d="M84.23,93.14a3.65,3.65,0,0,1-3.06-4.75C82,85.8,84.11,82.71,89,81c6.24-2.15,13.23,0,15.25,5.89,1.4,4.08-.78,7.62-4.19,10.7-1.21,1.12-.85,2.3-.37,3.67h0a2.47,2.47,0,0,1-1.53,3.13l-2.21.76a2.47,2.47,0,0,1-3.14-1.53l-.75-2.21c-.63-1.83-1.07-3.36.39-5.21,2-2.5,4.32-3.44,3.3-6.39a3.52,3.52,0,0,0-4.55-2.26,4.85,4.85,0,0,0-3.08,3.1,3.69,3.69,0,0,1-3.9,2.46Zm20,17.15a5,5,0,1,1-6.44-3.15A5,5,0,0,1,104.28,110.29Z"/><path class="cls-6" d="M134,406.41c-.61-3.71-2.47-14.9-4.72-27.29-2.77-15.19-10.13-34.41-10.13-34.41l-16.25,12.78,19.57,52.88a17.07,17.07,0,0,1-2.52,5.23c-1.84,2.19-2.53,3.08-2.53,3.08a31.31,31.31,0,0,0,7.25,1.3c3,0,10.82-6.91,11.17-8.17C136,411.1,134.92,408.54,134,406.41Z"/><path class="cls-14" d="M119,416.7a39,39,0,0,1-4.59,4.08c-3.45,2.76-4.72,4.61-4.72,5.76s13.47,1.56,16.34.78,11.28-9.3,12.2-11.14-3.42-7.86-3.42-7.86a53.8,53.8,0,0,1-2.79,5.21c-1.15,1.73-5.42,3.63-8,4.49C118.15,420,119,416.7,119,416.7Z"/><path class="cls-14" d="M92.84,249.57s-1.36,18.7-1.06,44S100,344.71,100,344.71l20.17-6.18-1.51-89Z"/><path class="cls-6" d="M103.09,182s-9.35,17.64-12,24.43,4.72,15.41,4.72,15.41l5.46-5.16S104.3,187.9,103.09,182Z"/><path class="cls-7" d="M103.09,182s16.13-8.89,29.55-11.16,17.79,5.58,17.79,5.58l-9.37,52,4.7,21.11H92.84l6.33-30S98.41,193.78,103.09,182Z"/><path class="cls-4" d="M100.64,135.42s0,17.49.79,22.42,6.4,9.1,12,10.85,15.39-5,17.12-8.93,3-23.14,3-23.14S108,122.84,100.64,135.42Z"/><path class="cls-4" d="M115.18,167a35.48,35.48,0,0,1-.25,11.37l15.65-5.43.37-14.31Z"/><path class="cls-4" d="M130.05,146.86s2.78-5.37,6.23-3.55,1.77,8.86-.48,11.25-5.59.19-5.59.19Z"/><path class="cls-6" d="M115.4,169s7-1.17,11.25-4.83c0,0-4.93,8.87-11.17,10Z"/><path class="cls-5" d="M111.49,132.11a26.71,26.71,0,0,0,7.63,8.72c5.57,4.3,9.85,4.68,9.85,4.68s-1.76,5.29,1.2,7.1c0,0,1.17-10.21,5.22-9.62s2.38,12.54-3.78,12.41a15.43,15.43,0,0,0-.8,8.47s12.45-9.07,14.12-21.55-7-16.21-7-16.21-3.07-6.09-13.4-8-15.67,4-15.67,4-5.17-1.68-9.67,3.52a10.14,10.14,0,0,0-2.14,10.46s-3.35,3.69-2.08,8.06,5.89,5.37,5.89,5.37.85-12.25,2.8-15.59S111.49,132.11,111.49,132.11Z"/><path class="cls-9" d="M109.38,146.32s.32,3.54-1.08,5.73,1.6,3.2,1.6,3.2"/><path class="cls-8" d="M102.12,142.17s2.06-2.48,4.42-.65"/><path class="cls-8" d="M114.44,142.22a14.63,14.63,0,0,0,5.17,1.47"/><path class="cls-9" d="M135.49,146.11a6.91,6.91,0,0,0-3.43,5.61"/><path class="cls-4" d="M148.78,177.05s4.67.6,6,9.95S147.1,220.31,144,225.45C138.67,234,91.78,227,91.78,227l2.56-10.41,37.7-4.67s4.82-21,7.69-28.65S148.78,177.05,148.78,177.05Z"/><path class="cls-9" d="M134.11,151a2.33,2.33,0,0,0-.94-2.21"/><path class="cls-5" d="M117.54,148.16c-.05,1-.54,1.75-1.1,1.72s-1-.84-.91-1.82.54-1.75,1.09-1.73S117.59,147.18,117.54,148.16Z"/><path class="cls-5" d="M106.18,147.59c-.05,1-.54,1.75-1.09,1.72s-1-.84-.92-1.82.54-1.75,1.09-1.72S106.23,146.61,106.18,147.59Z"/><path class="cls-9" d="M109.62,159.69a5.1,5.1,0,0,1,4.42.74"/><circle class="cls-5" cx="139.81" cy="125.84" r="7.75" transform="translate(-22.69 220.57) rotate(-72.23)"/><path class="cls-4" d="M94.68,172.67s3.75-4.75,5.25-5.2,6.63,2.2,7,3-.53,2.22-.53,2.22-.23,2.72-1.13,3.17l-.91.45s-1.43,4.07-3.92,4.75c0,0-.53,4.75-3.54,5.43l-5.81-4.9A31.33,31.33,0,0,1,94.68,172.67Z"/><path class="cls-4" d="M98.79,168.64a17.43,17.43,0,0,1,3.92-3.66c1.7-.86,6.3.23,6.79.91s-.49,1.13-2.26,1-2.38-.22-2.38-.22L103.58,169Z"/><path class="cls-4" d="M91.1,181.57s-11,30-10.78,37.85,5.23,9,8.24,8.84,7.12-4.63,8.85-10,0-33.17,0-33.17Z"/><path class="cls-9" d="M132.59,213.38a23,23,0,0,1,4.22,6"/><path class="cls-9" d="M94.29,186.47a2.86,2.86,0,0,0,3.19-.19"/><path class="cls-9" d="M100.45,181a1.22,1.22,0,0,1-.58-1.53l.77-1.76"/><path class="cls-9" d="M101.33,174.58s2.61.61,3,1.71"/><path class="cls-9" d="M102.64,171.47a5.6,5.6,0,0,1,3.77,1.2"/><path class="cls-4" d="M118.14,363.48l-21,1.08-7.25,49.07c-2.25,1-4.71,3.92-9.94,5.95-4.1,1.59-3.09,2.28-4,3.91A4.23,4.23,0,0,0,76,427h27.53a1.78,1.78,0,0,0,1.76-1.76c0-2.79,0-8.25,0-11.37.55-2.21,2.76-10.91,5.93-21.54C114.89,379.94,118.14,363.48,118.14,363.48Z"/><path class="cls-5" d="M85.38,416.8s1.91,2.85,10,2.35,10-2.35,10-2.35,1,9.59.58,10.54-10.15.41-11.49.38-19.23.83-21.45,0-2.85-2.44-2.14-3.54S82.3,418.3,85.38,416.8Z"/><path class="cls-4" d="M108.91,179.08s-1,2.84,8.18,2.94,22-9.35,22-9.35l-7.85-.6-16.35,4.22Z"/><path class="cls-5" d="M139.93,151.72s.7,10.8,6.43,14c0,0,5.53.3,7,5.73s-4.52,9.14-4.52,9.14-.51,6.54-8.55,7.34-11.86-9.85-11.86-15.68S135.51,153.69,139.93,151.72Z"/><path class="cls-5" d="M145.75,249.57s1.62,15.59-5.52,40-20.47,75-20.47,75h-25l13.32-100.05-1.63-14.94Z"/><line class="cls-10" x1="118.37" y1="256.87" x2="108.07" y2="264.51"/><path class="cls-10" d="M141.48,251.07s-.86,21-5.17,37.81-19.8,71.26-19.8,71.26"/><path class="cls-10" d="M95.34,360.14s20.21.54,25.59,0"/><path class="cls-9" d="M107.92,181.57s.12,2.1,7,2.53A37.08,37.08,0,0,0,128.47,182"/><path class="cls-10" d="M110.64,128.89A24.66,24.66,0,0,0,129,145.51"/><line class="cls-10" x1="108.86" y1="122.14" x2="111.07" y2="123.65"/><path class="cls-10" d="M97.05,136.12a12.77,12.77,0,0,0,2.46,1.59"/><path class="cls-10" d="M133.77,122.14s6.66,4.22,9.09,9.22"/><path class="cls-10" d="M132.06,132.14a3.64,3.64,0,0,1,1.47,2.22"/><line class="cls-10" x1="130.05" y1="124.93" x2="131.71" y2="126.21"/><path class="cls-10" d="M139.13,154.21s.8,6.52,2.66,9.66"/><line class="cls-10" x1="130.81" y1="163.87" x2="132.43" y2="162.43"/><line class="cls-10" x1="137.43" y1="157.5" x2="137.43" y2="159.48"/><path class="cls-10" d="M146,174.58a9.56,9.56,0,0,1,2.88,6"/><path class="cls-10" d="M142.64,181.57a4.69,4.69,0,0,1,0,2.14"/><path class="cls-10" d="M133.17,172.67a14.59,14.59,0,0,0,1.26,4.93"/><path class="cls-10" d="M140.07,168.49a9.62,9.62,0,0,1,1.72,2"/><path class="cls-10" d="M117.09,127.29s.52,2.57,1.8,3.42"/><path class="cls-10" d="M125.54,138.43a8.89,8.89,0,0,0,2,1.66"/><path class="cls-9" d="M94.75,247.43s22.83.14,28.61,0,18.93.24,18.93.24"/><path class="cls-3" d="M153.19,117.83a4.77,4.77,0,0,1-.08-7.38c2.75-2.26,7.21-4.23,13.79-2.69,8.4,2,14.62,9.22,12.77,17.12-1.29,5.49-6.17,7.89-12.08,8.93-2.11.39-2.53,1.95-3,3.79h0a3.23,3.23,0,0,1-3.88,2.41l-3-.7a3.23,3.23,0,0,1-2.41-3.87l.7-3c.58-2.47,1.16-4.46,4.07-5.49,3.92-1.38,7.16-.8,8.09-4.78a4.59,4.59,0,0,0-3.46-5.66,6.35,6.35,0,0,0-5.57,1.28,4.8,4.8,0,0,1-6,0Zm10.25,32.91a6.59,6.59,0,1,1-4.93-8A6.58,6.58,0,0,1,163.44,150.74Z"/><path class="cls-5" d="M571.49,128.15S567.86,145.36,570,155s9.07,8.47,10.13,8.16,2-3.13,2-3.13a4.84,4.84,0,0,0,4.38,2.38,15.56,15.56,0,0,0,6.21-2.1s9.54,2.25,15.13,1,6.39-3.63,6.39-3.63,3.3,1.51,7.07-1.82-1.52-16.74-3.56-22.05S571.49,128.15,571.49,128.15Z"/><polygon class="cls-4" points="589.94 409.65 591.15 423.57 602.34 421.9 602.34 409.2 589.94 409.65"/><polygon class="cls-4" points="635.46 409.2 638.63 421.75 648.77 421.75 647.56 409.2 635.46 409.2"/><path class="cls-5" d="M602.34,420.24s8.92,11.34,13.16,13.91,2.26,5,.6,5.6-6.46.21-15.58,0c-.81,0-7-.62-10.17-1.08a1.91,1.91,0,0,1-1.61-2.2L591,422.24l9.68-1.71Z"/><path class="cls-5" d="M637.88,418.76l-1.41,17.3a1.29,1.29,0,0,0,1.17,1.39c3.88.37,15.43,1.47,16.91,1.47,1.79,0,10.92,0,12.9-1.14s1.39-3.17,0-4.53-9.13-5.68-9.13-5.68l-9.88-9.23Z"/><path class="cls-7" d="M621.61,173.27s-7.43-8.11-25.29-8.11c-13.61,0-25.3,9.63-25.3,9.63l9.75,45.6-4.7,21.11H629l-5-23.93S629.36,186,621.61,173.27Z"/><path class="cls-4" d="M614.41,123.52s3.17,17.2,3.28,22.19-4.66,10.1-9.86,12.84-16-2.17-18.45-5.69-7.1-22.22-7.1-22.22S604.87,112.48,614.41,123.52Z"/><path class="cls-4" d="M605.81,157.19a35.43,35.43,0,0,0,2.3,11.14l-16.37-2.51-3-14Z"/><path class="cls-4" d="M587.56,140.08s-3.71-4.78-6.78-2.37-.14,9,2.51,11,5.53-.82,5.53-.82Z"/><path class="cls-6" d="M606,159.18s-7.11.12-12-2.72c0,0,6.46,7.83,12.79,7.77Z"/><path class="cls-5" d="M607.33,121.54s.87,6.08-7.67,10.11c-6.36,3-8,6.24-8,6.24s1.66,6.11-3.2,7.87c0,0-3-9.83-6.88-8.52s-.07,12.76,6,11.53a15.43,15.43,0,0,1,2.31,8.18S576,150.27,572.1,138.3s4-17.2,4-17.2,1.92-6.56,11.74-10.28,20.91-1.47,26.28,2.83a10.18,10.18,0,0,1,4,9.91s3.95,3,3.5,7.55-4.83,6.34-4.83,6.34-3-11.89-5.57-14.83S607.33,121.54,607.33,121.54Z"/><path class="cls-9" d="M607.79,135.82s.32,3.54,2.09,5.44-1,3.43-1,3.43"/><path class="cls-8" d="M614.18,130.42s-2.48-2.06-4.46.17"/><path class="cls-8" d="M602.07,132.7a14.7,14.7,0,0,1-4.82,2.38"/><path class="cls-9" d="M582.07,140.32a6.92,6.92,0,0,1,4.38,4.91"/><path class="cls-9" d="M584.3,144.83a2.31,2.31,0,0,1,.52-2.33"/><path class="cls-5" d="M600.09,139.1c.23,1,.85,1.62,1.39,1.5s.8-1,.57-2-.84-1.63-1.38-1.5S599.87,138.14,600.09,139.1Z"/><path class="cls-5" d="M611.16,136.49c.23.95.85,1.62,1.39,1.5s.8-1,.57-2-.84-1.63-1.38-1.5S610.94,135.53,611.16,136.49Z"/><path class="cls-9" d="M610,149a5.08,5.08,0,0,0-4.21,1.53"/><path class="cls-4" d="M656,167.57c-2.34-7.49-17.17-35.41-17.17-35.41a31.07,31.07,0,0,0-5.06-8.15s-4.13-3.68-5.85-4.16a12.57,12.57,0,0,0-3.39-2c-1.82-.56-6.16,1.31-6.53,2.06s.68,1,2.4.58,2.3-.63,2.3-.63l1.32,1.64a9.36,9.36,0,0,0-2.71,2.47c-.23.84.91,2.09.91,2.09s.69,2.63,1.66,2.92l1,.29s2.12,3.76,4.68,4c0,0,1.17,4,3.83,4.65.58,4.93,2.84,23.36,5,29.89L629,169.71c.55,3.72,4.9,18,4.9,18C638.19,187.09,659.26,178.12,656,167.57Z"/><path class="cls-5" d="M644.67,349.77S641.89,273,629,241.5H576.07s-5.43,14.81-4.25,45.66c.95,24.79,7.12,52.21,9.51,62-.25,9.69-.2,36.78,7.1,61.11h15.42l-.91-57.35,4.44-71.67,13.5,64.22h-.06s2.09,39.5,14.34,64.81h13.61Z"/><path class="cls-9" d="M636.51,137.53a2.86,2.86,0,0,1-3.18.37"/><path class="cls-10" d="M581.33,243.05s-6.36,25.71-4.25,50.82a447,447,0,0,0,7.41,49.6"/><path class="cls-9" d="M629.5,133.25a1.22,1.22,0,0,0,.31-1.61l-1.06-1.6"/><path class="cls-9" d="M627.52,127s-2.47,1-2.7,2.21"/><path class="cls-9" d="M625.7,124.2a5.59,5.59,0,0,0-3.51,1.84"/><path class="cls-7" d="M612.14,167.71l18.11.62,4.67,19.38s-7.4,4.32-13.67,4.17C611.92,191.66,612.14,167.71,612.14,167.71Z"/><path class="cls-4" d="M592.78,248.27s1.31.47,2.45.77,2.44.36,1.9-.89-3.57-2.81-6.68-2.33-4.11.76-4.11.76l-5.53.6-16.54-23.25L570,208.78l-14.84-10.6a167.17,167.17,0,0,0-8.59,24.55c-3.1,12.41,27,31.82,27,31.82a11.73,11.73,0,0,0,5.73,3,23.94,23.94,0,0,0,7.48.11h.06l.27-.05.46-.07h0l3.6-.59s1.32.48,2.45.78,2.45.35,1.91-.9c-.47-1.09-2.83-2.4-5.48-2.41l1.88-.31s1.31.48,2.45.77,2.44.36,1.91-.89-3.48-2.74-6.52-2.34l2.69-.44s1.31.47,2.45.77,2.44.36,1.91-.89-3.58-2.81-6.69-2.33c-1.1.17-1.94.32-2.56.43v-.1Z"/><path class="cls-7" d="M571,174.79s-12.2,9-17,24.24l17.76,11.34s7.75-11.08,10.25-19.32S576.29,172.9,571,174.79Z"/><path class="cls-4" d="M581.08,168.75s6.53,4.13,17.37,3.83,13.69-4.87,13.69-4.87l-4.89-1.8-15.81-1.53Z"/><path class="cls-9" d="M577.05,202a50.36,50.36,0,0,0,4-15.66"/><path class="cls-9" d="M621.25,175.57s5.31,11.3,4.92,15.69"/><line class="cls-9" x1="619.73" y1="215.83" x2="607.79" y2="218.55"/><polyline class="cls-9" points="584.14 220.37 586.45 221.69 584.14 222.77"/><path class="cls-9" d="M582.53,172.59s12.42,4.25,21.09,2,10.56-5.17,10.56-5.17"/><path class="cls-9" d="M564.27,223.93a16.42,16.42,0,0,1-7.83,2.79"/><path class="cls-9" d="M638.32,167.79a54.4,54.4,0,0,0,8.86,2.9"/><path class="cls-10" d="M593,349.67a8.94,8.94,0,0,0,8.77,0"/><path class="cls-10" d="M642.72,348.16s-5.75.75-8.62-1.82"/><line class="cls-10" x1="620.88" y1="345.49" x2="625.93" y2="347.3"/><line class="cls-10" x1="581.33" y1="349.18" x2="584.49" y2="352.09"/><path class="cls-10" d="M607.38,281.27s1.16-11.6,4.49-15.84a16.47,16.47,0,0,1,7.86-5.44"/><path class="cls-10" d="M588.93,435.27s6.23.83,14.85,1.36a80.17,80.17,0,0,0,13,0"/><path class="cls-10" d="M637,434.89s14.75,1.3,20.34,1.18a51.85,51.85,0,0,0,10-1.18"/><path class="cls-10" d="M593,410.29s-10.73-37.78-8.47-53.51"/><path class="cls-10" d="M610.21,270.63s12.94,66.19,13.19,72.84"/><path class="cls-10" d="M625.93,350.81s1.51,41.92,12.48,59.48"/><path class="cls-10" d="M576.06,121.1a46,46,0,0,1,7.53,0"/><path class="cls-10" d="M606.73,119.27a8.9,8.9,0,0,1-1.67,8.88c-3.63,4.35-11.34,4-13.38,9.74,0,0,1.24,7.36-3.2,7.87"/><path class="cls-10" d="M589.79,136.26s.07-3.53,1.06-5.27"/><line class="cls-10" x1="615.72" y1="122.52" x2="618.08" y2="123.56"/><path class="cls-10" d="M573.3,141.24a29.25,29.25,0,0,0,0,6.08"/><path class="cls-10" d="M577.46,152.72a20.39,20.39,0,0,0,0,3.74"/><line class="cls-10" x1="584.82" y1="153.89" x2="584.82" y2="156.09"/><path class="cls-10" d="M607.79,112.84s3.55,1.14,5.14,3"/><line class="cls-10" x1="617.69" y1="151.56" x2="617.9" y2="153.89"/><path class="cls-10" d="M577.46,127a10.56,10.56,0,0,0-.53,4.63"/><path class="cls-10" d="M597.25,118.59a7.05,7.05,0,0,1-.93,3.1"/><path class="cls-10" d="M582.91,116.17a15,15,0,0,1,5.91-3.33"/><path class="cls-3" d="M666.45,63.62H626.3a8.4,8.4,0,0,0-8.4,8.4v30.83a8.41,8.41,0,0,0,8.4,8.41h13.23l-1.35,5.83a1.9,1.9,0,0,0,2.88,2l12-7.85h13.39a8.41,8.41,0,0,0,8.4-8.41V72A8.4,8.4,0,0,0,666.45,63.62Z"/><path class="cls-1" d="M637.42,78a3.66,3.66,0,0,1-1.3-5.5c1.68-2.15,4.68-4.37,9.85-4.32,6.61.07,12.46,4.44,12.4,10.65,0,4.31-3.28,6.92-7.52,8.69-1.51.64-1.56,1.88-1.58,3.33h0a2.45,2.45,0,0,1-2.49,2.44l-2.33,0A2.46,2.46,0,0,1,642,90.75l0-2.33c0-1.94.12-3.53,2.12-4.78,2.7-1.7,5.21-1.8,5.24-4.93a3.5,3.5,0,0,0-3.53-3.64A4.82,4.82,0,0,0,641.92,77a3.69,3.69,0,0,1-4.5,1Zm13.17,22.86a5,5,0,1,1-5-5.11A5,5,0,0,1,650.59,100.83Z"/></g></svg>